<svg width="154" height="153" viewBox="0 0 154 153" fill="none" xmlns="http://www.w3.org/2000/svg">
<g clip-path="url(#clip0)">
<path d="M140.602 148H6.23438C2.78906 148 0 145.204 0 141.587V6.24889C0 2.79556 2.78906 0 6.23438 0H140.602C144.047 0 146.836 2.79556 146.836 6.24889V141.587C147 145.204 144.211 148 140.602 148Z" fill="#F2F2FB"/>
<path d="M124.201 35.2497L123.595 35.7813C123.216 36.0851 122.61 36.0851 122.307 35.7054L116.169 28.7938L118.139 27.0469L124.277 33.9585C124.58 34.3383 124.58 34.9459 124.201 35.2497Z" fill="#0000AF"/>
<path d="M114.047 16.1855C110.183 16.1855 107 19.2996 107 23.2491C107 27.1986 110.183 30.3126 114.047 30.3126C117.912 30.3126 121.094 27.1986 121.094 23.2491C121.094 19.2996 117.912 16.1855 114.047 16.1855ZM114.047 27.9581C111.395 27.9581 109.273 25.8314 109.273 23.1731C109.273 20.5148 111.395 18.3881 114.047 18.3881C116.699 18.3881 118.821 20.5148 118.821 23.1731C118.821 25.8314 116.699 27.9581 114.047 27.9581Z" fill="#0000AF"/>
<rect x="1" y="-1" width="136" height="31" rx="2" transform="matrix(1 0 0 -1 -4 40)" stroke="#0000AF" stroke-width="2"/>
<rect x="1" y="-1" width="48" height="32" rx="2" transform="matrix(1 0 0 -1 10 86)" stroke="#0000AF" stroke-width="2"/>
<rect x="1" y="-1" width="48" height="32" rx="2" transform="matrix(1 0 0 -1 10 136)" stroke="#0000AF" stroke-width="2"/>
<rect x="1" y="-1" width="48" height="32" rx="2" transform="matrix(1 0 0 -1 78 136)" stroke="#0000AF" stroke-width="2"/>
<rect width="61" height="41" rx="3" transform="matrix(1 0 0 -1 73 91)" fill="#0000AF"/>
<path d="M117.906 66.5205C117.392 66.5205 116.983 66.9283 116.983 67.4412C116.983 67.9411 117.392 68.362 117.906 68.362C118.433 68.362 118.828 67.9411 118.828 67.4412C118.828 66.9283 118.406 66.5205 117.906 66.5205Z" fill="#FFBB00"/>
<path d="M120.175 64.9439C120.334 64.6156 120.199 64.2165 119.855 64.0953C119.262 63.8865 118.621 63.7715 117.958 63.7715C117.28 63.7715 116.623 63.8961 116.015 64.1179C115.675 64.2423 115.542 64.6391 115.7 64.9654C115.862 65.2992 116.265 65.4294 116.617 65.3135C117.039 65.175 117.487 65.1 117.958 65.1C118.417 65.1 118.852 65.1679 119.262 65.2964C119.614 65.407 120.014 65.2759 120.175 64.9439Z" fill="#FFBB00"/>
<path d="M121.407 62.3863C121.585 62.0171 121.433 61.5702 121.051 61.4212C120.086 61.0442 119.039 60.8384 117.932 60.8384C116.821 60.8384 115.762 61.0457 114.791 61.4323C114.413 61.5826 114.264 62.0262 114.441 62.3926C114.621 62.7676 115.073 62.9184 115.463 62.7745C116.232 62.4912 117.067 62.3379 117.932 62.3379C118.799 62.3379 119.627 62.4916 120.393 62.7697C120.781 62.9107 121.228 62.7587 121.407 62.3863Z" fill="#FFBB00"/>
<path d="M120.175 64.9439C120.334 64.6156 120.199 64.2165 119.855 64.0953C119.262 63.8865 118.621 63.7715 117.958 63.7715C117.28 63.7715 116.623 63.8961 116.015 64.1179C115.675 64.2423 115.542 64.6391 115.7 64.9654C115.862 65.2992 116.265 65.4294 116.617 65.3135C117.039 65.175 117.487 65.1 117.958 65.1C118.417 65.1 118.852 65.1679 119.262 65.2964C119.614 65.407 120.014 65.2759 120.175 64.9439Z" fill="#FFBB00"/>
<path d="M121.407 62.3863C121.585 62.0171 121.433 61.5702 121.051 61.4212C120.086 61.0442 119.039 60.8384 117.932 60.8384C116.821 60.8384 115.762 61.0457 114.791 61.4323C114.413 61.5826 114.264 62.0262 114.441 62.3926C114.621 62.7676 115.073 62.9184 115.463 62.7745C116.232 62.4912 117.067 62.3379 117.932 62.3379C118.799 62.3379 119.627 62.4916 120.393 62.7697C120.781 62.9107 121.228 62.7587 121.407 62.3863Z" fill="#FFBB00"/>
<path d="M87.9461 68.6513H87.9989C88.3547 68.6513 88.6447 68.967 88.8688 69.5984L90.8459 73.6365C92.2957 70.5586 93.0865 68.9539 93.2052 68.8223C93.3633 68.704 93.5215 68.6382 93.6928 68.6382C94.1542 68.7171 94.3782 68.9539 94.3782 69.309V69.3353C94.3782 69.4537 94.0092 70.2824 93.2579 71.8345L91.3731 75.7016C91.1754 75.8463 91.004 75.9252 90.859 75.9252H90.8327C90.4504 75.9252 90.1341 75.57 89.8837 74.8466C88.2625 71.5451 87.4057 69.7431 87.3003 69.4537V69.2827C87.3662 68.8618 87.5771 68.6513 87.9461 68.6513Z" fill="#FFBB00"/>
<path d="M85.6397 75.1755C85.0993 75.6885 84.3744 75.9384 83.4781 75.9384H83.2804C82.0415 75.9384 81.0134 75.3202 80.1962 74.097C79.893 73.5051 79.748 72.9 79.748 72.2949C79.748 70.9533 80.4071 69.8747 81.7383 69.0855C82.3051 68.8225 82.8455 68.6909 83.3859 68.6909C84.7566 68.6909 85.8506 69.3617 86.6415 70.7034C86.8919 71.2558 87.0105 71.8214 87.0105 72.4002V75.2939C87.0105 75.6491 86.7864 75.8727 86.3515 75.9384H86.2988C85.9956 75.9384 85.7715 75.7543 85.6266 75.3992V75.3202L85.6397 75.1755ZM81.1452 72.2555V72.3344C81.1452 73.2551 81.6065 73.9391 82.5291 74.3995C82.8191 74.5047 83.0695 74.5573 83.3068 74.5573H83.5045C84.269 74.5573 84.8884 74.1759 85.3893 73.413C85.5738 73.0578 85.6529 72.7159 85.6529 72.387V72.2818C85.6529 71.4005 85.218 70.7297 84.348 70.2562C84.0449 70.1246 83.7417 70.0589 83.4122 70.0589H83.3859C82.4632 70.0589 81.7647 70.5455 81.2902 71.5057C81.1847 71.8083 81.1452 72.0582 81.1452 72.2555Z" fill="#FFBB00"/>
<path d="M96.606 66.231H96.7246C97.1464 66.323 97.3441 66.5203 97.3441 66.8229V68.6512H98.1481L98.3722 68.6249C98.7149 68.6249 98.9389 68.8485 99.0444 69.2957C99.0444 69.6245 98.8467 69.8745 98.4513 70.006L98.0427 69.9797H97.3441V73.5574C97.3441 74.0967 97.5023 74.4124 97.8054 74.5176L98.3326 74.5702H98.5962C98.9258 74.5702 99.1235 74.7807 99.2157 75.2147V75.2805C99.1366 75.7146 98.9126 75.925 98.5435 75.925H98.0295C97.1596 75.925 96.5137 75.4515 96.0919 74.5176C96.0129 74.2808 95.9733 74.0046 95.9733 73.7021V69.9665H95.6965L95.2616 69.9928C94.8662 69.8481 94.6685 69.6245 94.6685 69.2825C94.7475 68.8485 94.8925 68.638 95.1166 68.638V68.5854L95.5779 68.638H95.9733V66.9544C96.0392 66.4677 96.2369 66.231 96.606 66.231Z" fill="#FFBB00"/>
<path d="M102.933 68.7173C103.869 68.7173 104.712 69.0724 105.463 69.7696C106.188 70.5193 106.544 71.3743 106.544 72.3213C106.544 73.6761 105.898 74.7415 104.62 75.5044C104.066 75.7807 103.526 75.9254 102.999 75.9254H102.801C101.826 75.9254 100.916 75.465 100.086 74.5574C99.5717 73.834 99.3081 73.0842 99.3081 72.3213C99.3081 71.1507 99.8221 70.1642 100.863 69.375C101.536 68.9409 102.221 68.7173 102.933 68.7173ZM100.718 72.2555V72.3739C100.718 73.2026 101.127 73.8603 101.931 74.3206C102.221 74.4653 102.524 74.5442 102.854 74.5442H102.999C103.855 74.5442 104.528 74.097 104.989 73.2026C105.094 72.9264 105.147 72.6502 105.147 72.3871V72.2687C105.147 71.5716 104.831 70.9928 104.185 70.5193C103.816 70.2694 103.381 70.1379 102.906 70.1379C101.957 70.1379 101.272 70.6377 100.824 71.6242C100.758 71.8346 100.718 72.0451 100.718 72.2555Z" fill="#FFBB00"/>
<path d="M107.704 65.9419H107.823C108.244 66.034 108.455 66.2444 108.455 66.5733V69.3881C109.009 68.8619 109.773 68.5989 110.749 68.5989C111.698 68.5989 112.554 68.954 113.319 69.6643C114.057 70.4272 114.413 71.2953 114.413 72.2555C114.413 73.6235 113.767 74.7152 112.462 75.4913C111.895 75.7806 111.342 75.9253 110.815 75.9253H110.604C109.615 75.9253 108.692 75.465 107.836 74.5442C107.309 73.8471 107.045 73.0316 107.045 72.0845V66.5733C107.058 66.2576 107.269 66.0471 107.704 65.9419ZM108.455 72.1898V72.3213C108.455 73.2683 108.956 73.9786 109.945 74.439C110.208 74.5179 110.445 74.5574 110.656 74.5574H110.815C111.737 74.5574 112.436 74.0575 112.91 73.071C112.989 72.7685 113.029 72.5449 113.029 72.3871V72.2161C113.029 71.269 112.528 70.5719 111.513 70.0984C111.21 70.0194 110.96 69.98 110.801 69.98H110.696C109.773 69.98 109.075 70.4667 108.6 71.44C108.495 71.7294 108.455 71.9793 108.455 72.1898Z" fill="#FFBB00"/>
<path d="M120.806 68.6514C120.647 68.6514 120.489 68.7171 120.318 68.8355C120.199 68.967 119.409 70.5718 117.959 73.6497L115.982 69.6116C115.757 68.9802 115.468 68.6645 115.112 68.6645H115.059C114.703 68.6645 114.479 68.875 114.4 69.2959V69.4669C114.492 69.7563 115.362 71.5583 116.983 74.8598C117.036 75.0176 117.102 75.1623 117.168 75.2938L116.258 77.1879C116.1 77.5299 116.232 77.9377 116.575 78.0955C116.917 78.2534 117.326 78.1218 117.484 77.7798L118.565 75.5306L120.358 71.8608C121.109 70.3087 121.478 69.48 121.478 69.3617V69.3222C121.491 68.9539 121.267 68.7303 120.806 68.6514Z" fill="#FFBB00"/>
<path d="M124.905 68.6646C126.184 68.7444 126.948 69.4538 127.013 69.7169C127.079 69.9799 127.013 70.1115 127.013 70.1115C127.013 70.1115 126.816 70.5061 126.552 70.5061C126.289 70.5061 126.354 70.4403 125.761 70.1115C125.168 69.7826 123.85 69.6511 123.521 70.3745C123.191 71.098 124.279 71.4538 125.366 71.7556C126.675 72.1193 126.948 72.6106 127.145 73.1367C127.343 73.6629 127.211 74.3205 127.079 74.6494C126.948 74.9125 126.526 75.4386 125.893 75.7017C125.26 75.9647 124.114 75.899 123.521 75.7674C122.971 75.614 121.939 75.1098 121.939 74.6494C121.939 74.189 122.334 73.9917 122.532 73.9917C122.73 73.9917 122.743 74.0706 123.323 74.3863C124.048 74.7809 125.036 74.7809 125.498 74.4521C125.959 74.1233 125.893 73.6629 125.564 73.3341C125.234 73.0052 123.784 72.6106 123.455 72.4791C123.125 72.3475 121.609 71.6241 122.071 70.1772C122.532 68.7304 124.202 68.6208 124.905 68.6646Z" fill="#FFBB00"/>
<g clip-path="url(#clip1)">
<path d="M136.375 97.3187C136.375 96.1163 137.284 95.142 138.407 95.142H138.452C139.572 95.142 140.482 96.1124 140.484 97.3126C140.494 101.239 140.488 101.625 140.482 107.49C140.479 110.783 137.986 113.45 134.912 113.45H128.312C126.292 113.45 124.43 112.278 123.446 110.389L117.562 99.0835L118.177 98.5736C119.45 97.4035 121.364 97.5475 122.472 98.8956L124.119 100.901L124.128 87.1083C124.129 85.9064 125.039 84.9326 126.161 84.9326H126.161C127.284 84.9326 128.194 85.9077 128.194 87.1101V95.4572C128.221 94.2804 129.12 93.3368 130.224 93.3368H130.272C131.395 93.3368 132.305 94.3114 132.305 95.5137V96.2146C132.305 95.012 133.214 94.0376 134.337 94.0376H134.342C135.465 94.0376 136.375 95.012 136.375 96.2146V97.3187Z" fill="#0000AF"/>
<path d="M138.452 94.6312H138.407C137.793 94.6283 137.201 94.854 136.744 95.2643C136.375 94.2419 135.437 93.5064 134.337 93.5064C133.663 93.5111 133.019 93.7882 132.552 94.275C132.123 93.4058 131.263 92.8155 130.272 92.8155H130.224C129.695 92.8065 129.178 92.976 128.756 93.2967V87.11C128.756 85.6129 127.591 84.3945 126.173 84.3945C124.757 84.3945 123.597 85.6119 123.597 87.1076L123.585 99.3994L122.889 98.5543C122.279 97.7951 121.381 97.3239 120.41 97.2527C119.459 97.1872 118.522 97.5185 117.823 98.1679L117.219 98.6694C117.023 98.8309 116.968 99.107 117.085 99.3319L122.969 110.643C124.045 112.71 126.092 114 128.312 114H134.912C138.276 114 141.016 111.079 141.02 107.496C141.022 105.872 141.023 104.665 141.024 103.69C141.028 101.117 141.029 100.167 141.022 97.327C141.019 95.8336 139.866 94.6312 138.452 94.6312ZM139.949 103.685C139.947 104.66 139.946 105.87 139.944 107.495C139.941 110.485 137.684 112.923 134.912 112.923H128.312C126.495 112.923 124.814 111.856 123.924 110.146L118.24 99.2231L118.52 98.9891C118.527 98.9833 118.534 98.9765 118.541 98.9704C119.023 98.516 119.673 98.2827 120.334 98.3263C121.01 98.3778 121.633 98.708 122.056 99.2373L123.703 101.242C123.847 101.418 124.086 101.484 124.3 101.407C124.514 101.33 124.657 101.128 124.657 100.901L124.666 87.1084C124.667 86.2053 125.35 85.4705 126.174 85.4705C126.998 85.4705 127.68 86.2061 127.68 87.11V95.4524C127.68 95.4726 127.679 95.4926 127.679 95.5131C127.679 95.5218 127.68 95.5304 127.68 95.5391V99.1068C127.68 99.4039 127.921 99.6448 128.218 99.6448C128.516 99.6448 128.756 99.4039 128.756 99.1068V95.4666C128.756 94.5887 129.422 93.8915 130.224 93.8915H130.272C131.096 93.8915 131.783 94.6099 131.783 95.5136V98.7671C131.783 99.0645 132.024 99.3051 132.321 99.3051C132.618 99.3051 132.859 99.0645 132.859 98.7671V96.2145C132.859 95.3108 133.512 94.5755 134.341 94.5755C135.165 94.5755 135.818 95.3108 135.818 96.2145V98.6226C135.818 98.9197 136.059 99.1606 136.356 99.1606C136.653 99.1606 136.894 98.9197 136.894 98.6226V97.3186C136.894 96.4149 137.583 95.7072 138.407 95.7072H138.452C139.274 95.7072 139.944 96.4265 139.946 97.3278C139.953 100.166 139.952 101.114 139.949 103.685Z" fill="white"/>
<path d="M121.888 87.3424C122.185 87.3424 122.426 87.1015 122.426 86.8044C122.426 84.7452 124.095 83.076 126.154 83.076C128.213 83.076 129.882 84.7452 129.882 86.8044C129.882 87.1015 130.123 87.3424 130.42 87.3424C130.718 87.3424 130.958 87.1015 130.958 86.8044C130.958 84.1509 128.807 82 126.154 82C123.501 82 121.35 84.1509 121.35 86.8044C121.35 87.1015 121.591 87.3424 121.888 87.3424Z" fill="white"/>
</g>
</g>
<path d="M138 132H143" stroke="#0000AF" stroke-width="2" stroke-linecap="round"/>
<path d="M148 132H153" stroke="#0000AF" stroke-width="2" stroke-linecap="round"/>
<path d="M138 142H143" stroke="#0000AF" stroke-width="2" stroke-linecap="round"/>
<path d="M148 142H153" stroke="#0000AF" stroke-width="2" stroke-linecap="round"/>
<path d="M138 152H143" stroke="#0000AF" stroke-width="2" stroke-linecap="round"/>
<path d="M148 152H153" stroke="#0000AF" stroke-width="2" stroke-linecap="round"/>
<path d="M1 25L17 25" stroke="#0000AF" stroke-width="2" stroke-linecap="round"/>
<path d="M1 19L17 19" stroke="#0000AF" stroke-width="2" stroke-linecap="round"/>
<defs>
<clipPath id="clip0">
<rect width="147" height="148" fill="white"/>
</clipPath>
<clipPath id="clip1">
<rect x="113" y="82" width="32" height="32" fill="white"/>
</clipPath>
</defs>
</svg>
