<svg width="160" height="148" viewBox="0 0 160 148" fill="none" xmlns="http://www.w3.org/2000/svg">
<g clip-path="url(#clip0)">
<path d="M153.602 148H19.2344C15.7891 148 13 145.204 13 141.587V6.24889C13 2.79556 15.7891 0 19.2344 0H153.602C157.047 0 159.836 2.79556 159.836 6.24889V141.587C160 145.204 157.211 148 153.602 148Z" fill="#F2F2FB"/>
<rect x="1" y="-1" width="155" height="31" rx="2" transform="matrix(1 0 0 -1 9 40)" stroke="#0000AF" stroke-width="2"/>
<rect x="1" y="-1" width="25" height="16" rx="2" transform="matrix(1 0 0 -1 36 70)" stroke="#0000AF" stroke-width="2"/>
<rect x="1" y="-1" width="25" height="16" rx="2" transform="matrix(1 0 0 -1 70 70)" stroke="#0000AF" stroke-width="2"/>
<rect x="1" y="-1" width="25" height="16" rx="2" transform="matrix(1 0 0 -1 104 70)" stroke="#0000AF" stroke-width="2"/>
<rect x="1" y="-1" width="25" height="16" rx="2" transform="matrix(1 0 0 -1 36 93)" stroke="#0000AF" stroke-width="2"/>
<rect x="1" y="-1" width="25" height="16" rx="2" transform="matrix(1 0 0 -1 70 93)" stroke="#0000AF" stroke-width="2"/>
<rect x="1" y="-1" width="25" height="16" rx="2" transform="matrix(1 0 0 -1 104 93)" stroke="#0000AF" stroke-width="2"/>
<rect x="1" y="-1" width="25" height="16" rx="2" transform="matrix(1 0 0 -1 36 116)" stroke="#0000AF" stroke-width="2"/>
<rect x="1" y="-1" width="25" height="16" rx="2" transform="matrix(1 0 0 -1 70 116)" stroke="#0000AF" stroke-width="2"/>
<rect x="1" y="-1" width="25" height="16" rx="2" transform="matrix(1 0 0 -1 70 139)" stroke="#0000AF" stroke-width="2"/>
<rect x="1" y="-1" width="25" height="16" rx="2" transform="matrix(1 0 0 -1 104 116)" stroke="#0000AF" stroke-width="2"/>
<path d="M25.364 25.4H22.886V22.95H21.388V25.4H18.91V26.8H21.388V29.25H22.886V26.8H25.364V25.4ZM30.519 21.2V24.406H32.213V22.74H36.063L32.381 31H34.327L38.135 22.418V21.2H30.519ZM45.3977 33.716H47.0637C45.9017 31.672 45.4117 29.558 45.4117 27.164C45.4117 24.77 45.9017 22.656 47.0637 20.612H45.3977C44.3057 22.278 43.6897 24.588 43.6897 27.164C43.6897 29.74 44.3057 32.022 45.3977 33.716ZM47.6159 21.2V22.726H49.6879V31H51.5079V21.2H47.6159ZM60.7179 31L57.7919 27.178L60.5919 23.524H58.7019L56.8679 25.974L55.0339 23.524H53.0879L55.8739 27.206L52.9619 31H54.8939L56.8259 28.41L58.7439 31H60.7179ZM68.7433 31L65.8173 27.178L68.6173 23.524H66.7273L64.8933 25.974L63.0593 23.524H61.1133L63.8993 27.206L60.9873 31H62.9193L64.8513 28.41L66.7693 31H68.7433ZM70.8607 33.716C71.9667 32.022 72.5687 29.74 72.5687 27.164C72.5687 24.588 71.9667 22.278 70.8607 20.612H69.1947C70.3567 22.656 70.8607 24.77 70.8607 27.164C70.8607 29.558 70.3567 31.672 69.1947 33.716H70.8607ZM85.505 31L82.579 27.178L85.379 23.524H83.489L81.655 25.974L79.821 23.524H77.875L80.661 27.206L77.749 31H79.681L81.613 28.41L83.531 31H85.505ZM93.5304 31L90.6044 27.178L93.4044 23.524H91.5144L89.6804 25.974L87.8464 23.524H85.9004L88.6864 27.206L85.7744 31H87.7064L89.6384 28.41L91.5564 31H93.5304ZM101.556 31L98.6298 27.178L101.43 23.524H99.5398L97.7058 25.974L95.8718 23.524H93.9258L96.7118 27.206L93.7998 31H95.7318L97.6638 28.41L99.5818 31H101.556ZM113.45 31L110.524 27.178L113.324 23.524H111.434L109.6 25.974L107.766 23.524H105.82L108.606 27.206L105.694 31H107.626L109.558 28.41L111.476 31H113.45ZM121.476 31L118.55 27.178L121.35 23.524H119.46L117.626 25.974L115.792 23.524H113.846L116.632 27.206L113.72 31H115.652L117.584 28.41L119.502 31H121.476ZM133.37 31L130.444 27.178L133.244 23.524H131.354L129.52 25.974L127.686 23.524H125.74L128.526 27.206L125.614 31H127.546L129.478 28.41L131.396 31H133.37ZM141.396 31L138.47 27.178L141.27 23.524H139.38L137.546 25.974L135.712 23.524H133.766L136.552 27.206L133.64 31H135.572L137.504 28.41L139.422 31H141.396Z" fill="black"/>
</g>
<path d="M21 66L21 71" stroke="#0000AF" stroke-width="2" stroke-linecap="round"/>
<path d="M21 76L21 81" stroke="#0000AF" stroke-width="2" stroke-linecap="round"/>
<path d="M11 66L11 71" stroke="#0000AF" stroke-width="2" stroke-linecap="round"/>
<path d="M11 76L11 81" stroke="#0000AF" stroke-width="2" stroke-linecap="round"/>
<path d="M1 66L1 71" stroke="#0000AF" stroke-width="2" stroke-linecap="round"/>
<path d="M1 76L1 81" stroke="#0000AF" stroke-width="2" stroke-linecap="round"/>
<defs>
<clipPath id="clip0">
<rect x="13" width="147" height="148" fill="white"/>
</clipPath>
</defs>
</svg>
