<svg width="160" height="148" viewBox="0 0 160 148" fill="none" xmlns="http://www.w3.org/2000/svg">
<g clip-path="url(#clip0)">
<path d="M153.602 148H19.2344C15.7891 148 13 145.204 13 141.587V6.24889C13 2.79556 15.7891 0 19.2344 0H153.602C157.047 0 159.836 2.79556 159.836 6.24889V141.587C160 145.204 157.211 148 153.602 148Z" fill="#F2F2FB"/>
<rect x="1" y="-1" width="155" height="31" rx="2" transform="matrix(1 0 0 -1 9 40)" stroke="#0000AF" stroke-width="2"/>
<rect x="1" y="-1" width="25" height="16" rx="2" transform="matrix(1 0 0 -1 36 70)" stroke="#0000AF" stroke-width="2"/>
<rect x="1" y="-1" width="25" height="16" rx="2" transform="matrix(1 0 0 -1 70 70)" stroke="#0000AF" stroke-width="2"/>
<rect x="1" y="-1" width="25" height="16" rx="2" transform="matrix(1 0 0 -1 104 70)" stroke="#0000AF" stroke-width="2"/>
<rect x="1" y="-1" width="25" height="16" rx="2" transform="matrix(1 0 0 -1 36 93)" stroke="#0000AF" stroke-width="2"/>
<rect x="1" y="-1" width="25" height="16" rx="2" transform="matrix(1 0 0 -1 70 93)" stroke="#0000AF" stroke-width="2"/>
<rect x="1" y="-1" width="25" height="16" rx="2" transform="matrix(1 0 0 -1 104 93)" stroke="#0000AF" stroke-width="2"/>
<rect x="1" y="-1" width="25" height="16" rx="2" transform="matrix(1 0 0 -1 36 116)" stroke="#0000AF" stroke-width="2"/>
<rect x="1" y="-1" width="25" height="16" rx="2" transform="matrix(1 0 0 -1 70 116)" stroke="#0000AF" stroke-width="2"/>
<rect x="1" y="-1" width="25" height="16" rx="2" transform="matrix(1 0 0 -1 70 139)" stroke="#0000AF" stroke-width="2"/>
<rect x="1" y="-1" width="25" height="16" rx="2" transform="matrix(1 0 0 -1 104 116)" stroke="#0000AF" stroke-width="2"/>
<path d="M25.364 26.8H22.886V29.25H21.388V26.8H18.91V25.4H21.388V22.95H22.886V25.4H25.364V26.8ZM38.135 21.2V22.418L34.327 31H32.381L36.063 22.74H32.213V24.406H30.519V21.2H38.135ZM45.3977 33.716C44.847 32.8667 44.4223 31.882 44.1237 30.762C43.8343 29.642 43.6897 28.4427 43.6897 27.164C43.6897 25.8853 43.8343 24.686 44.1237 23.566C44.4223 22.4367 44.847 21.452 45.3977 20.612H47.0637C46.4943 21.62 46.0743 22.6607 45.8037 23.734C45.5423 24.798 45.4117 25.9413 45.4117 27.164C45.4117 28.3867 45.5423 29.5347 45.8037 30.608C46.0743 31.672 46.4943 32.708 47.0637 33.716H45.3977ZM55.3752 21.2V22.418L51.5672 31H49.6212L53.3032 22.74H49.4532V24.406H47.7592V21.2H55.3752ZM61.5877 31L59.6697 28.41L57.7377 31H55.8057L58.7177 27.206L55.9317 23.524H57.8777L59.7117 25.974L61.5457 23.524H63.4357L60.6357 27.178L63.5617 31H61.5877ZM69.6131 31L67.6951 28.41L65.7631 31H63.8311L66.7431 27.206L63.9571 23.524H65.9031L67.7371 25.974L69.5711 23.524H71.4611L68.6611 27.178L71.5871 31H69.6131ZM72.0385 33.716C72.6078 32.708 73.0278 31.6673 73.2985 30.594C73.5691 29.5207 73.7045 28.3773 73.7045 27.164C73.7045 25.9507 73.5691 24.8073 73.2985 23.734C73.0278 22.6607 72.6078 21.62 72.0385 20.612H73.7045C74.2551 21.4427 74.6751 22.4227 74.9645 23.552C75.2631 24.672 75.4125 25.876 75.4125 27.164C75.4125 28.452 75.2631 29.656 74.9645 30.776C74.6751 31.8867 74.2551 32.8667 73.7045 33.716H72.0385ZM86.3748 31L84.4568 28.41L82.5248 31H80.5928L83.5048 27.206L80.7188 23.524H82.6648L84.4988 25.974L86.3328 23.524H88.2228L85.4228 27.178L88.3488 31H86.3748ZM94.4002 31L92.4822 28.41L90.5502 31H88.6182L91.5302 27.206L88.7442 23.524H90.6902L92.5242 25.974L94.3582 23.524H96.2482L93.4482 27.178L96.3742 31H94.4002ZM102.426 31L100.508 28.41L98.5756 31H96.6436L99.5556 27.206L96.7696 23.524H98.7156L100.55 25.974L102.384 23.524H104.274L101.474 27.178L104.4 31H102.426ZM114.32 31L112.402 28.41L110.47 31H108.538L111.45 27.206L108.664 23.524H110.61L112.444 25.974L114.278 23.524H116.168L113.368 27.178L116.294 31H114.32ZM122.346 31L120.428 28.41L118.495 31H116.564L119.476 27.206L116.69 23.524H118.636L120.47 25.974L122.304 23.524H124.194L121.394 27.178L124.32 31H122.346ZM134.24 31L132.322 28.41L130.39 31H128.458L131.37 27.206L128.584 23.524H130.53L132.364 25.974L134.198 23.524H136.088L133.288 27.178L136.214 31H134.24ZM142.265 31L140.347 28.41L138.415 31H136.483L139.395 27.206L136.609 23.524H138.555L140.389 25.974L142.223 23.524H144.113L141.313 27.178L144.239 31H142.265Z" fill="black"/>
</g>
<path d="M21 66L21 71" stroke="#0000AF" stroke-width="2" stroke-linecap="round"/>
<path d="M21 76L21 81" stroke="#0000AF" stroke-width="2" stroke-linecap="round"/>
<path d="M11 66L11 71" stroke="#0000AF" stroke-width="2" stroke-linecap="round"/>
<path d="M11 76L11 81" stroke="#0000AF" stroke-width="2" stroke-linecap="round"/>
<path d="M1 66L1 71" stroke="#0000AF" stroke-width="2" stroke-linecap="round"/>
<path d="M1 76L1 81" stroke="#0000AF" stroke-width="2" stroke-linecap="round"/>
<defs>
<clipPath id="clip0">
<rect x="13" width="147" height="148" fill="white"/>
</clipPath>
</defs>
</svg>
