<svg width="153" height="153" viewBox="0 0 153 153" fill="none" xmlns="http://www.w3.org/2000/svg">
<g clip-path="url(#clip0)">
<path d="M146.602 153H12.2344C8.78906 153 6 150.204 6 146.587V11.2489C6 7.79556 8.78906 5 12.2344 5H146.602C150.047 5 152.836 7.79556 152.836 11.2489V146.587C153 150.204 150.211 153 146.602 153Z" fill="#F2F2FB"/>
<rect x="1" y="-1" width="155" height="31" rx="2" transform="matrix(1 0 0 -1 2 71)" fill="#0000AF" stroke="#0000AF" stroke-width="2"/>
<path d="M27.364 57.8H24.886V60.25H23.388V57.8H20.91V56.4H23.388V53.95H24.886V56.4H27.364V57.8ZM36.1291 52.2V53.418L32.3211 62H30.3751L34.0571 53.74H30.2071V55.406H28.5131V52.2H36.1291ZM43.3918 64.716C42.8411 63.8667 42.4165 62.882 42.1178 61.762C41.8285 60.642 41.6838 59.4427 41.6838 58.164C41.6838 56.8853 41.8285 55.686 42.1178 54.566C42.4165 53.4367 42.8411 52.452 43.3918 51.612H45.0578C44.4885 52.62 44.0685 53.6607 43.7978 54.734C43.5365 55.798 43.4058 56.9413 43.4058 58.164C43.4058 59.3867 43.5365 60.5347 43.7978 61.608C44.0685 62.672 44.4885 63.708 45.0578 64.716H43.3918ZM53.3693 52.2V53.418L49.5613 62H47.6153L51.2973 53.74H47.4473V55.406H45.7533V52.2H53.3693ZM61.8869 52.2V53.418L58.0789 62H56.1329L59.8149 53.74H55.9649V55.406H54.2709V52.2H61.8869ZM70.4045 52.2V53.418L66.5965 62H64.6505L68.3325 53.74H64.4825V55.406H62.7885V52.2H70.4045ZM71.2221 64.716C71.7914 63.708 72.2114 62.6673 72.4821 61.594C72.7527 60.5207 72.8881 59.3773 72.8881 58.164C72.8881 56.9507 72.7527 55.8073 72.4821 54.734C72.2114 53.6607 71.7914 52.62 71.2221 51.612H72.8881C73.4387 52.4427 73.8587 53.4227 74.1481 54.552C74.4467 55.672 74.5961 56.876 74.5961 58.164C74.5961 59.452 74.4467 60.656 74.1481 61.776C73.8587 62.8867 73.4387 63.8667 72.8881 64.716H71.2221ZM87.3644 60.46V62H80.1404V60.782L84.0324 57.086C84.4711 56.666 84.7651 56.302 84.9144 55.994C85.0731 55.6767 85.1524 55.364 85.1524 55.056C85.1524 54.5987 84.9984 54.2487 84.6904 54.006C84.3824 53.7633 83.9297 53.642 83.3324 53.642C82.3337 53.642 81.5684 53.9827 81.0364 54.664L79.7624 53.684C80.1451 53.1707 80.6584 52.774 81.3024 52.494C81.9557 52.2047 82.6837 52.06 83.4864 52.06C84.5504 52.06 85.3997 52.312 86.0344 52.816C86.6691 53.32 86.9864 54.006 86.9864 54.874C86.9864 55.406 86.8744 55.9053 86.6504 56.372C86.4264 56.8387 85.9971 57.3707 85.3624 57.968L82.7444 60.46H87.3644ZM95.5128 60.46V62H88.2888V60.782L92.1808 57.086C92.6195 56.666 92.9135 56.302 93.0628 55.994C93.2215 55.6767 93.3008 55.364 93.3008 55.056C93.3008 54.5987 93.1468 54.2487 92.8388 54.006C92.5308 53.7633 92.0782 53.642 91.4808 53.642C90.4822 53.642 89.7168 53.9827 89.1848 54.664L87.9108 53.684C88.2935 53.1707 88.8068 52.774 89.4508 52.494C90.1042 52.2047 90.8322 52.06 91.6348 52.06C92.6988 52.06 93.5482 52.312 94.1828 52.816C94.8175 53.32 95.1348 54.006 95.1348 54.874C95.1348 55.406 95.0228 55.9053 94.7988 56.372C94.5748 56.8387 94.1455 57.3707 93.5108 57.968L90.8928 60.46H95.5128ZM103.661 60.46V62H96.4373V60.782L100.329 57.086C100.768 56.666 101.062 56.302 101.211 55.994C101.37 55.6767 101.449 55.364 101.449 55.056C101.449 54.5987 101.295 54.2487 100.987 54.006C100.679 53.7633 100.227 53.642 99.6293 53.642C98.6306 53.642 97.8653 53.9827 97.3333 54.664L96.0593 53.684C96.4419 53.1707 96.9553 52.774 97.5993 52.494C98.2526 52.2047 98.9806 52.06 99.7833 52.06C100.847 52.06 101.697 52.312 102.331 52.816C102.966 53.32 103.283 54.006 103.283 54.874C103.283 55.406 103.171 55.9053 102.947 56.372C102.723 56.8387 102.294 57.3707 101.659 57.968L99.0413 60.46H103.661ZM111.969 52.2V62H110.149V53.726H108.077V52.2H111.969ZM121.011 60.46V62H113.787V60.782L117.679 57.086C118.118 56.666 118.412 56.302 118.561 55.994C118.72 55.6767 118.799 55.364 118.799 55.056C118.799 54.5987 118.645 54.2487 118.337 54.006C118.029 53.7633 117.576 53.642 116.979 53.642C115.98 53.642 115.215 53.9827 114.683 54.664L113.409 53.684C113.792 53.1707 114.305 52.774 114.949 52.494C115.602 52.2047 116.33 52.06 117.133 52.06C118.197 52.06 119.046 52.312 119.681 52.816C120.316 53.32 120.633 54.006 120.633 54.874C120.633 55.406 120.521 55.9053 120.297 56.372C120.073 56.8387 119.644 57.3707 119.009 57.968L116.391 60.46H121.011ZM129.318 52.2V62H127.498V53.726H125.426V52.2H129.318ZM138.36 60.46V62H131.136V60.782L135.028 57.086C135.467 56.666 135.761 56.302 135.91 55.994C136.069 55.6767 136.148 55.364 136.148 55.056C136.148 54.5987 135.994 54.2487 135.686 54.006C135.378 53.7633 134.926 53.642 134.328 53.642C133.33 53.642 132.564 53.9827 132.032 54.664L130.758 53.684C131.141 53.1707 131.654 52.774 132.298 52.494C132.952 52.2047 133.68 52.06 134.482 52.06C135.546 52.06 136.396 52.312 137.03 52.816C137.665 53.32 137.982 54.006 137.982 54.874C137.982 55.406 137.87 55.9053 137.646 56.372C137.422 56.8387 136.993 57.3707 136.358 57.968L133.74 60.46H138.36Z" fill="white"/>
<circle cx="102.5" cy="104.5" r="17.5" fill="#0000AF"/>
<circle cx="52.5" cy="104.5" r="17.5" fill="white"/>
<path d="M94.5 103.144L101.678 110.322L111.5 100.5" stroke="white" stroke-width="2" stroke-linecap="round" stroke-linejoin="round"/>
<path d="M46 98.5L59 111.5" stroke="#0000AF" stroke-width="2" stroke-linecap="round" stroke-linejoin="round"/>
<path d="M59 98.5L46 111.5" stroke="#0000AF" stroke-width="2" stroke-linecap="round" stroke-linejoin="round"/>
</g>
<path d="M1 1H6" stroke="#0000AF" stroke-width="2" stroke-linecap="round"/>
<path d="M11 1H16" stroke="#0000AF" stroke-width="2" stroke-linecap="round"/>
<path d="M1 11H6" stroke="#0000AF" stroke-width="2" stroke-linecap="round"/>
<path d="M11 11H16" stroke="#0000AF" stroke-width="2" stroke-linecap="round"/>
<path d="M1 21H6" stroke="#0000AF" stroke-width="2" stroke-linecap="round"/>
<path d="M11 21H16" stroke="#0000AF" stroke-width="2" stroke-linecap="round"/>
<defs>
<clipPath id="clip0">
<rect x="6" y="5" width="147" height="148" fill="white"/>
</clipPath>
</defs>
</svg>
