<svg width="155" height="148" viewBox="0 0 155 148" fill="none" xmlns="http://www.w3.org/2000/svg">
<g clip-path="url(#clip0)">
<path d="M148.602 148H14.2344C10.7891 148 8 145.204 8 141.587V6.24889C8 2.79556 10.7891 0 14.2344 0H148.602C152.047 0 154.836 2.79556 154.836 6.24889V141.587C155 145.204 152.211 148 148.602 148Z" fill="#F2F2FB"/>
<rect x="1" y="-1" width="155" height="26" rx="2" transform="matrix(1 0 0 -1 4 39)" stroke="#0000AF" stroke-width="2"/>
<rect width="64" height="9" rx="3" transform="matrix(1 0 0 -1 50 58)" fill="#0000AF"/>
<path d="M64 53.4L64 112.2C64 112.571 64.1545 112.927 64.4296 113.19C64.7046 113.452 65.0777 113.6 65.4667 113.6L77.9671 113.6L76.2731 117.64C75.8527 118.641 75.8527 119.759 76.2731 120.76L77.9671 124.8L74.2667 124.8C73.8777 124.8 73.5046 124.947 73.2296 125.21C72.9545 125.473 72.8 125.829 72.8 126.2L72.8 134.6C72.8 134.971 72.9545 135.327 73.2296 135.59C73.5046 135.852 73.8777 136 74.2667 136L106.533 136C106.922 136 107.295 135.852 107.57 135.59C107.845 135.327 108 134.971 108 134.6L108 126.2C108 125.829 107.845 125.473 107.57 125.21C107.295 124.947 106.922 124.8 106.533 124.8L105.067 124.8L105.067 95.4C105.067 95.0287 104.912 94.6727 104.637 94.4102L99.2 89.2204L99.2 53.4C99.2 53.0287 99.0455 52.6726 98.7704 52.41C98.4954 52.1475 98.1223 52 97.7333 52L65.4667 52C65.0777 52 64.7046 52.1475 64.4296 52.41C64.1545 52.6726 64 53.0287 64 53.4ZM105.067 127.6L105.067 133.2L75.7333 133.2L75.7333 127.6L105.067 127.6ZM102.133 95.9796L102.133 124.8L81.1263 124.8L78.9981 119.721C78.8573 119.387 78.8573 119.014 78.9981 118.681L81.4915 112.721C81.5617 112.555 81.5985 112.379 81.6 112.2L81.6 99.6C81.6 98.8574 81.909 98.1452 82.4592 97.6201C83.0093 97.095 83.7554 96.8 84.5333 96.8C85.3113 96.8 86.0574 97.095 86.6075 97.6201C87.1576 98.1452 87.4667 98.8574 87.4667 99.6L87.4667 116.333C87.4667 117.143 88.1233 117.8 88.9333 117.8C89.7434 117.8 90.4 117.143 90.4 116.333L90.4 113.6L97.7333 113.6C98.1223 113.6 98.4954 113.452 98.7704 113.19C99.0455 112.927 99.2 112.571 99.2 112.2L99.2 93.1796L102.133 95.9796ZM96.2667 54.8L96.2667 110.8L90.4 110.8L90.4 99.6C90.4 98.1148 89.7819 96.6904 88.6817 95.6402C87.5815 94.59 86.0893 94 84.5333 94C82.9774 94 81.4852 94.59 80.385 95.6402C79.2848 96.6904 78.6667 98.1148 78.6667 99.6L78.6667 110.8L66.9333 110.8L66.9333 54.8L96.2667 54.8Z" fill="#0000AF"/>
<path d="M74.23 104.143L75 104.143L75 107.755L74.391 107.755L72.543 105.809C72.333 105.59 72.151 105.443 71.997 105.368C71.8383 105.289 71.682 105.249 71.528 105.249C71.2993 105.249 71.1243 105.326 71.003 105.48C70.8817 105.634 70.821 105.86 70.821 106.159C70.821 106.658 70.9913 107.041 71.332 107.307L70.842 107.944C70.5853 107.753 70.387 107.496 70.247 107.174C70.1023 106.847 70.03 106.483 70.03 106.082C70.03 105.55 70.156 105.125 70.408 104.808C70.66 104.491 71.003 104.332 71.437 104.332C71.703 104.332 71.9527 104.388 72.186 104.5C72.4193 104.612 72.6853 104.827 72.984 105.144L74.23 106.453L74.23 104.143ZM75.07 101.594C75.07 101.986 74.972 102.336 74.776 102.644C74.5753 102.952 74.286 103.195 73.908 103.372C73.5253 103.55 73.0727 103.638 72.55 103.638C72.0273 103.638 71.577 103.55 71.199 103.372C70.8163 103.195 70.527 102.952 70.331 102.644C70.1303 102.336 70.03 101.986 70.03 101.594C70.03 101.202 70.1303 100.852 70.331 100.544C70.527 100.232 70.8163 99.9866 71.199 99.8093C71.577 99.632 72.0273 99.5433 72.55 99.5433C73.0727 99.5433 73.5253 99.632 73.908 99.8093C74.286 99.9866 74.5753 100.232 74.776 100.544C74.972 100.852 75.07 101.202 75.07 101.594ZM74.279 101.594C74.279 101.244 74.1343 100.969 73.845 100.768C73.5557 100.563 73.124 100.46 72.55 100.46C71.976 100.46 71.5443 100.563 71.255 100.768C70.9657 100.969 70.821 101.244 70.821 101.594C70.821 101.94 70.9657 102.215 71.255 102.42C71.5443 102.621 71.976 102.721 72.55 102.721C73.124 102.721 73.5557 102.621 73.845 102.42C74.1343 102.215 74.279 101.94 74.279 101.594ZM75.07 96.8843C75.07 97.2763 74.972 97.6263 74.776 97.9343C74.5753 98.2423 74.286 98.485 73.908 98.6623C73.5253 98.8397 73.0727 98.9283 72.55 98.9283C72.0273 98.9283 71.577 98.8397 71.199 98.6623C70.8163 98.485 70.527 98.2423 70.331 97.9343C70.1303 97.6263 70.03 97.2763 70.03 96.8843C70.03 96.4923 70.1303 96.1423 70.331 95.8343C70.527 95.5217 70.8163 95.2767 71.199 95.0993C71.577 94.922 72.0273 94.8333 72.55 94.8333C73.0727 94.8333 73.5253 94.922 73.908 95.0993C74.286 95.2767 74.5753 95.5217 74.776 95.8343C74.972 96.1423 75.07 96.4923 75.07 96.8843ZM74.279 96.8843C74.279 96.5343 74.1343 96.259 73.845 96.0583C73.5557 95.853 73.124 95.7503 72.55 95.7503C71.976 95.7503 71.5443 95.853 71.255 96.0583C70.9657 96.259 70.821 96.5343 70.821 96.8843C70.821 97.2297 70.9657 97.505 71.255 97.7103C71.5443 97.911 71.976 98.0113 72.55 98.0113C73.124 98.0113 73.5557 97.911 73.845 97.7103C74.1343 97.505 74.279 97.2297 74.279 96.8843ZM75.07 92.1744C75.07 92.5664 74.972 92.9164 74.776 93.2244C74.5753 93.5324 74.286 93.775 73.908 93.9524C73.5253 94.1297 73.0727 94.2184 72.55 94.2184C72.0273 94.2184 71.577 94.1297 71.199 93.9524C70.8163 93.775 70.527 93.5324 70.331 93.2244C70.1303 92.9164 70.03 92.5664 70.03 92.1744C70.03 91.7824 70.1303 91.4324 70.331 91.1244C70.527 90.8117 70.8163 90.5667 71.199 90.3894C71.577 90.212 72.0273 90.1234 72.55 90.1234C73.0727 90.1234 73.5253 90.212 73.908 90.3894C74.286 90.5667 74.5753 90.8117 74.776 91.1244C74.972 91.4324 75.07 91.7824 75.07 92.1744ZM74.279 92.1744C74.279 91.8244 74.1343 91.549 73.845 91.3484C73.5557 91.143 73.124 91.0404 72.55 91.0404C71.976 91.0404 71.5443 91.143 71.255 91.3484C70.9657 91.549 70.821 91.8244 70.821 92.1744C70.821 92.5197 70.9657 92.795 71.255 93.0004C71.5443 93.201 71.976 93.3014 72.55 93.3014C73.124 93.3014 73.5557 93.201 73.845 93.0004C74.1343 92.795 74.279 92.5197 74.279 92.1744Z" fill="#0000AF"/>
<rect x="87" y="65" width="10" height="6" rx="1" fill="#0000AF"/>
</g>
<path d="M21 114L21 119" stroke="#0000AF" stroke-width="2" stroke-linecap="round"/>
<path d="M21 124L21 129" stroke="#0000AF" stroke-width="2" stroke-linecap="round"/>
<path d="M11 114L11 119" stroke="#0000AF" stroke-width="2" stroke-linecap="round"/>
<path d="M11 124L11 129" stroke="#0000AF" stroke-width="2" stroke-linecap="round"/>
<path d="M1 114L1 119" stroke="#0000AF" stroke-width="2" stroke-linecap="round"/>
<path d="M1 124L1 129" stroke="#0000AF" stroke-width="2" stroke-linecap="round"/>
<defs>
<clipPath id="clip0">
<rect x="8" width="147" height="148" fill="white"/>
</clipPath>
</defs>
</svg>
