<svg width="156" height="159" viewBox="0 0 156 159" fill="none" xmlns="http://www.w3.org/2000/svg">
<g clip-path="url(#clip0)">
<path d="M149.602 148H15.2344C11.7891 148 9 145.204 9 141.587V6.24889C9 2.79556 11.7891 0 15.2344 0H149.602C153.047 0 155.836 2.79556 155.836 6.24889V141.587C156 145.204 153.211 148 149.602 148Z" fill="#F2F2FB"/>
<rect x="1" y="-1" width="155" height="15" rx="2" transform="matrix(1 0 0 -1 5 27)" stroke="#0000AF" stroke-width="2"/>
<rect width="109" height="34" rx="3" transform="matrix(1 0 0 -1 28 76)" fill="#0000AF"/>
<rect x="1" y="-1" width="92" height="28" rx="2" transform="matrix(1 0 0 -1 35 120)" stroke="#0000AF" stroke-width="2"/>
<path d="M60.816 63.24V65H52.56V63.608L57.008 59.384C57.5093 58.904 57.8453 58.488 58.016 58.136C58.1973 57.7733 58.288 57.416 58.288 57.064C58.288 56.5413 58.112 56.1413 57.76 55.864C57.408 55.5867 56.8907 55.448 56.208 55.448C55.0667 55.448 54.192 55.8373 53.584 56.616L52.128 55.496C52.5653 54.9093 53.152 54.456 53.888 54.136C54.6347 53.8053 55.4667 53.64 56.384 53.64C57.6 53.64 58.5707 53.928 59.296 54.504C60.0213 55.08 60.384 55.864 60.384 56.856C60.384 57.464 60.256 58.0347 60 58.568C59.744 59.1013 59.2533 59.7093 58.528 60.392L55.536 63.24H60.816ZM66.6416 65.16C65.7456 65.16 64.9456 64.936 64.2416 64.488C63.5376 64.0293 62.983 63.368 62.5776 62.504C62.1723 61.6293 61.9696 60.5947 61.9696 59.4C61.9696 58.2053 62.1723 57.176 62.5776 56.312C62.983 55.4373 63.5376 54.776 64.2416 54.328C64.9456 53.8693 65.7456 53.64 66.6416 53.64C67.5376 53.64 68.3376 53.8693 69.0416 54.328C69.7563 54.776 70.3163 55.4373 70.7216 56.312C71.127 57.176 71.3296 58.2053 71.3296 59.4C71.3296 60.5947 71.127 61.6293 70.7216 62.504C70.3163 63.368 69.7563 64.0293 69.0416 64.488C68.3376 64.936 67.5376 65.16 66.6416 65.16ZM66.6416 63.352C67.4416 63.352 68.071 63.0213 68.5296 62.36C68.999 61.6987 69.2336 60.712 69.2336 59.4C69.2336 58.088 68.999 57.1013 68.5296 56.44C68.071 55.7787 67.4416 55.448 66.6416 55.448C65.8523 55.448 65.223 55.7787 64.7536 56.44C64.295 57.1013 64.0656 58.088 64.0656 59.4C64.0656 60.712 64.295 61.6987 64.7536 62.36C65.223 63.0213 65.8523 63.352 66.6416 63.352ZM77.4073 65.16C76.5113 65.16 75.7113 64.936 75.0073 64.488C74.3033 64.0293 73.7486 63.368 73.3433 62.504C72.9379 61.6293 72.7353 60.5947 72.7353 59.4C72.7353 58.2053 72.9379 57.176 73.3433 56.312C73.7486 55.4373 74.3033 54.776 75.0073 54.328C75.7113 53.8693 76.5113 53.64 77.4073 53.64C78.3033 53.64 79.1033 53.8693 79.8073 54.328C80.5219 54.776 81.0819 55.4373 81.4873 56.312C81.8926 57.176 82.0953 58.2053 82.0953 59.4C82.0953 60.5947 81.8926 61.6293 81.4873 62.504C81.0819 63.368 80.5219 64.0293 79.8073 64.488C79.1033 64.936 78.3033 65.16 77.4073 65.16ZM77.4073 63.352C78.2073 63.352 78.8366 63.0213 79.2953 62.36C79.7646 61.6987 79.9993 60.712 79.9993 59.4C79.9993 58.088 79.7646 57.1013 79.2953 56.44C78.8366 55.7787 78.2073 55.448 77.4073 55.448C76.6179 55.448 75.9886 55.7787 75.5193 56.44C75.0606 57.1013 74.8313 58.088 74.8313 59.4C74.8313 60.712 75.0606 61.6987 75.5193 62.36C75.9886 63.0213 76.6179 63.352 77.4073 63.352ZM88.1729 65.16C87.2769 65.16 86.4769 64.936 85.7729 64.488C85.0689 64.0293 84.5142 63.368 84.1089 62.504C83.7035 61.6293 83.5009 60.5947 83.5009 59.4C83.5009 58.2053 83.7035 57.176 84.1089 56.312C84.5142 55.4373 85.0689 54.776 85.7729 54.328C86.4769 53.8693 87.2769 53.64 88.1729 53.64C89.0689 53.64 89.8689 53.8693 90.5729 54.328C91.2875 54.776 91.8475 55.4373 92.2529 56.312C92.6582 57.176 92.8609 58.2053 92.8609 59.4C92.8609 60.5947 92.6582 61.6293 92.2529 62.504C91.8475 63.368 91.2875 64.0293 90.5729 64.488C89.8689 64.936 89.0689 65.16 88.1729 65.16ZM88.1729 63.352C88.9729 63.352 89.6022 63.0213 90.0609 62.36C90.5302 61.6987 90.7649 60.712 90.7649 59.4C90.7649 58.088 90.5302 57.1013 90.0609 56.44C89.6022 55.7787 88.9729 55.448 88.1729 55.448C87.3835 55.448 86.7542 55.7787 86.2849 56.44C85.8262 57.1013 85.5969 58.088 85.5969 59.4C85.5969 60.712 85.8262 61.6987 86.2849 62.36C86.7542 63.0213 87.3835 63.352 88.1729 63.352Z" fill="white"/>
<path d="M52.908 112.14C51.9093 112.14 51.0087 111.925 50.206 111.496C49.4033 111.057 48.7733 110.455 48.316 109.69C47.8587 108.915 47.63 108.052 47.63 107.1C47.63 106.148 47.8587 105.289 48.316 104.524C48.7733 103.749 49.4033 103.147 50.206 102.718C51.0087 102.279 51.9093 102.06 52.908 102.06C53.9067 102.06 54.8073 102.279 55.61 102.718C56.4127 103.147 57.0427 103.745 57.5 104.51C57.9573 105.275 58.186 106.139 58.186 107.1C58.186 108.061 57.9573 108.925 57.5 109.69C57.0427 110.455 56.4127 111.057 55.61 111.496C54.8073 111.925 53.9067 112.14 52.908 112.14ZM52.908 110.544C53.5613 110.544 54.1493 110.399 54.672 110.11C55.1947 109.811 55.6053 109.401 55.904 108.878C56.2027 108.346 56.352 107.753 56.352 107.1C56.352 106.447 56.2027 105.859 55.904 105.336C55.6053 104.804 55.1947 104.393 54.672 104.104C54.1493 103.805 53.5613 103.656 52.908 103.656C52.2547 103.656 51.6667 103.805 51.144 104.104C50.6213 104.393 50.2107 104.804 49.912 105.336C49.6133 105.859 49.464 106.447 49.464 107.1C49.464 107.753 49.6133 108.346 49.912 108.878C50.2107 109.401 50.6213 109.811 51.144 110.11C51.6667 110.399 52.2547 110.544 52.908 110.544ZM67.1702 104.524V112H65.4342V106.008H61.7522V112H60.0022V104.524H67.1702ZM76.3075 104.524V112H74.5575V106.008H71.7575L71.6875 107.492C71.6408 108.481 71.5475 109.312 71.4075 109.984C71.2768 110.647 71.0481 111.174 70.7215 111.566C70.4041 111.949 69.9655 112.14 69.4055 112.14C69.1441 112.14 68.8221 112.089 68.4395 111.986L68.5235 110.516C68.6541 110.544 68.7661 110.558 68.8595 110.558C69.2141 110.558 69.4801 110.418 69.6575 110.138C69.8348 109.849 69.9468 109.508 69.9935 109.116C70.0495 108.715 70.0961 108.145 70.1335 107.408L70.2595 104.524H76.3075ZM81.4503 104.44C82.5516 104.44 83.3916 104.706 83.9703 105.238C84.5583 105.761 84.8523 106.554 84.8523 107.618V112H83.2003V111.09C82.9856 111.417 82.6776 111.669 82.2763 111.846C81.8843 112.014 81.4083 112.098 80.8483 112.098C80.2883 112.098 79.7983 112.005 79.3783 111.818C78.9583 111.622 78.6316 111.356 78.3983 111.02C78.1743 110.675 78.0623 110.287 78.0623 109.858C78.0623 109.186 78.3096 108.649 78.8043 108.248C79.3083 107.837 80.0969 107.632 81.1703 107.632H83.1023V107.52C83.1023 106.997 82.9436 106.596 82.6263 106.316C82.3183 106.036 81.8563 105.896 81.2403 105.896C80.8203 105.896 80.4049 105.961 79.9943 106.092C79.5929 106.223 79.2523 106.405 78.9723 106.638L78.2863 105.364C78.6783 105.065 79.1496 104.837 79.7003 104.678C80.2509 104.519 80.8343 104.44 81.4503 104.44ZM81.2123 110.824C81.6509 110.824 82.0383 110.726 82.3743 110.53C82.7196 110.325 82.9623 110.035 83.1023 109.662V108.794H81.2963C80.2883 108.794 79.7843 109.125 79.7843 109.788C79.7843 110.105 79.9103 110.357 80.1623 110.544C80.4143 110.731 80.7643 110.824 81.2123 110.824ZM92.9398 106.008H90.3218V112H88.5718V106.008H85.9398V104.524H92.9398V106.008ZM94.2092 104.524H95.9592V109.452L100.089 104.524H101.685V112H99.9352V107.072L95.8192 112H94.2092V104.524ZM109.961 106.008H107.343V112H105.593V106.008H102.961V104.524H109.961V106.008ZM114.983 106.988C115.935 106.988 116.663 107.203 117.167 107.632C117.68 108.061 117.937 108.668 117.937 109.452C117.937 110.273 117.657 110.908 117.097 111.356C116.537 111.804 115.748 112.023 114.731 112.014L111.231 112V104.524H112.981V106.974L114.983 106.988ZM114.577 110.726C115.09 110.735 115.482 110.628 115.753 110.404C116.023 110.18 116.159 109.853 116.159 109.424C116.159 109.004 116.028 108.696 115.767 108.5C115.505 108.304 115.109 108.201 114.577 108.192L112.981 108.178V110.712L114.577 110.726Z" fill="black"/>
<rect x="99" y="55" width="8" height="1" fill="white"/>
<rect x="99" y="57" width="8" height="1" fill="white"/>
<rect x="104" y="57" width="8" height="2" transform="rotate(90 104 57)" fill="white"/>
</g>
<circle cx="128.5" cy="92.5" r="10.5" fill="#0000AF"/>
<path d="M124 91.6154L128.222 96L134 90" stroke="white" stroke-width="2" stroke-linecap="round" stroke-linejoin="round"/>
<path d="M1 138H6" stroke="#0000AF" stroke-width="2" stroke-linecap="round"/>
<path d="M11 138H16" stroke="#0000AF" stroke-width="2" stroke-linecap="round"/>
<path d="M1 148H6" stroke="#0000AF" stroke-width="2" stroke-linecap="round"/>
<path d="M11 148H16" stroke="#0000AF" stroke-width="2" stroke-linecap="round"/>
<path d="M1 158H6" stroke="#0000AF" stroke-width="2" stroke-linecap="round"/>
<path d="M11 158H16" stroke="#0000AF" stroke-width="2" stroke-linecap="round"/>
<defs>
<clipPath id="clip0">
<rect x="9" width="147" height="148" fill="white"/>
</clipPath>
</defs>
</svg>
