<svg width="24" height="24" viewBox="0 0 24 24" fill="none" xmlns="http://www.w3.org/2000/svg">
<path d="M11.847 17.8472C10.2371 17.8472 8.95752 19.1279 8.95752 20.7391C8.95752 22.3091 10.2371 23.6311 11.847 23.6311C13.4981 23.6311 14.7365 22.3091 14.7365 20.7391C14.7365 19.1279 13.4156 17.8472 11.847 17.8472Z" fill="black"/>
<path d="M18.9908 12.8192C19.4689 11.8294 19.0613 10.6277 18.0266 10.2569C16.1491 9.58408 14.1153 9.21289 12.0119 9.21289C9.8585 9.21289 7.7759 9.61436 5.85328 10.328C4.82795 10.7086 4.42735 11.9044 4.90311 12.8892L4.97134 13.0305C5.4596 14.0411 6.681 14.4359 7.74508 14.0787C9.08403 13.6293 10.5105 13.3856 12.0119 13.3856C13.4733 13.3856 14.861 13.6068 16.1627 14.0246C17.2248 14.3655 18.4355 13.9685 18.9208 12.9641L18.9908 12.8192Z" fill="#0000AF"/>
<path d="M22.9623 4.5498C23.4363 3.56235 23.0303 2.36967 22.0156 1.95731C18.9036 0.69264 15.5174 0 11.9294 0C8.3315 0 4.90755 0.696462 1.77907 1.99211C0.773737 2.40846 0.37652 3.59379 0.847374 4.57479L1.14281 5.19031C1.62636 6.19775 2.83918 6.60446 3.88121 6.20083C6.37546 5.23469 9.09999 4.70978 11.9294 4.70978C14.7625 4.70978 17.4641 5.23604 19.9504 6.18358C20.9864 6.57842 22.1852 6.16892 22.665 5.16938L22.9623 4.5498Z" fill="#0000AF"/>
</svg>
