<svg width="212" height="80" viewBox="0 0 212 80" fill="none" xmlns="http://www.w3.org/2000/svg">
<rect x="1" y="1" width="210" height="78" rx="4" stroke="#0000AF" stroke-width="2"/>
<path d="M48.8561 23.17H30.2592C26.373 23.17 23.2227 26.3204 23.2227 30.2066V48.8035C23.2227 52.6897 26.373 55.84 30.2592 55.84H48.8561C52.7423 55.84 55.8927 52.6897 55.8927 48.8035V30.2066C55.8927 26.3204 52.7423 23.17 48.8561 23.17Z" fill="black"/>
<path d="M31.1865 25.3056C30.9401 25.3059 30.7038 25.4037 30.5298 25.5776C30.3557 25.7514 30.2581 25.987 30.2583 26.2326C30.2585 26.4781 30.3566 26.7135 30.531 26.887C30.7054 27.0605 30.9417 27.1579 31.1882 27.1578C31.4346 27.1577 31.6709 27.0601 31.8451 26.8864C32.0193 26.7127 32.1172 26.4773 32.1172 26.2317V26.2299C32.1167 25.9843 32.0184 25.749 31.8439 25.5757C31.6694 25.4023 31.4329 25.3051 31.1865 25.3055V25.3056ZM47.8112 25.3056C47.5648 25.3059 47.3285 25.4037 47.1545 25.5776C46.9804 25.7514 46.8828 25.987 46.883 26.2326C46.8833 26.4781 46.9814 26.7135 47.1558 26.887C47.3301 27.0605 47.5666 27.1579 47.813 27.1578C48.0594 27.1576 48.2957 27.06 48.4699 26.8864C48.6441 26.7127 48.7419 26.4772 48.7419 26.2317V26.2299C48.7415 25.9843 48.6432 25.749 48.4686 25.5757C48.2941 25.4023 48.0576 25.3051 47.8112 25.3055V25.3056Z" fill="#232323"/>
<path d="M31.1497 26.104C30.8266 26.1213 30.843 26.5911 30.843 26.5911C32.5789 29.9715 35.7752 31.6296 39.4611 31.6298C43.1421 31.6244 46.3702 29.9481 48.1037 26.5721C48.1037 26.5721 48.1725 25.9364 47.4959 26.1567C45.7181 29.1036 42.7312 30.8469 39.4633 30.8524C36.1891 30.8532 33.213 29.1282 31.4317 26.1758C31.3167 26.1202 31.2242 26.1 31.1497 26.104ZM42.898 39.2438L41.9104 42.185L40.949 39.246H40.0105L41.5257 43.5213H42.2563L43.2461 40.7128L44.2347 43.5213H44.9713L46.4833 39.246H45.5682L44.6052 42.185L43.6176 39.2438H42.898ZM37.6524 39.2449L35.7361 43.5191H36.637L37.0069 42.6917L37.0331 42.6292H39.0241L39.4142 43.5191H40.3395L38.4408 39.2699L38.4239 39.2449L37.6524 39.2449ZM51.5297 39.2454V43.5164H52.4005V39.2454L51.5297 39.2454ZM26.5615 39.2459V43.5229H27.4443V41.786H29.4369V43.523H30.3198V39.246H29.4369V40.9716H27.4443V39.246L26.5615 39.2459ZM34.4048 39.247V41.6951C34.4048 42.3905 34.0538 42.7618 33.4162 42.7618C32.7749 42.7618 32.4215 42.3802 32.4215 41.6658V39.2498H31.5392V41.6952C31.5392 42.8985 32.2195 43.5882 33.4047 43.5882C34.6011 43.5882 35.2871 42.8852 35.2871 41.6598V39.2471L34.4048 39.247ZM47.1947 39.2486V43.5197H50.4794V42.7411H48.065V41.6821H49.6702V40.9031H48.065V40.0278H50.3953V39.2487L47.1947 39.2486ZM38.0261 40.3272L38.6558 41.7592L38.6983 41.8577H37.3637L37.4057 41.7592L38.0261 40.3272Z" fill="white"/>
<path d="M71.216 23.89C71.832 24.058 72.3127 24.352 72.658 24.772C73.0033 25.1827 73.176 25.6774 73.176 26.256C73.176 26.8347 72.9893 27.3434 72.616 27.782C72.252 28.2114 71.762 28.5427 71.146 28.776C70.5393 29 69.8767 29.112 69.158 29.112C68.5047 29.112 67.856 29.014 67.212 28.818C66.568 28.622 65.98 28.328 65.448 27.936L65.938 26.9C66.3673 27.236 66.848 27.488 67.38 27.656C67.912 27.824 68.4487 27.908 68.99 27.908C69.774 27.908 70.432 27.7447 70.964 27.418C71.496 27.082 71.762 26.6247 71.762 26.046C71.762 25.5514 71.5613 25.1734 71.16 24.912C70.7587 24.6414 70.194 24.506 69.466 24.506H67.282V23.372H69.368C69.9933 23.372 70.4787 23.246 70.824 22.994C71.1787 22.7327 71.356 22.3734 71.356 21.916C71.356 21.4027 71.1273 20.9967 70.67 20.698C70.2127 20.3994 69.634 20.25 68.934 20.25C68.4767 20.25 68.01 20.3154 67.534 20.446C67.0673 20.5767 66.624 20.7727 66.204 21.034L65.756 19.886C66.2507 19.606 66.7733 19.396 67.324 19.256C67.8747 19.116 68.4253 19.046 68.976 19.046C69.6667 19.046 70.3013 19.1534 70.88 19.368C71.4587 19.5827 71.916 19.8954 72.252 20.306C72.5973 20.7167 72.77 21.1974 72.77 21.748C72.77 22.2427 72.63 22.6767 72.35 23.05C72.0793 23.4234 71.7013 23.7034 71.216 23.89Z" fill="black"/>
<path d="M78.4904 21.51C79.5171 21.51 80.3011 21.762 80.8424 22.266C81.3931 22.77 81.6684 23.5214 81.6684 24.52V29H80.3944V28.02C80.1704 28.3654 79.8484 28.6314 79.4284 28.818C79.0178 28.9954 78.5278 29.084 77.9584 29.084C77.1278 29.084 76.4604 28.8834 75.9564 28.482C75.4618 28.0807 75.2144 27.5534 75.2144 26.9C75.2144 26.2467 75.4524 25.724 75.9284 25.332C76.4044 24.9307 77.1604 24.73 78.1964 24.73H80.3244V24.464C80.3244 23.8854 80.1564 23.442 79.8204 23.134C79.4844 22.826 78.9898 22.672 78.3364 22.672C77.8978 22.672 77.4684 22.7467 77.0484 22.896C76.6284 23.036 76.2738 23.2274 75.9844 23.47L75.4244 22.462C75.8071 22.154 76.2644 21.9207 76.7964 21.762C77.3284 21.594 77.8931 21.51 78.4904 21.51ZM78.1824 28.048C78.6958 28.048 79.1391 27.936 79.5124 27.712C79.8858 27.4787 80.1564 27.152 80.3244 26.732V25.696H78.2524C77.1138 25.696 76.5444 26.0787 76.5444 26.844C76.5444 27.2174 76.6891 27.5114 76.9784 27.726C77.2678 27.9407 77.6691 28.048 78.1824 28.048Z" fill="black"/>
<path d="M90.1086 22.756H85.9926V29H84.6486V21.58H90.1086V22.756Z" fill="black"/>
<path d="M95.9785 21.51C96.6972 21.51 97.3412 21.6687 97.9105 21.986C98.4798 22.3034 98.9232 22.7467 99.2405 23.316C99.5672 23.8854 99.7305 24.5434 99.7305 25.29C99.7305 26.0367 99.5672 26.6994 99.2405 27.278C98.9232 27.8474 98.4798 28.2907 97.9105 28.608C97.3412 28.9254 96.6972 29.084 95.9785 29.084C95.4465 29.084 94.9565 28.9814 94.5085 28.776C94.0698 28.5707 93.6965 28.272 93.3885 27.88V31.716H92.0445V21.58H93.3325V22.756C93.6312 22.3454 94.0092 22.0374 94.4665 21.832C94.9238 21.6174 95.4278 21.51 95.9785 21.51ZM95.8665 27.908C96.3425 27.908 96.7672 27.8007 97.1405 27.586C97.5232 27.362 97.8218 27.054 98.0365 26.662C98.2605 26.2607 98.3725 25.8034 98.3725 25.29C98.3725 24.7767 98.2605 24.324 98.0365 23.932C97.8218 23.5307 97.5232 23.2227 97.1405 23.008C96.7672 22.7934 96.3425 22.686 95.8665 22.686C95.3998 22.686 94.9752 22.798 94.5925 23.022C94.2192 23.2367 93.9205 23.54 93.6965 23.932C93.4818 24.324 93.3745 24.7767 93.3745 25.29C93.3745 25.8034 93.4818 26.2607 93.6965 26.662C93.9112 27.054 94.2098 27.362 94.5925 27.586C94.9752 27.8007 95.3998 27.908 95.8665 27.908Z" fill="black"/>
<path d="M108.66 21.58L105.062 29.742C104.745 30.498 104.371 31.03 103.942 31.338C103.522 31.646 103.013 31.8 102.416 31.8C102.052 31.8 101.697 31.7394 101.352 31.618C101.016 31.506 100.736 31.338 100.512 31.114L101.086 30.106C101.469 30.47 101.912 30.652 102.416 30.652C102.743 30.652 103.013 30.5634 103.228 30.386C103.452 30.218 103.653 29.924 103.83 29.504L104.068 28.986L100.792 21.58H102.192L104.782 27.516L107.344 21.58H108.66Z" fill="black"/>
<path d="M114.436 25.136C114.931 25.2667 115.314 25.4767 115.584 25.766C115.855 26.0554 115.99 26.4147 115.99 26.844C115.99 27.2827 115.841 27.6747 115.542 28.02C115.244 28.356 114.828 28.622 114.296 28.818C113.774 29.0047 113.186 29.098 112.532 29.098C111.982 29.098 111.44 29.028 110.908 28.888C110.386 28.7387 109.919 28.5287 109.508 28.258L109.914 27.236C110.269 27.46 110.675 27.6374 111.132 27.768C111.59 27.8894 112.052 27.95 112.518 27.95C113.153 27.95 113.657 27.8427 114.03 27.628C114.413 27.404 114.604 27.1054 114.604 26.732C114.604 26.3867 114.45 26.1207 114.142 25.934C113.844 25.7474 113.419 25.654 112.868 25.654H111.51V24.688H112.77C113.274 24.688 113.671 24.5994 113.96 24.422C114.25 24.2447 114.394 24.002 114.394 23.694C114.394 23.358 114.222 23.0967 113.876 22.91C113.54 22.7234 113.083 22.63 112.504 22.63C111.767 22.63 110.988 22.8214 110.166 23.204L109.802 22.168C110.708 21.7107 111.655 21.482 112.644 21.482C113.242 21.482 113.778 21.566 114.254 21.734C114.73 21.902 115.104 22.14 115.374 22.448C115.645 22.756 115.78 23.106 115.78 23.498C115.78 23.862 115.659 24.1887 115.416 24.478C115.174 24.7674 114.847 24.9867 114.436 25.136Z" fill="black"/>
<path d="M118.594 21.58H119.938V26.984L124.488 21.58H125.706V29H124.362V23.596L119.826 29H118.594V21.58Z" fill="black"/>
<path d="M134.404 22.756H131.688V29H130.344V22.756H127.628V21.58H134.404V22.756Z" fill="black"/>
<path d="M142.717 25.332C142.717 25.4347 142.707 25.57 142.689 25.738H136.669C136.753 26.3914 137.037 26.9187 137.523 27.32C138.017 27.712 138.629 27.908 139.357 27.908C140.243 27.908 140.957 27.6094 141.499 27.012L142.241 27.88C141.905 28.272 141.485 28.5707 140.981 28.776C140.486 28.9814 139.931 29.084 139.315 29.084C138.531 29.084 137.835 28.9254 137.229 28.608C136.622 28.2814 136.151 27.8287 135.815 27.25C135.488 26.6714 135.325 26.018 135.325 25.29C135.325 24.5714 135.483 23.9227 135.801 23.344C136.127 22.7654 136.571 22.3174 137.131 22C137.7 21.6734 138.339 21.51 139.049 21.51C139.758 21.51 140.388 21.6734 140.939 22C141.499 22.3174 141.933 22.7654 142.241 23.344C142.558 23.9227 142.717 24.5854 142.717 25.332ZM139.049 22.644C138.405 22.644 137.863 22.84 137.425 23.232C136.995 23.624 136.743 24.1374 136.669 24.772H141.429C141.354 24.1467 141.097 23.638 140.659 23.246C140.229 22.8447 139.693 22.644 139.049 22.644Z" fill="black"/>
<path d="M154.735 25.15C155.697 25.3927 156.177 25.9947 156.177 26.956C156.177 27.6094 155.93 28.1134 155.435 28.468C154.95 28.8227 154.222 29 153.251 29H149.681V21.58H153.125C154.003 21.58 154.689 21.748 155.183 22.084C155.678 22.4107 155.925 22.8774 155.925 23.484C155.925 23.876 155.818 24.2167 155.603 24.506C155.398 24.786 155.109 25.0007 154.735 25.15ZM150.997 24.772H153.013C153.527 24.772 153.914 24.6787 154.175 24.492C154.446 24.3054 154.581 24.0347 154.581 23.68C154.581 22.9707 154.059 22.616 153.013 22.616H150.997V24.772ZM153.153 27.964C153.713 27.964 154.133 27.8754 154.413 27.698C154.693 27.5207 154.833 27.2454 154.833 26.872C154.833 26.4894 154.703 26.2047 154.441 26.018C154.189 25.8314 153.788 25.738 153.237 25.738H150.997V27.964H153.153Z" fill="black"/>
<path d="M77.122 52.15H68.938L67.244 56H64.978L71.952 40.6H74.13L81.126 56H78.816L77.122 52.15ZM76.352 50.39L73.03 42.844L69.708 50.39H76.352ZM89.2973 44.23C90.4266 44.23 91.4386 44.4793 92.3333 44.978C93.2279 45.4767 93.9246 46.1733 94.4233 47.068C94.9366 47.9627 95.1933 48.9967 95.1933 50.17C95.1933 51.3433 94.9366 52.3847 94.4233 53.294C93.9246 54.1887 93.2279 54.8853 92.3333 55.384C91.4386 55.8827 90.4266 56.132 89.2973 56.132C88.4613 56.132 87.6913 55.9707 86.9873 55.648C86.2979 55.3253 85.7113 54.856 85.2273 54.24V60.268H83.1153V44.34H85.1393V46.188C85.6086 45.5427 86.2026 45.0587 86.9213 44.736C87.6399 44.3987 88.4319 44.23 89.2973 44.23ZM89.1213 54.284C89.8693 54.284 90.5366 54.1153 91.1233 53.778C91.7246 53.426 92.1939 52.942 92.5313 52.326C92.8833 51.6953 93.0593 50.9767 93.0593 50.17C93.0593 49.3633 92.8833 48.652 92.5313 48.036C92.1939 47.4053 91.7246 46.9213 91.1233 46.584C90.5366 46.2467 89.8693 46.078 89.1213 46.078C88.3879 46.078 87.7206 46.254 87.1193 46.606C86.5326 46.9433 86.0633 47.42 85.7113 48.036C85.3739 48.652 85.2053 49.3633 85.2053 50.17C85.2053 50.9767 85.3739 51.6953 85.7113 52.326C86.0486 52.942 86.5179 53.426 87.1193 53.778C87.7206 54.1153 88.3879 54.284 89.1213 54.284ZM104.293 44.23C105.423 44.23 106.435 44.4793 107.329 44.978C108.224 45.4767 108.921 46.1733 109.419 47.068C109.933 47.9627 110.189 48.9967 110.189 50.17C110.189 51.3433 109.933 52.3847 109.419 53.294C108.921 54.1887 108.224 54.8853 107.329 55.384C106.435 55.8827 105.423 56.132 104.293 56.132C103.457 56.132 102.687 55.9707 101.983 55.648C101.294 55.3253 100.707 54.856 100.223 54.24V60.268H98.1114V44.34H100.135V46.188C100.605 45.5427 101.199 45.0587 101.917 44.736C102.636 44.3987 103.428 44.23 104.293 44.23ZM104.117 54.284C104.865 54.284 105.533 54.1153 106.119 53.778C106.721 53.426 107.19 52.942 107.527 52.326C107.879 51.6953 108.055 50.9767 108.055 50.17C108.055 49.3633 107.879 48.652 107.527 48.036C107.19 47.4053 106.721 46.9213 106.119 46.584C105.533 46.2467 104.865 46.078 104.117 46.078C103.384 46.078 102.717 46.254 102.115 46.606C101.529 46.9433 101.059 47.42 100.707 48.036C100.37 48.652 100.201 49.3633 100.201 50.17C100.201 50.9767 100.37 51.6953 100.707 52.326C101.045 52.942 101.514 53.426 102.115 53.778C102.717 54.1153 103.384 54.284 104.117 54.284ZM124.085 48.212H126.197V54.218C125.435 54.8487 124.547 55.3327 123.535 55.67C122.523 56.0073 121.467 56.176 120.367 56.176C118.813 56.176 117.412 55.8387 116.165 55.164C114.919 54.4747 113.936 53.536 113.217 52.348C112.513 51.1453 112.161 49.796 112.161 48.3C112.161 46.804 112.513 45.4547 113.217 44.252C113.936 43.0493 114.919 42.1107 116.165 41.436C117.427 40.7613 118.842 40.424 120.411 40.424C121.643 40.424 122.758 40.6293 123.755 41.04C124.767 41.436 125.625 42.0227 126.329 42.8L124.965 44.164C123.733 42.976 122.245 42.382 120.499 42.382C119.326 42.382 118.27 42.6387 117.331 43.152C116.407 43.6507 115.681 44.3547 115.153 45.264C114.625 46.1587 114.361 47.1707 114.361 48.3C114.361 49.4147 114.625 50.4267 115.153 51.336C115.681 52.2307 116.407 52.9347 117.331 53.448C118.27 53.9613 119.319 54.218 120.477 54.218C121.856 54.218 123.059 53.888 124.085 53.228V48.212ZM134.348 44.23C135.961 44.23 137.193 44.626 138.044 45.418C138.909 46.21 139.342 47.3907 139.342 48.96V56H137.34V54.46C136.988 55.0027 136.482 55.4207 135.822 55.714C135.176 55.9927 134.406 56.132 133.512 56.132C132.206 56.132 131.158 55.8167 130.366 55.186C129.588 54.5553 129.2 53.7267 129.2 52.7C129.2 51.6733 129.574 50.852 130.322 50.236C131.07 49.6053 132.258 49.29 133.886 49.29H137.23V48.872C137.23 47.9627 136.966 47.266 136.438 46.782C135.91 46.298 135.132 46.056 134.106 46.056C133.416 46.056 132.742 46.1733 132.082 46.408C131.422 46.628 130.864 46.9287 130.41 47.31L129.53 45.726C130.131 45.242 130.85 44.8753 131.686 44.626C132.522 44.362 133.409 44.23 134.348 44.23ZM133.864 54.504C134.67 54.504 135.367 54.328 135.954 53.976C136.54 53.6093 136.966 53.096 137.23 52.436V50.808H133.974C132.184 50.808 131.29 51.4093 131.29 52.612C131.29 53.1987 131.517 53.6607 131.972 53.998C132.426 54.3353 133.057 54.504 133.864 54.504ZM143.25 39.676H145.362V56H143.25V39.676ZM149.395 39.676H151.507V56H149.395V39.676ZM166.077 50.236C166.077 50.3973 166.062 50.61 166.033 50.874H156.573C156.705 51.9007 157.152 52.7293 157.915 53.36C158.692 53.976 159.653 54.284 160.797 54.284C162.19 54.284 163.312 53.8147 164.163 52.876L165.329 54.24C164.801 54.856 164.141 55.3253 163.349 55.648C162.572 55.9707 161.699 56.132 160.731 56.132C159.499 56.132 158.406 55.8827 157.453 55.384C156.5 54.8707 155.759 54.1593 155.231 53.25C154.718 52.3407 154.461 51.314 154.461 50.17C154.461 49.0407 154.71 48.0213 155.209 47.112C155.722 46.2027 156.419 45.4987 157.299 45C158.194 44.4867 159.198 44.23 160.313 44.23C161.428 44.23 162.418 44.4867 163.283 45C164.163 45.4987 164.845 46.2027 165.329 47.112C165.828 48.0213 166.077 49.0627 166.077 50.236ZM160.313 46.012C159.301 46.012 158.45 46.32 157.761 46.936C157.086 47.552 156.69 48.3587 156.573 49.356H164.053C163.936 48.3733 163.532 47.574 162.843 46.958C162.168 46.3273 161.325 46.012 160.313 46.012ZM171.034 46.298C171.4 45.6233 171.943 45.11 172.662 44.758C173.38 44.406 174.253 44.23 175.28 44.23V46.276C175.162 46.2613 175.001 46.254 174.796 46.254C173.652 46.254 172.75 46.5987 172.09 47.288C171.444 47.9627 171.122 48.9307 171.122 50.192V56H169.01V44.34H171.034V46.298ZM188.674 44.34L183.02 57.166C182.521 58.354 181.934 59.19 181.26 59.674C180.6 60.158 179.8 60.4 178.862 60.4C178.29 60.4 177.732 60.3047 177.19 60.114C176.662 59.938 176.222 59.674 175.87 59.322L176.772 57.738C177.373 58.31 178.07 58.596 178.862 58.596C179.375 58.596 179.8 58.4567 180.138 58.178C180.49 57.914 180.805 57.452 181.084 56.792L181.458 55.978L176.31 44.34H178.51L182.58 53.668L186.606 44.34H188.674Z" fill="black"/>
</svg>
