<svg width="33" height="33" viewBox="0 0 33 33" fill="none" xmlns="http://www.w3.org/2000/svg">
<path d="M25.8561 0.170044H7.25917C3.37301 0.170044 0.222656 3.3204 0.222656 7.20656V25.8035C0.222656 29.6897 3.37301 32.84 7.25917 32.84H25.8561C29.7423 32.84 32.8927 29.6897 32.8927 25.8035V7.20656C32.8927 3.3204 29.7423 0.170044 25.8561 0.170044Z" fill="black"/>
<path d="M8.1865 2.30556C7.94006 2.30588 7.70383 2.40372 7.52977 2.57756C7.35571 2.7514 7.25806 2.987 7.2583 3.23256C7.25854 3.4781 7.35662 3.71349 7.53099 3.88699C7.70536 4.06049 7.94174 4.15789 8.18817 4.15778C8.43459 4.15767 8.67089 4.06006 8.8451 3.8864C9.01932 3.71275 9.11719 3.47727 9.1172 3.23173V3.22987C9.11675 2.98433 9.01845 2.74902 8.84392 2.57568C8.6694 2.40234 8.43293 2.30515 8.1865 2.30548V2.30556ZM24.8112 2.30556C24.5648 2.30589 24.3285 2.40373 24.1545 2.57756C23.9804 2.7514 23.8828 2.987 23.883 3.23256C23.8833 3.47812 23.9814 3.71353 24.1558 3.88704C24.3301 4.06054 24.5666 4.15792 24.813 4.15778C25.0594 4.15764 25.2957 4.06001 25.4699 3.88636C25.6441 3.71271 25.7419 3.47724 25.7419 3.23173V3.22987C25.7415 2.98433 25.6432 2.74902 25.4686 2.57568C25.2941 2.40233 25.0576 2.30515 24.8112 2.30548V2.30556Z" fill="#232323"/>
<path d="M8.14965 3.104C7.82665 3.12134 7.84301 3.59113 7.84301 3.59113C9.57889 6.97154 12.7752 8.62962 16.4611 8.6298C20.1421 8.62442 23.3702 6.94805 25.1037 3.5721C25.1037 3.5721 25.1725 2.9364 24.4959 3.15674C22.7181 6.10356 19.7312 7.84686 16.4633 7.85236C13.1891 7.85318 10.213 6.12819 8.43174 3.17577C8.31669 3.12024 8.22419 3.10001 8.14965 3.104ZM19.898 16.2438L18.9104 19.185L17.949 16.246H17.0105L18.5257 20.5213H19.2563L20.2461 17.7128L21.2347 20.5213H21.9713L23.4833 16.246H22.5682L21.6052 19.185L20.6176 16.2438H19.898ZM14.6524 16.2449L12.7361 20.5191H13.637L14.0069 19.6917L14.0331 19.6292H16.0241L16.4142 20.5191H17.3395L15.4408 16.2699L15.4239 16.2449L14.6524 16.2449ZM28.5297 16.2454V20.5164H29.4005V16.2454L28.5297 16.2454ZM3.56152 16.2459V20.5229H4.44434V18.786H6.43694V20.523H7.31976V16.246H6.43694V17.9716H4.44434V16.246L3.56152 16.2459ZM11.4048 16.247V18.6951C11.4048 19.3905 11.0538 19.7618 10.4162 19.7618C9.77489 19.7618 9.42149 19.3802 9.42149 18.6658V16.2498H8.53922V18.6952C8.53922 19.8985 9.21953 20.5882 10.4047 20.5882C11.6011 20.5882 12.2871 19.8852 12.2871 18.6598V16.2471L11.4048 16.247ZM24.1947 16.2486V20.5197H27.4794V19.7411H25.065V18.6821H26.6702V17.9031H25.065V17.0278H27.3953V16.2487L24.1947 16.2486ZM15.0261 17.3272L15.6558 18.7592L15.6983 18.8577H14.3637L14.4057 18.7592L15.0261 17.3272Z" fill="white"/>
</svg>
