<svg width="22" height="27" viewBox="0 0 22 27" fill="none" xmlns="http://www.w3.org/2000/svg">
<path d="M17.5791 13.9303C17.5517 10.6521 20.2573 9.05886 20.3761 8.98561C18.8405 6.75136 16.464 6.44003 15.6322 6.41256C13.6396 6.20195 11.7018 7.61209 10.6873 7.61209C9.65439 7.61209 8.08223 6.44003 6.40039 6.4675C4.23411 6.50412 2.1958 7.7586 1.0898 9.71815C-1.20444 13.7013 0.504816 19.5617 2.70766 22.7849C3.81365 24.3598 5.09331 26.1271 6.78429 26.063C8.42957 25.9989 9.05112 25.01 11.0346 25.01C13.0089 25.01 13.5848 26.063 15.3032 26.0264C17.0764 25.9989 18.1824 24.4422 19.2518 22.849C20.5224 21.0451 21.0342 19.2595 21.0525 19.1679C21.0068 19.1496 17.6157 17.8494 17.5791 13.9303Z" fill="black"/>
<path d="M14.3342 4.29744C15.2208 3.18947 15.8241 1.6786 15.6596 0.140259C14.3799 0.195199 12.7712 1.02847 11.848 2.11812C11.0345 3.07958 10.3033 4.64539 10.4861 6.11963C11.9303 6.22952 13.411 5.38709 14.3342 4.29744Z" fill="black"/>
</svg>
