<svg width="212" height="80" viewBox="0 0 212 80" fill="none" xmlns="http://www.w3.org/2000/svg">
<rect x="1" y="1" width="210" height="78" rx="4" stroke="#0000AF" stroke-width="2"/>
<path d="M26.1711 23.4301C24.8801 22.7244 23.3641 22.7412 22.0811 23.44L37.1161 37.1498L42.1671 32.1571L26.1711 23.4301Z" fill="black"/>
<path d="M20.578 24.8428C20.21 25.4358 20 26.1149 20 26.8345V51.5951C20 52.2919 20.192 52.9562 20.538 53.5374L35.658 38.5931L20.578 24.8428Z" fill="black"/>
<path d="M48.8631 35.8105L44.0451 33.1832L38.6321 38.5317L45.2661 44.58L48.8651 42.617C50.1601 41.9083 50.9361 40.6361 50.9361 39.2127C50.9341 37.7904 50.1601 36.5182 48.8631 35.8105Z" fill="black"/>
<path d="M37.174 39.975L22.0129 54.9608C22.6709 55.3315 23.393 55.5272 24.119 55.5272C24.82 55.5272 25.525 55.3522 26.171 54.9994L43.3649 45.62L37.174 39.975Z" fill="black"/>
<path d="M68.216 23.788C68.832 23.9541 69.3127 24.2447 69.658 24.6598C70.0033 25.0658 70.176 25.5547 70.176 26.1267C70.176 26.6987 69.9893 27.2015 69.616 27.6351C69.252 28.0594 68.762 28.3869 68.146 28.6176C67.5393 28.839 66.8767 28.9497 66.158 28.9497C65.5047 28.9497 64.856 28.8528 64.212 28.6591C63.568 28.4654 62.98 28.1748 62.448 27.7873L62.938 26.7633C63.3673 27.0954 63.848 27.3445 64.38 27.5105C64.912 27.6766 65.4487 27.7596 65.99 27.7596C66.774 27.7596 67.432 27.5982 67.964 27.2753C68.496 26.9432 68.762 26.4911 68.762 25.9191C68.762 25.4302 68.5613 25.0565 68.16 24.7982C67.7587 24.5307 67.194 24.3969 66.466 24.3969H64.282V23.276H66.368C66.9933 23.276 67.4787 23.1515 67.824 22.9024C68.1787 22.6441 68.356 22.2889 68.356 21.8368C68.356 21.3294 68.1273 20.9281 67.67 20.6329C67.2127 20.3377 66.634 20.1901 65.934 20.1901C65.4767 20.1901 65.01 20.2547 64.534 20.3838C64.0673 20.513 63.624 20.7067 63.204 20.965L62.756 19.8303C63.2507 19.5535 63.7733 19.346 64.324 19.2076C64.8747 19.0692 65.4253 19 65.976 19C66.6667 19 67.3013 19.1061 67.88 19.3183C68.4587 19.5305 68.916 19.8395 69.252 20.2454C69.5973 20.6514 69.77 21.1265 69.77 21.6708C69.77 22.1597 69.63 22.5887 69.35 22.9577C69.0793 23.3268 68.7013 23.6035 68.216 23.788Z" fill="black"/>
<path d="M75.4904 21.4355C76.5171 21.4355 77.3011 21.6846 77.8424 22.1828C78.3931 22.681 78.6684 23.4236 78.6684 24.4108V28.839H77.3944V27.8703C77.1704 28.2117 76.8484 28.4746 76.4284 28.6591C76.0178 28.8344 75.5278 28.922 74.9584 28.922C74.1278 28.922 73.4604 28.7237 72.9564 28.327C72.4618 27.9303 72.2144 27.409 72.2144 26.7633C72.2144 26.1175 72.4524 25.6008 72.9284 25.2134C73.4044 24.8167 74.1604 24.6183 75.1964 24.6183H77.3244V24.3554C77.3244 23.7834 77.1564 23.3452 76.8204 23.0408C76.4844 22.7363 75.9898 22.5841 75.3364 22.5841C74.8978 22.5841 74.4684 22.6579 74.0484 22.8055C73.6284 22.9439 73.2738 23.133 72.9844 23.3729L72.4244 22.3765C72.8071 22.0721 73.2644 21.8415 73.7964 21.6846C74.3284 21.5186 74.8931 21.4355 75.4904 21.4355ZM75.1824 27.898C75.6958 27.898 76.1391 27.7873 76.5124 27.5659C76.8858 27.3352 77.1564 27.0123 77.3244 26.5972V25.5732H75.2524C74.1138 25.5732 73.5444 25.9514 73.5444 26.7079C73.5444 27.0769 73.6891 27.3675 73.9784 27.5797C74.2678 27.7919 74.6691 27.898 75.1824 27.898Z" fill="black"/>
<path d="M87.1086 22.6671H82.9926V28.839H81.6486V21.5047H87.1086V22.6671Z" fill="black"/>
<path d="M92.9785 21.4355C93.6972 21.4355 94.3412 21.5924 94.9105 21.906C95.4798 22.2197 95.9232 22.6579 96.2405 23.2207C96.5672 23.7834 96.7305 24.4338 96.7305 25.1719C96.7305 25.9099 96.5672 26.5649 96.2405 27.1369C95.9232 27.6996 95.4798 28.1379 94.9105 28.4515C94.3412 28.7652 93.6972 28.922 92.9785 28.922C92.4465 28.922 91.9565 28.8205 91.5085 28.6176C91.0698 28.4146 90.6965 28.1194 90.3885 27.7319V31.5236H89.0445V21.5047H90.3325V22.6671C90.6312 22.2612 91.0092 21.9568 91.4665 21.7538C91.9238 21.5416 92.4278 21.4355 92.9785 21.4355ZM92.8665 27.7596C93.3425 27.7596 93.7672 27.6535 94.1405 27.4413C94.5232 27.2199 94.8218 26.9155 95.0365 26.528C95.2605 26.1313 95.3725 25.6793 95.3725 25.1719C95.3725 24.6645 95.2605 24.217 95.0365 23.8295C94.8218 23.4329 94.5232 23.1284 94.1405 22.9162C93.7672 22.704 93.3425 22.5979 92.8665 22.5979C92.3998 22.5979 91.9752 22.7087 91.5925 22.9301C91.2192 23.1422 90.9205 23.4421 90.6965 23.8295C90.4818 24.217 90.3745 24.6645 90.3745 25.1719C90.3745 25.6793 90.4818 26.1313 90.6965 26.528C90.9112 26.9155 91.2098 27.2199 91.5925 27.4413C91.9752 27.6535 92.3998 27.7596 92.8665 27.7596Z" fill="black"/>
<path d="M105.66 21.5047L102.062 29.5724C101.745 30.3197 101.371 30.8455 100.942 31.15C100.522 31.4544 100.013 31.6066 99.4161 31.6066C99.0521 31.6066 98.6974 31.5467 98.3521 31.4267C98.0161 31.316 97.7361 31.15 97.5121 30.9286L98.0861 29.9322C98.4688 30.292 98.9121 30.4719 99.4161 30.4719C99.7428 30.4719 100.013 30.3843 100.228 30.209C100.452 30.0429 100.653 29.7523 100.83 29.3372L101.068 28.8252L97.7921 21.5047H99.1921L101.782 27.3721L104.344 21.5047H105.66Z" fill="black"/>
<path d="M111.436 25.0196C111.931 25.1488 112.314 25.3564 112.584 25.6424C112.855 25.9284 112.99 26.2835 112.99 26.7079C112.99 27.1415 112.841 27.529 112.542 27.8703C112.244 28.2024 111.828 28.4654 111.296 28.6591C110.774 28.8436 110.186 28.9359 109.532 28.9359C108.982 28.9359 108.44 28.8667 107.908 28.7283C107.386 28.5807 106.919 28.3731 106.508 28.1056L106.914 27.0954C107.269 27.3168 107.675 27.4921 108.132 27.6212C108.59 27.7412 109.052 27.8011 109.518 27.8011C110.153 27.8011 110.657 27.695 111.03 27.4828C111.413 27.2614 111.604 26.9662 111.604 26.5972C111.604 26.2559 111.45 25.9929 111.142 25.8084C110.844 25.6239 110.419 25.5317 109.868 25.5317H108.51V24.5768H109.77C110.274 24.5768 110.671 24.4892 110.96 24.3139C111.25 24.1386 111.394 23.8987 111.394 23.5943C111.394 23.2622 111.222 23.0039 110.876 22.8194C110.54 22.6348 110.083 22.5426 109.504 22.5426C108.767 22.5426 107.988 22.7317 107.166 23.11L106.802 22.0859C107.708 21.6339 108.655 21.4079 109.644 21.4079C110.242 21.4079 110.778 21.4909 111.254 21.6569C111.73 21.823 112.104 22.0583 112.374 22.3627C112.645 22.6671 112.78 23.0131 112.78 23.4006C112.78 23.7604 112.659 24.0833 112.416 24.3692C112.174 24.6552 111.847 24.872 111.436 25.0196Z" fill="black"/>
<path d="M115.594 21.5047H116.938V26.8463L121.488 21.5047H122.706V28.839H121.362V23.4974L116.826 28.839H115.594V21.5047Z" fill="black"/>
<path d="M131.404 22.6671H128.688V28.839H127.344V22.6671H124.628V21.5047H131.404V22.6671Z" fill="black"/>
<path d="M139.717 25.2134C139.717 25.3149 139.707 25.4486 139.689 25.6147H133.669C133.753 26.2605 134.037 26.7817 134.523 27.1784C135.017 27.5659 135.629 27.7596 136.357 27.7596C137.243 27.7596 137.957 27.4644 138.499 26.874L139.241 27.7319C138.905 28.1194 138.485 28.4146 137.981 28.6176C137.486 28.8205 136.931 28.922 136.315 28.922C135.531 28.922 134.835 28.7652 134.229 28.4515C133.622 28.1286 133.151 27.6812 132.815 27.1092C132.488 26.5372 132.325 25.8914 132.325 25.1719C132.325 24.4615 132.483 23.8203 132.801 23.2483C133.127 22.6764 133.571 22.2335 134.131 21.9199C134.7 21.597 135.339 21.4355 136.049 21.4355C136.758 21.4355 137.388 21.597 137.939 21.9199C138.499 22.2335 138.933 22.6764 139.241 23.2483C139.558 23.8203 139.717 24.4753 139.717 25.2134ZM136.049 22.5564C135.405 22.5564 134.863 22.7502 134.425 23.1376C133.995 23.5251 133.743 24.0325 133.669 24.6598H138.429C138.354 24.0417 138.097 23.5389 137.659 23.1515C137.229 22.7548 136.693 22.5564 136.049 22.5564Z" fill="black"/>
<path d="M151.735 25.0335C152.697 25.2733 153.177 25.8684 153.177 26.8186C153.177 27.4644 152.93 27.9626 152.435 28.3131C151.95 28.6637 151.222 28.839 150.251 28.839H146.681V21.5047H150.125C151.003 21.5047 151.689 21.6708 152.183 22.0029C152.678 22.3258 152.925 22.7871 152.925 23.3867C152.925 23.7742 152.818 24.1109 152.603 24.3969C152.398 24.6737 152.109 24.8859 151.735 25.0335ZM147.997 24.6598H150.013C150.527 24.6598 150.914 24.5676 151.175 24.3831C151.446 24.1986 151.581 23.931 151.581 23.5805C151.581 22.8793 151.059 22.5288 150.013 22.5288H147.997V24.6598ZM150.153 27.815C150.713 27.815 151.133 27.7273 151.413 27.552C151.693 27.3768 151.833 27.1046 151.833 26.7356C151.833 26.3573 151.703 26.076 151.441 25.8914C151.189 25.7069 150.788 25.6147 150.237 25.6147H147.997V27.815H150.153Z" fill="black"/>
<path d="M156.329 54.4626C155.492 54.4626 154.728 54.3099 154.037 54.0048C153.345 53.6994 152.764 53.2297 152.294 52.5965H152.154C152.247 53.3385 152.294 54.0419 152.294 54.7063V59.935H150.348V41.5239H151.931L152.201 43.2631H152.294C152.795 42.5671 153.378 42.0654 154.042 41.7561C154.707 41.4468 155.47 41.2922 156.329 41.2922C158.034 41.2922 159.35 41.8683 160.276 43.0198C161.203 44.1713 161.666 45.7871 161.666 47.8656C161.666 49.9526 161.195 51.5734 160.253 52.7299C159.311 53.8852 158.004 54.4626 156.329 54.4626ZM156.048 42.9269C154.734 42.9269 153.784 43.2866 153.198 44.0051C152.611 44.7239 152.31 45.8681 152.294 47.4372V47.8656C152.294 49.6515 152.595 50.9287 153.198 51.698C153.8 52.4674 154.766 52.851 156.095 52.851C157.206 52.851 158.076 52.4072 158.705 51.5183C159.334 50.6298 159.649 49.4047 159.649 47.8425C159.649 46.2587 159.334 45.0424 158.705 44.1963C158.076 43.3495 157.19 42.9269 156.048 42.9269ZM166.175 54.2304H164.228V36.1907H166.175V54.2304ZM177.369 54.2304L176.981 52.4218H176.888C176.246 53.2185 175.607 53.758 174.97 54.0391C174.333 54.3218 173.537 54.4626 172.583 54.4626C171.309 54.4626 170.31 54.1379 169.586 53.4888C168.863 52.8399 168.501 51.9166 168.501 50.7181C168.501 48.1525 170.578 46.8074 174.729 46.6833L176.912 46.6135V45.8252C176.912 44.828 176.695 44.0915 176.26 43.6167C175.827 43.1408 175.132 42.9033 174.179 42.9033C173.107 42.9033 171.895 43.228 170.543 43.877L169.944 42.4047C170.578 42.0646 171.271 41.7981 172.027 41.6049C172.781 41.4117 173.537 41.315 174.296 41.315C175.829 41.315 176.964 41.6508 177.704 42.3234C178.442 42.9959 178.812 44.0741 178.812 45.5584V54.2301H177.369V54.2304H177.369ZM172.97 52.8745C174.182 52.8745 175.134 52.546 175.826 51.8893C176.518 51.2325 176.864 50.3124 176.864 49.1293V47.9817L174.916 48.0623C173.368 48.1174 172.253 48.3542 171.568 48.7765C170.884 49.1976 170.542 49.8527 170.542 50.7416C170.542 51.4369 170.754 51.9668 171.181 52.3292C171.608 52.6929 172.203 52.8745 172.97 52.8745ZM179.942 41.5239H182.029L184.844 48.7703C185.462 50.4246 185.845 51.6185 185.994 52.3531H186.088C186.19 51.9583 186.403 51.2846 186.727 50.329C187.052 49.3742 188.113 46.4399 189.911 41.5239H192L186.475 55.9931C185.928 57.423 185.289 58.4376 184.557 59.0376C183.826 59.6361 182.928 59.935 181.866 59.935C181.271 59.935 180.685 59.8695 180.106 59.7384V58.1966C180.535 58.2891 181.017 58.3358 181.549 58.3358C182.886 58.3358 183.839 57.5938 184.411 56.1096L185.126 54.3013L179.942 41.5239ZM120.262 42.7047C120.88 43.2103 122.17 44.2723 122.17 46.2934C122.17 48.2589 121.041 49.191 119.911 50.0668C119.562 50.4119 119.158 50.7852 119.158 51.3706C119.158 51.954 119.561 52.2733 119.858 52.5128L120.827 53.2555C122.01 54.2393 123.084 55.1435 123.084 56.978C123.084 59.4761 120.637 62 116.013 62C112.114 62 110.233 60.1668 110.233 58.1989C110.233 57.2425 110.714 55.8878 112.303 54.9565C113.969 53.9466 116.229 53.8151 117.438 53.7333C117.061 53.2555 116.632 52.7504 116.632 51.9278C116.632 51.4766 116.767 51.2105 116.9 50.8901C116.603 50.9171 116.308 50.9437 116.039 50.9437C113.19 50.9437 111.577 48.8439 111.577 46.772C111.577 45.5491 112.142 44.1929 113.297 43.2107C114.83 41.9617 116.658 41.7484 118.111 41.7484H123.649L121.928 42.7051H120.262V42.7047H120.262ZM118.352 54.5058C118.137 54.478 118.002 54.478 117.734 54.478C117.493 54.478 116.039 54.5324 114.911 54.9053C114.319 55.1162 112.598 55.754 112.598 57.6421C112.598 59.5282 114.454 60.8856 117.331 60.8856C119.911 60.8856 121.284 59.6605 121.284 58.0142C121.284 56.656 120.396 55.9415 118.352 54.5058ZM119.132 49.4552C119.75 48.8432 119.803 47.9936 119.803 47.5147C119.803 45.6016 118.647 42.6249 116.416 42.6249C115.716 42.6249 114.964 42.97 114.534 43.5022C114.077 44.0602 113.942 44.7771 113.942 45.4689C113.942 47.2494 114.99 50.1998 117.304 50.1998C117.976 50.1998 118.7 49.8809 119.132 49.4552ZM103.334 54.0804C99.0664 54.0804 96.7845 50.7898 96.7845 47.8174C96.7845 44.3409 99.6563 41.3705 103.738 41.3705C107.683 41.3705 110.153 44.4208 110.153 47.6323C110.153 50.7621 107.711 54.0804 103.334 54.0804ZM106.689 51.9313C107.335 51.0814 107.496 50.0205 107.496 48.9847C107.496 46.6489 106.368 42.1919 103.039 42.1919C102.154 42.1919 101.268 42.5374 100.624 43.0958C99.5767 44.0232 99.3879 45.1913 99.3879 46.3335C99.3879 48.9585 100.703 53.2825 103.952 53.2825C104.999 53.2825 106.073 52.7793 106.689 51.9313ZM88.784 54.0804C84.5154 54.0804 82.2332 50.7898 82.2332 47.8174C82.2332 44.3409 85.1061 41.3705 89.187 41.3705C93.1324 41.3705 95.602 44.4208 95.602 47.6323C95.6024 50.7621 93.1601 54.0804 88.784 54.0804ZM92.1399 51.9313C92.784 51.0814 92.9456 50.0205 92.9456 48.9847C92.9456 46.6489 91.8172 42.1919 88.4882 42.1919C87.603 42.1919 86.7166 42.5374 86.0729 43.0958C85.0258 44.0232 84.8381 45.1913 84.8381 46.3335C84.8381 48.9585 86.1529 53.2825 89.4023 53.2825C90.4495 53.2825 91.5228 52.7793 92.1399 51.9313ZM80.1826 53.6643L76.3226 54.5447C74.7566 54.7853 73.3537 54.997 71.87 54.997C64.4199 54.997 61.5872 49.5813 61.5872 45.3393C61.5872 40.1646 65.6079 35.3639 72.4911 35.3639C73.949 35.3639 75.3512 35.5768 76.6195 35.9238C78.6435 36.4842 79.5881 37.1771 80.1822 37.5778L77.9413 39.6853L76.9972 39.8977L77.6717 38.8303C76.7545 37.9507 75.0796 36.3237 71.8961 36.3237C67.6315 36.3237 64.4192 39.5264 64.4192 44.1944C64.4192 49.2084 68.0904 53.9304 73.9728 53.9304C75.7019 53.9304 76.5907 53.5841 77.401 53.2633V48.9693L73.3264 49.1825L75.4846 48.0342H81.2067L80.5057 48.7009C80.3153 48.8617 80.2892 48.9157 80.2353 49.127C80.2072 49.3677 80.1819 50.142 80.1819 50.4085V53.6643H80.1826V53.6643Z" fill="black"/>
<path d="M128.792 52.8958C127.901 52.8156 127.714 52.6563 127.714 51.6148V36.5158C127.72 36.4584 127.723 36.3994 127.729 36.3438C127.838 35.4106 128.107 35.2506 128.945 34.7697H125.084L123.059 35.7303H125.123V35.7423L125.121 35.7326V52.2025C125.121 52.735 125.015 52.816 124.393 53.6154H129.171L130.17 53.03C129.711 52.9749 129.252 52.949 128.792 52.8958ZM139.774 53.1411C139.481 53.3004 139.186 53.4866 138.892 53.6181C138.006 54.0153 137.095 54.1217 136.289 54.1217C135.434 54.1217 134.092 54.067 132.724 53.0879C130.823 51.7621 129.992 49.4838 129.992 47.4974C129.992 43.3916 133.369 41.3782 136.129 41.3782C137.094 41.3782 138.087 41.6162 138.891 42.1206C140.23 42.9933 140.579 44.1324 140.765 44.7421L134.468 47.2599L132.404 47.4187C133.073 50.7833 135.378 52.7423 137.925 52.7423C139.292 52.7423 140.284 52.2665 141.195 51.8168L139.774 53.1411ZM137.256 45.2449C137.764 45.0602 138.032 44.9006 138.032 44.53C138.032 43.4711 136.826 42.2517 135.378 42.2517C134.305 42.2517 132.296 43.0735 132.296 45.9341C132.296 46.3845 132.35 46.8611 132.377 47.3397L137.256 45.2449ZM142.361 41.5595V43.3075H142.146V41.5595H141.561V41.3782H142.946V41.5595H142.361ZM144.772 43.3075V41.5433H144.763L144.218 43.3075H144.05L143.5 41.5433H143.493V43.3075H143.298V41.3782H143.633L144.13 42.9377H144.137L144.626 41.3782H144.965V43.3075H144.772Z" fill="black"/>
</svg>
