<svg width="212" height="80" viewBox="0 0 212 80" fill="none" xmlns="http://www.w3.org/2000/svg">
<rect x="1" y="1" width="210" height="78" rx="4" stroke="#0000AF" stroke-width="2"/>
<path d="M49.9891 38.3622C49.9486 33.5218 53.9485 31.1692 54.1242 31.061C51.8539 27.762 48.3405 27.3023 47.1108 27.2617C44.1649 26.9507 41.3001 29.0329 39.8001 29.0329C38.2731 29.0329 35.9488 27.3023 33.4624 27.3428C30.2597 27.3969 27.2463 29.2493 25.6112 32.1427C22.2193 38.0242 24.7463 46.6775 28.003 51.4368C29.6381 53.7623 31.53 56.3718 34.0299 56.2772C36.4623 56.1825 37.3812 54.7223 40.3136 54.7223C43.2325 54.7223 44.0838 56.2772 46.6243 56.2231C49.2459 56.1825 50.881 53.884 52.462 51.5314C54.3404 48.8678 55.0971 46.2313 55.1241 46.0961C55.0566 46.069 50.0431 44.1491 49.9891 38.3622Z" fill="black"/>
<path d="M45.1919 24.1384C46.5027 22.5024 47.3945 20.2715 47.1513 18C45.2595 18.0811 42.8811 19.3115 41.5163 20.9205C40.3136 22.3402 39.2325 24.6522 39.5028 26.829C41.6379 26.9913 43.827 25.7474 45.1919 24.1384Z" fill="black"/>
<path d="M85.2858 57.159H81.8804L80.0156 51.291H73.5292L71.759 57.159H68.4482L74.867 37.1888H78.8399L85.2858 57.159ZM79.4616 48.8302L77.7724 43.6247C77.5967 43.0839 77.2589 41.84 76.7724 39.8659H76.7048C76.5021 40.7178 76.1913 41.9752 75.7589 43.6247L74.0968 48.8302H79.4616Z" fill="black"/>
<path d="M101.786 49.7903C101.786 52.2375 101.123 54.171 99.7855 55.5907C98.5964 56.8616 97.1099 57.4836 95.3532 57.4836C93.4478 57.4836 92.083 56.8075 91.2452 55.4419V63H88.0425V47.4917C88.0425 45.9504 88.002 44.382 87.9209 42.7595H90.7317L90.9073 45.0445H90.9614C92.0289 43.3274 93.6505 42.462 95.8126 42.462C97.5153 42.462 98.9207 43.1381 100.056 44.4766C101.218 45.8287 101.786 47.5864 101.786 49.7903ZM98.5288 49.8984C98.5288 48.4923 98.218 47.343 97.5829 46.4371C96.8937 45.4907 95.9613 45.0175 94.7991 45.0175C94.0154 45.0175 93.2992 45.2879 92.6505 45.8017C92.0154 46.329 91.583 47.005 91.3938 47.8568C91.2992 48.2489 91.2452 48.5734 91.2452 48.8303V51.237C91.2452 52.2781 91.5695 53.1705 92.2046 53.8871C92.8397 54.6037 93.6775 54.9687 94.7046 54.9687C95.9072 54.9687 96.8396 54.4955 97.5153 53.5761C98.191 52.6431 98.5288 51.4263 98.5288 49.8984Z" fill="black"/>
<path d="M118.326 49.7903C118.326 52.2375 117.664 54.171 116.326 55.5907C115.137 56.8616 113.65 57.4836 111.893 57.4836C109.988 57.4836 108.623 56.8075 107.785 55.4419V63H104.583V47.4917C104.583 45.9504 104.542 44.382 104.461 42.7595H107.272L107.448 45.0445H107.502C108.569 43.3274 110.191 42.462 112.353 42.462C114.056 42.462 115.461 43.1381 116.596 44.4766C117.758 45.8287 118.326 47.5864 118.326 49.7903ZM115.069 49.8984C115.069 48.4923 114.758 47.343 114.123 46.4371C113.434 45.4907 112.502 45.0175 111.339 45.0175C110.556 45.0175 109.839 45.2879 109.191 45.8017C108.556 46.329 108.137 47.005 107.934 47.8568C107.839 48.2489 107.785 48.5734 107.785 48.8303V51.237C107.785 52.2781 108.11 53.1705 108.745 53.8871C109.38 54.6037 110.218 54.9687 111.245 54.9687C112.448 54.9687 113.393 54.4955 114.056 53.5761C114.745 52.6431 115.069 51.4263 115.069 49.8984Z" fill="black"/>
<path d="M136.839 51.5615C136.839 53.2651 136.244 54.6442 135.069 55.7124C133.771 56.8752 131.961 57.4565 129.636 57.4565C127.488 57.4565 125.772 57.0374 124.474 56.2126L125.218 53.5491C126.623 54.3738 128.163 54.793 129.839 54.793C131.042 54.793 131.988 54.5225 132.65 53.9817C133.326 53.4409 133.663 52.7108 133.663 51.8049C133.663 50.9936 133.38 50.3176 132.839 49.7633C132.285 49.2089 131.366 48.6951 130.082 48.2219C126.555 46.9104 124.812 45.004 124.812 42.5026C124.812 40.8666 125.434 39.5281 126.664 38.4734C127.893 37.4323 129.528 36.905 131.569 36.905C133.38 36.905 134.893 37.216 136.096 37.8515L135.285 40.4475C134.15 39.839 132.88 39.5281 131.447 39.5281C130.326 39.5281 129.434 39.812 128.799 40.3528C128.272 40.8531 128.001 41.448 128.001 42.1646C128.001 42.9488 128.312 43.6113 128.92 44.1116C129.447 44.5848 130.42 45.0986 131.826 45.6529C133.542 46.3425 134.799 47.1537 135.609 48.0867C136.434 49.0196 136.839 50.1824 136.839 51.5615Z" fill="black"/>
<path d="M147.433 45.1661H143.906V52.1564C143.906 53.9276 144.528 54.8199 145.771 54.8199C146.339 54.8199 146.812 54.7659 147.19 54.6712L147.285 57.1049C146.65 57.3348 145.825 57.4565 144.798 57.4565C143.528 57.4565 142.555 57.0644 141.839 56.2937C141.123 55.523 140.771 54.225 140.771 52.4133V45.1526H138.677V42.7594H140.771V40.1229L143.906 39.1765V42.7594H147.433V45.1661Z" fill="black"/>
<path d="M163.298 49.8444C163.298 52.0618 162.663 53.8736 161.406 55.2933C160.082 56.7535 158.325 57.4837 156.136 57.4837C154.028 57.4837 152.338 56.7806 151.082 55.3879C149.825 53.9953 149.203 52.2241 149.203 50.0878C149.203 47.8569 149.852 46.0316 151.136 44.6119C152.433 43.1922 154.176 42.4756 156.365 42.4756C158.473 42.4756 160.176 43.1787 161.46 44.5849C162.69 45.937 163.298 47.6946 163.298 49.8444ZM159.987 49.912C159.987 48.587 159.703 47.4648 159.136 46.5183C158.46 45.3691 157.501 44.8012 156.257 44.8012C154.974 44.8012 153.987 45.3691 153.325 46.5183C152.744 47.4648 152.474 48.6141 152.474 49.9797C152.474 51.3047 152.757 52.4404 153.325 53.3734C154.014 54.5226 154.987 55.0905 156.23 55.0905C157.446 55.0905 158.406 54.5091 159.109 53.3463C159.69 52.3728 159.987 51.2371 159.987 49.912Z" fill="black"/>
<path d="M173.703 45.5718C173.392 45.5177 173.054 45.4907 172.689 45.4907C171.568 45.4907 170.689 45.9098 170.081 46.7616C169.554 47.5053 169.284 48.4652 169.284 49.601V57.1591H166.081V47.2889C166.081 45.6259 166.054 44.1116 165.987 42.7595H168.771L168.892 45.5177H168.987C169.325 44.5713 169.852 43.8006 170.581 43.2327C171.298 42.7189 172.068 42.462 172.892 42.462C173.189 42.462 173.46 42.4891 173.689 42.5161L173.703 45.5718Z" fill="black"/>
<path d="M188 49.2763C188 49.8442 187.959 50.331 187.878 50.7231H178.284C178.324 52.1427 178.784 53.2379 179.676 53.9816C180.487 54.6441 181.527 54.9821 182.811 54.9821C184.23 54.9821 185.527 54.7522 186.689 54.3061L187.189 56.5235C185.824 57.1184 184.216 57.4158 182.365 57.4158C180.135 57.4158 178.378 56.7533 177.108 55.4418C175.838 54.1303 175.203 52.3591 175.203 50.1552C175.203 47.9919 175.797 46.1801 176.987 44.7334C178.23 43.192 179.905 42.4213 182.014 42.4213C184.081 42.4213 185.662 43.192 186.716 44.7334C187.567 45.9773 188 47.4781 188 49.2763ZM184.946 48.4516C184.973 47.5051 184.757 46.6804 184.324 45.9908C183.77 45.0984 182.919 44.6522 181.784 44.6522C180.743 44.6522 179.892 45.0849 179.243 45.9502C178.716 46.6398 178.392 47.4781 178.297 48.4381L184.946 48.4516Z" fill="black"/>
<path d="M76.0192 23.8606C76.6329 24.0277 77.1117 24.3203 77.4558 24.7382C77.7998 25.1468 77.9718 25.639 77.9718 26.2147C77.9718 26.7905 77.7859 27.2966 77.4139 27.7331C77.0513 28.1603 76.5631 28.49 75.9495 28.7221C75.3451 28.945 74.6849 29.0565 73.969 29.0565C73.3181 29.0565 72.6719 28.9589 72.0303 28.7639C71.3887 28.5689 70.8029 28.2764 70.2729 27.8863L70.7611 26.8555C71.1888 27.1898 71.6677 27.4406 72.1977 27.6077C72.7277 27.7749 73.2623 27.8585 73.8016 27.8585C74.5826 27.8585 75.2382 27.696 75.7682 27.3709C76.2981 27.0366 76.5631 26.5816 76.5631 26.0058C76.5631 25.5136 76.3632 25.1375 75.9634 24.8775C75.5636 24.6081 75.0011 24.4735 74.2758 24.4735H72.1V23.3451H74.1782C74.8011 23.3451 75.2847 23.2198 75.6287 22.969C75.982 22.709 76.1587 22.3515 76.1587 21.8964C76.1587 21.3857 75.9309 20.9817 75.4753 20.6845C75.0197 20.3873 74.4432 20.2388 73.7458 20.2388C73.2902 20.2388 72.8253 20.3038 72.3511 20.4338C71.8862 20.5638 71.4445 20.7588 71.0261 21.0188L70.5798 19.8766C71.0726 19.598 71.5933 19.389 72.1419 19.2497C72.6905 19.1104 73.2391 19.0408 73.7876 19.0408C74.4757 19.0408 75.108 19.1476 75.6845 19.3612C76.261 19.5748 76.7166 19.8859 77.0513 20.2945C77.3953 20.7031 77.5673 21.1814 77.5673 21.7293C77.5673 22.2215 77.4279 22.6533 77.1489 23.0248C76.8793 23.3962 76.5027 23.6748 76.0192 23.8606Z" fill="black"/>
<path d="M83.2662 21.4925C84.289 21.4925 85.07 21.7432 85.6093 22.2447C86.1579 22.7462 86.4322 23.4937 86.4322 24.4874V28.945H85.163V27.9699C84.9399 28.3135 84.6191 28.5782 84.2007 28.7639C83.7915 28.9404 83.3034 29.0286 82.7362 29.0286C81.9087 29.0286 81.2439 28.8289 80.7418 28.4296C80.249 28.0303 80.0026 27.5056 80.0026 26.8555C80.0026 26.2054 80.2397 25.6854 80.7139 25.2954C81.1881 24.896 81.9412 24.6964 82.9733 24.6964H85.0933V24.4317C85.0933 23.8559 84.9259 23.4148 84.5912 23.1083C84.2565 22.8019 83.7637 22.6486 83.1128 22.6486C82.6758 22.6486 82.2481 22.7229 81.8296 22.8715C81.4112 23.0108 81.0579 23.2012 80.7697 23.4427L80.2118 22.4397C80.593 22.1332 81.0486 21.9011 81.5786 21.7432C82.1086 21.576 82.6711 21.4925 83.2662 21.4925ZM82.9594 27.9978C83.4708 27.9978 83.9124 27.8863 84.2843 27.6635C84.6563 27.4313 84.9259 27.1063 85.0933 26.6884V25.6575H83.0291C81.8947 25.6575 81.3275 26.0383 81.3275 26.7998C81.3275 27.1713 81.4717 27.4638 81.7599 27.6774C82.0481 27.891 82.448 27.9978 82.9594 27.9978Z" fill="black"/>
<path d="M94.8405 22.7322H90.7401V28.945H89.4011V21.5621H94.8405V22.7322Z" fill="black"/>
<path d="M100.688 21.4925C101.404 21.4925 102.046 21.6503 102.613 21.9661C103.18 22.2818 103.622 22.7229 103.938 23.2894C104.263 23.8559 104.426 24.5106 104.426 25.2536C104.426 25.9965 104.263 26.6558 103.938 27.2316C103.622 27.7981 103.18 28.2392 102.613 28.555C102.046 28.8707 101.404 29.0286 100.688 29.0286C100.158 29.0286 99.6702 28.9264 99.2239 28.7221C98.7869 28.5178 98.415 28.2207 98.1081 27.8306V31.6474H96.7692V21.5621H98.0523V22.7322C98.3499 22.3236 98.7264 22.0172 99.1821 21.8128C99.6377 21.5993 100.14 21.4925 100.688 21.4925ZM100.577 27.8585C101.051 27.8585 101.474 27.7517 101.846 27.5381C102.227 27.3152 102.525 27.0087 102.739 26.6187C102.962 26.2194 103.073 25.7643 103.073 25.2536C103.073 24.7428 102.962 24.2924 102.739 23.9023C102.525 23.503 102.227 23.1966 101.846 22.983C101.474 22.7694 101.051 22.6626 100.577 22.6626C100.112 22.6626 99.6888 22.774 99.3076 22.9969C98.9357 23.2105 98.6381 23.5123 98.415 23.9023C98.2011 24.2924 98.0942 24.7428 98.0942 25.2536C98.0942 25.7643 98.2011 26.2194 98.415 26.6187C98.6288 27.0087 98.9264 27.3152 99.3076 27.5381C99.6888 27.7517 100.112 27.8585 100.577 27.8585Z" fill="black"/>
<path d="M113.322 21.5621L109.738 29.6833C109.422 30.4355 109.05 30.9649 108.622 31.2713C108.204 31.5778 107.697 31.731 107.102 31.731C106.739 31.731 106.386 31.6707 106.042 31.5499C105.707 31.4385 105.428 31.2713 105.205 31.0485L105.777 30.0455C106.158 30.4077 106.6 30.5888 107.102 30.5888C107.427 30.5888 107.697 30.5005 107.911 30.3241C108.134 30.1569 108.334 29.8644 108.51 29.4465L108.747 28.9311L105.484 21.5621H106.879L109.459 27.4684L112.011 21.5621H113.322Z" fill="black"/>
<path d="M119.077 25.1003C119.569 25.2303 119.951 25.4393 120.22 25.7272C120.49 26.0151 120.625 26.3726 120.625 26.7998C120.625 27.2363 120.476 27.6263 120.178 27.9699C119.881 28.3042 119.467 28.5689 118.937 28.7639C118.417 28.9497 117.831 29.0425 117.18 29.0425C116.631 29.0425 116.092 28.9729 115.562 28.8336C115.041 28.685 114.576 28.476 114.167 28.2067L114.572 27.1898C114.925 27.4127 115.33 27.5892 115.785 27.7192C116.241 27.8399 116.701 27.9003 117.166 27.9003C117.798 27.9003 118.3 27.7935 118.672 27.5799C119.053 27.357 119.244 27.0598 119.244 26.6884C119.244 26.3447 119.091 26.0801 118.784 25.8943C118.486 25.7086 118.063 25.6157 117.515 25.6157H116.162V24.6546H117.417C117.919 24.6546 118.314 24.5663 118.602 24.3899C118.891 24.2135 119.035 23.972 119.035 23.6655C119.035 23.3312 118.863 23.0712 118.519 22.8855C118.184 22.6997 117.728 22.6069 117.152 22.6069C116.417 22.6069 115.641 22.7972 114.823 23.178L114.46 22.1472C115.362 21.6921 116.306 21.4646 117.291 21.4646C117.887 21.4646 118.421 21.5482 118.895 21.7153C119.37 21.8825 119.741 22.1193 120.011 22.4258C120.281 22.7322 120.416 23.0805 120.416 23.4705C120.416 23.8327 120.295 24.1577 120.053 24.4456C119.811 24.7335 119.486 24.9517 119.077 25.1003Z" fill="black"/>
<path d="M123.218 21.5621H124.557V26.9391L129.09 21.5621H130.303V28.945H128.964V23.568L124.446 28.945H123.218V21.5621Z" fill="black"/>
<path d="M138.969 22.7322H136.264V28.945H134.925V22.7322H132.219V21.5621H138.969V22.7322Z" fill="black"/>
<path d="M147.25 25.2954C147.25 25.3975 147.241 25.5322 147.222 25.6993H141.225C141.309 26.3494 141.592 26.8741 142.076 27.2734C142.569 27.6635 143.178 27.8585 143.903 27.8585C144.786 27.8585 145.497 27.5613 146.037 26.967L146.776 27.8306C146.441 28.2207 146.023 28.5178 145.521 28.7221C145.028 28.9264 144.475 29.0286 143.861 29.0286C143.08 29.0286 142.387 28.8707 141.783 28.555C141.178 28.2299 140.709 27.7795 140.374 27.2038C140.049 26.628 139.886 25.9779 139.886 25.2536C139.886 24.5385 140.044 23.8931 140.36 23.3173C140.686 22.7415 141.127 22.2958 141.685 21.98C142.252 21.655 142.889 21.4925 143.596 21.4925C144.303 21.4925 144.93 21.655 145.479 21.98C146.037 22.2958 146.469 22.7415 146.776 23.3173C147.092 23.8931 147.25 24.5524 147.25 25.2954ZM143.596 22.6208C142.954 22.6208 142.415 22.8158 141.978 23.2058C141.55 23.5959 141.299 24.1067 141.225 24.7382H145.967C145.893 24.1159 145.637 23.6098 145.2 23.2198C144.772 22.8205 144.238 22.6208 143.596 22.6208Z" fill="black"/>
<path d="M159.224 25.1143C160.181 25.3557 160.66 25.9547 160.66 26.9112C160.66 27.5613 160.414 28.0628 159.921 28.4157C159.438 28.7686 158.712 28.945 157.745 28.945H154.189V21.5621H157.62C158.494 21.5621 159.177 21.7293 159.67 22.0636C160.163 22.3886 160.409 22.853 160.409 23.4566C160.409 23.8466 160.302 24.1856 160.088 24.4735C159.884 24.7521 159.596 24.9657 159.224 25.1143ZM155.5 24.7382H157.508C158.02 24.7382 158.405 24.6453 158.666 24.4595C158.935 24.2738 159.07 24.0045 159.07 23.6516C159.07 22.9458 158.55 22.5929 157.508 22.5929H155.5V24.7382ZM157.648 27.9142C158.205 27.9142 158.624 27.826 158.903 27.6495C159.182 27.4731 159.321 27.1991 159.321 26.8277C159.321 26.4469 159.191 26.1637 158.931 25.9779C158.68 25.7922 158.28 25.6993 157.731 25.6993H155.5V27.9142H157.648Z" fill="black"/>
</svg>
