<svg width="76" height="99" viewBox="0 0 76 99" fill="none" xmlns="http://www.w3.org/2000/svg">
<rect x="1" y="20" width="74" height="62" rx="2" stroke="black" stroke-width="2"/>
<rect x="1" y="-1" width="49" height="19" rx="2" transform="matrix(1 0 0 -1 13 19)" stroke="black" stroke-width="2"/>
<rect x="1" y="-1" width="36" height="31" rx="2" transform="matrix(1 0 0 -1 8 61)" stroke="#0000AF" stroke-width="2"/>
<rect x="1" y="-1" width="59" height="16" rx="2" transform="matrix(1 0 0 -1 8 97)" stroke="black" stroke-width="2"/>
<path d="M22.5 10.5H31" stroke="#0000AF" stroke-width="2" stroke-linecap="round"/>
<path d="M53 46H58" stroke="#0000AF" stroke-width="2" stroke-linecap="round"/>
<path d="M63 46H68" stroke="#0000AF" stroke-width="2" stroke-linecap="round"/>
<path d="M53 54H58" stroke="#0000AF" stroke-width="2" stroke-linecap="round"/>
<path d="M63 54H68" stroke="#0000AF" stroke-width="2" stroke-linecap="round"/>
<path d="M53 62H58" stroke="#0000AF" stroke-width="2" stroke-linecap="round"/>
<path d="M63 62H68" stroke="#0000AF" stroke-width="2" stroke-linecap="round"/>
<path d="M37 10L56 10" stroke="#0000AF" stroke-width="2" stroke-linecap="round"/>
<path d="M19 73H38" stroke="#0000AF" stroke-width="2" stroke-linecap="round"/>
</svg>
