<svg width="83" height="101" viewBox="0 0 83 101" fill="none" xmlns="http://www.w3.org/2000/svg">
<path fill-rule="evenodd" clip-rule="evenodd" d="M30 65.2H80.3V34H30V65.2ZM30 67.2H80.3C81.4 67.2 82.3 66.3 82.3 65.2V34C82.3 32.9 81.4 32 80.3 32H30C28.9 32 28 32.9 28 34V65.2C28 66.3 28.9 67.2 30 67.2Z" fill="black"/>
<path fill-rule="evenodd" clip-rule="evenodd" d="M70.5 41C69.1193 41 68 42.1193 68 43.5C68 44.8807 69.1193 46 70.5 46C71.8807 46 73 44.8807 73 43.5C73 42.1193 71.8807 41 70.5 41ZM66 43.5C66 41.0147 68.0147 39 70.5 39C72.9853 39 75 41.0147 75 43.5C75 45.9853 72.9853 48 70.5 48C68.0147 48 66 45.9853 66 43.5Z" fill="#0000AF"/>
<path fill-rule="evenodd" clip-rule="evenodd" d="M65.5 41C64.1193 41 63 42.1193 63 43.5C63 44.8807 64.1193 46 65.5 46C66.8807 46 68 44.8807 68 43.5C68 42.1193 66.8807 41 65.5 41ZM61 43.5C61 41.0147 63.0147 39 65.5 39C67.9853 39 70 41.0147 70 43.5C70 45.9853 67.9853 48 65.5 48C63.0147 48 61 45.9853 61 43.5Z" fill="#0000AF"/>
<path fill-rule="evenodd" clip-rule="evenodd" d="M44 46V41H36V46H44ZM35.2245 48H44.7755C45.3878 48 46 47.5263 46 46.8158V40.1842C46 39.4737 45.5102 39 44.7755 39H35.2245C34.4898 39 34 39.4737 34 40.1842V46.8158C34 47.5263 34.4898 48 35.2245 48Z" fill="#0000AF"/>
<path fill-rule="evenodd" clip-rule="evenodd" d="M34 61C34 60.4477 34.4477 60 35 60L65 60C65.5523 60 66 60.4477 66 61C66 61.5523 65.5523 62 65 62L35 62C34.4477 62 34 61.5523 34 61Z" fill="#0000AF"/>
<path fill-rule="evenodd" clip-rule="evenodd" d="M9 94C9 93.4477 9.44772 93 10 93L40 93C40.5523 93 41 93.4477 41 94C41 94.5523 40.5523 95 40 95L10 95C9.44772 95 9 94.5523 9 94Z" fill="#0000AF"/>
<path fill-rule="evenodd" clip-rule="evenodd" d="M16 13C16 12.4477 16.4477 12 17 12L35 12C35.5523 12 36 12.4477 36 13C36 13.5523 35.5523 14 35 14L17 14C16.4477 14 16 13.5523 16 13Z" fill="#0000AF"/>
<path fill-rule="evenodd" clip-rule="evenodd" d="M34 56C34 55.4477 34.4477 55 35 55H50C50.5523 55 51 55.4477 51 56C51 56.5523 50.5523 57 50 57H35C34.4477 57 34 56.5523 34 56Z" fill="#0000AF"/>
<path fill-rule="evenodd" clip-rule="evenodd" d="M33.1575 6.99701H33.1674C35.2147 6.99701 36.9522 5.34027 36.9522 3.21236V2.14277H44.0993C46.2691 2.14277 47.898 3.82018 47.8999 5.70753V5.71087L47.7821 34H49.7821L49.8999 5.71087C49.8999 2.64128 47.2971 0.142772 44.0993 0.142772H36.737C35.7703 0.142772 34.9522 0.928016 34.9522 1.92742V3.21236C34.9522 4.21176 34.1342 4.99701 33.1674 4.99701L18.8147 4.92562C17.848 4.92562 17.0299 4.14038 17.0299 3.14098V1.85603C17.0299 0.785244 16.2119 0 15.2451 0H12.6423H6.17242C2.97466 0 0.371832 2.4985 0.371832 5.5681L0 94.8718C0 97.9414 2.60283 100.44 5.80059 100.44L43.7275 100.583C46.9252 100.583 49.5281 98.0842 49.5281 95.0146L49.6489 66H47.6489L47.5281 95.0062V95.0146C47.5281 96.9024 45.9002 98.581 43.7306 98.5827H43.7275L5.80812 98.4399H5.80059C3.63092 98.4399 2.00212 96.7627 2 94.8755L2 94.8718L2.37181 5.57642H2.37183V5.5681C2.37183 3.67939 4.00134 2 6.17242 2H12.6423H15.0299V3.14098C15.0299 5.26685 16.7642 6.92245 18.8088 6.92562L18.8147 6.92562L33.1575 6.99701Z" fill="black"/>
</svg>
