<svg width="103" height="100" viewBox="0 0 103 100" fill="none" xmlns="http://www.w3.org/2000/svg">
<path d="M34.6749 40.1596V40.6596H35.1749H45.2348H45.7348V40.1596V30.2834V29.7834H45.2348H35.1749H34.6749V30.2834V40.1596ZM47.2241 43.5659H33.1856C32.3543 43.5659 31.6963 42.9068 31.6963 42.1128V28.3303C31.6963 27.5362 32.3543 26.8771 33.1856 26.8771H47.2241C48.0554 26.8771 48.7134 27.5362 48.7134 28.3303V42.1128C48.7134 42.9068 48.0554 43.5659 47.2241 43.5659Z" fill="#0000AF" stroke="#F0F0F5"/>
<path d="M57.0162 40.1596V40.6596H57.5162H67.5761H68.0761V40.1596V30.2834V29.7834H67.5761H57.5162H57.0162V30.2834V40.1596ZM69.5654 43.5659H55.5269C54.6956 43.5659 54.0376 42.9068 54.0376 42.1128V28.3303C54.0376 27.5362 54.6956 26.8771 55.5269 26.8771H69.5654C70.3967 26.8771 71.0547 27.5362 71.0547 28.3303V42.1128C71.0547 42.9068 70.3967 43.5659 69.5654 43.5659Z" fill="#0000AF" stroke="#F0F0F5"/>
<path d="M34.6749 61.8997V62.3997H35.1749H45.2348H45.7348V61.8997V52.0227V51.5227H45.2348H35.1749H34.6749V52.0227V61.8997ZM47.2241 65.306H33.1856C32.3543 65.306 31.6963 64.6469 31.6963 63.8528V50.0696C31.6963 49.2762 32.3544 48.6165 33.1856 48.6165H47.2241C48.0553 48.6165 48.7134 49.2762 48.7134 50.0696V63.8528C48.7134 64.6469 48.0554 65.306 47.2241 65.306Z" fill="#0000AF" stroke="#F0F0F5"/>
<path d="M57.0162 61.8997V62.3997H57.5162H67.5761H68.0761V61.8997V52.0227V51.5227H67.5761H57.5162H57.0162V52.0227V61.8997ZM69.5654 65.306H55.5269C54.6956 65.306 54.0376 64.6469 54.0376 63.8528V50.0696C54.0376 49.2762 54.6957 48.6165 55.5269 48.6165H69.5654C70.3966 48.6165 71.0547 49.2762 71.0547 50.0696V63.8528C71.0547 64.6469 70.3967 65.306 69.5654 65.306Z" fill="#0000AF" stroke="#F0F0F5"/>
<path d="M53.8291 93.446H48.9219C48.0906 93.446 47.4326 92.787 47.4326 91.9929C47.4326 91.1989 48.0906 90.5398 48.9219 90.5398H53.8291C54.6604 90.5398 55.3184 91.1989 55.3184 91.9929C55.3184 92.787 54.6604 93.446 53.8291 93.446Z" fill="black" stroke="#F0F0F5"/>
<mask id="path-6-inside-1" fill="white">
<path fill-rule="evenodd" clip-rule="evenodd" d="M31.8117 0H70.9393C75.9125 0 79.9595 3.97262 79.9595 8.85618V91.1436C79.9595 96.0272 75.9125 99.9998 70.9393 99.9998H31.8117C26.8385 99.9998 22.7915 96.0272 22.7915 91.1436V8.85618C22.7915 3.97262 26.8385 0 31.8117 0ZM70.9393 3.90624H31.8117C29.0321 3.90624 26.7701 6.12716 26.7701 8.85618V10.1517H28.5115V10.15H34.5115V10.1517H75.9809V8.85618C75.9809 6.12716 73.7189 3.90624 70.9393 3.90624ZM28.5115 14.0579V14.06H34.5115V14.0579H75.9809V83.9865H26.7701V14.0579H28.5115ZM70.9393 96.0936C73.7189 96.0936 75.9809 93.8727 75.9809 91.1436V87.8927H26.7701V91.1436C26.7701 93.8727 29.0321 96.0936 31.8117 96.0936H70.9393Z"/>
</mask>
<path fill-rule="evenodd" clip-rule="evenodd" d="M31.8117 0H70.9393C75.9125 0 79.9595 3.97262 79.9595 8.85618V91.1436C79.9595 96.0272 75.9125 99.9998 70.9393 99.9998H31.8117C26.8385 99.9998 22.7915 96.0272 22.7915 91.1436V8.85618C22.7915 3.97262 26.8385 0 31.8117 0ZM70.9393 3.90624H31.8117C29.0321 3.90624 26.7701 6.12716 26.7701 8.85618V10.1517H28.5115V10.15H34.5115V10.1517H75.9809V8.85618C75.9809 6.12716 73.7189 3.90624 70.9393 3.90624ZM28.5115 14.0579V14.06H34.5115V14.0579H75.9809V83.9865H26.7701V14.0579H28.5115ZM70.9393 96.0936C73.7189 96.0936 75.9809 93.8727 75.9809 91.1436V87.8927H26.7701V91.1436C26.7701 93.8727 29.0321 96.0936 31.8117 96.0936H70.9393Z" fill="black"/>
<path d="M26.7701 10.1517H25.7701V11.1517H26.7701V10.1517ZM28.5115 10.1517V11.1517H29.5115V10.1517H28.5115ZM28.5115 10.15V9.15002H27.5115V10.15H28.5115ZM34.5115 10.15H35.5115V9.15002H34.5115V10.15ZM34.5115 10.1517H33.5115V11.1517H34.5115V10.1517ZM75.9809 10.1517V11.1517H76.9809V10.1517H75.9809ZM28.5115 14.06H27.5115V15.06H28.5115V14.06ZM28.5115 14.0579H29.5115V13.0579H28.5115V14.0579ZM34.5115 14.06V15.06H35.5115V14.06H34.5115ZM34.5115 14.0579V13.0579H33.5115V14.0579H34.5115ZM75.9809 14.0579H76.9809V13.0579H75.9809V14.0579ZM75.9809 83.9865V84.9865H76.9809V83.9865H75.9809ZM26.7701 83.9865H25.7701V84.9865H26.7701V83.9865ZM26.7701 14.0579V13.0579H25.7701V14.0579H26.7701ZM75.9809 87.8927H76.9809V86.8927H75.9809V87.8927ZM26.7701 87.8927V86.8927H25.7701V87.8927H26.7701ZM70.9393 -1H31.8117V1H70.9393V-1ZM80.9595 8.85618C80.9595 3.40306 76.4474 -1 70.9393 -1V1C75.3777 1 78.9595 4.54218 78.9595 8.85618H80.9595ZM80.9595 91.1436V8.85618H78.9595V91.1436H80.9595ZM70.9393 101C76.4474 101 80.9595 96.5967 80.9595 91.1436H78.9595C78.9595 95.4576 75.3777 98.9998 70.9393 98.9998V101ZM31.8117 101H70.9393V98.9998H31.8117V101ZM21.7915 91.1436C21.7915 96.5967 26.3036 101 31.8117 101V98.9998C27.3733 98.9998 23.7915 95.4576 23.7915 91.1436H21.7915ZM21.7915 8.85618V91.1436H23.7915V8.85618H21.7915ZM31.8117 -1C26.3036 -1 21.7915 3.40306 21.7915 8.85618H23.7915C23.7915 4.54218 27.3733 1 31.8117 1V-1ZM31.8117 4.90624H70.9393V2.90624H31.8117V4.90624ZM27.7701 8.85618C27.7701 6.69666 29.567 4.90624 31.8117 4.90624V2.90624C28.4972 2.90624 25.7701 5.55765 25.7701 8.85618H27.7701ZM27.7701 10.1517V8.85618H25.7701V10.1517H27.7701ZM28.5115 9.15165H26.7701V11.1517H28.5115V9.15165ZM29.5115 10.1517V10.15H27.5115V10.1517H29.5115ZM28.5115 11.15H34.5115V9.15002H28.5115V11.15ZM33.5115 10.15V10.1517H35.5115V10.15H33.5115ZM75.9809 9.15165H34.5115V11.1517H75.9809V9.15165ZM74.9809 8.85618V10.1517H76.9809V8.85618H74.9809ZM70.9393 4.90624C73.184 4.90624 74.9809 6.69666 74.9809 8.85618H76.9809C76.9809 5.55765 74.2538 2.90624 70.9393 2.90624V4.90624ZM29.5115 14.06V14.0579H27.5115V14.06H29.5115ZM34.5115 13.06H28.5115V15.06H34.5115V13.06ZM33.5115 14.0579V14.06H35.5115V14.0579H33.5115ZM34.5115 15.0579H75.9809V13.0579H34.5115V15.0579ZM74.9809 14.0579V83.9865H76.9809V14.0579H74.9809ZM75.9809 82.9865H26.7701V84.9865H75.9809V82.9865ZM27.7701 83.9865V14.0579H25.7701V83.9865H27.7701ZM26.7701 15.0579H28.5115V13.0579H26.7701V15.0579ZM74.9809 91.1436C74.9809 93.3031 73.184 95.0936 70.9393 95.0936V97.0936C74.2538 97.0936 76.9809 94.4422 76.9809 91.1436H74.9809ZM74.9809 87.8927V91.1436H76.9809V87.8927H74.9809ZM26.7701 88.8927H75.9809V86.8927H26.7701V88.8927ZM27.7701 91.1436V87.8927H25.7701V91.1436H27.7701ZM31.8117 95.0936C29.567 95.0936 27.7701 93.3031 27.7701 91.1436H25.7701C25.7701 94.4422 28.4972 97.0936 31.8117 97.0936V95.0936ZM70.9393 95.0936H31.8117V97.0936H70.9393V95.0936Z" fill="#F0F0F5" mask="url(#path-6-inside-1)"/>
</svg>
