<svg width="156" height="152" viewBox="0 0 156 152" fill="none" xmlns="http://www.w3.org/2000/svg">
<g clip-path="url(#clip0)">
<path d="M109.6 151.2L58.4999 151C52.3999 151 47.3999 146 47.3999 139.8L47.8999 11.6C47.8999 5.4 52.8999 0.5 59.0999 0.5L110.2 0.7C116.3 0.7 121.3 5.7 121.3 11.9L120.8 140.1C120.8 146.2 115.7 151.2 109.6 151.2Z" stroke="black" stroke-miterlimit="10"/>
<path d="M110.2 5.2001H100.3C98.9999 5.2001 97.8999 6.3001 97.8999 7.7001V9.5001C97.8999 10.9001 96.7999 12.0001 95.4999 12.0001L76.1999 11.9001C74.8999 11.9001 73.7999 10.8001 73.7999 9.4001V7.6001C73.7999 6.2001 72.6999 5.1001 71.3999 5.1001H67.8999H59.1999C54.8999 5.1001 51.3999 8.6001 51.3999 12.9001L50.8999 138C50.8999 142.3 54.3999 145.8 58.6999 145.8L109.7 146C114 146 117.5 142.5 117.5 138.2L117.9 13.0001C117.9 8.7001 114.5 5.2001 110.2 5.2001Z" stroke="black" stroke-miterlimit="10"/>
<path d="M107.4 133.5L63.4001 133.3C62.9001 133.3 62.6001 132.9 62.6001 132.3V122.4C62.6001 121.9 63.0001 121.5 63.4001 121.5L107.4 121.7C107.9 121.7 108.2 122.1 108.2 122.7V132.6C108.2 133.1 107.8 133.6 107.4 133.5Z" stroke="#0000AF" stroke-miterlimit="10"/>
<path d="M95.3 80H73.3C72.2 80 71.3 79.1 71.3 78V56C71.3 54.9 72.2 54 73.3 54H95.3C96.4 54 97.3 54.9 97.3 56V78C97.3 79.1 96.4 80 95.3 80Z" fill="#0000AF"/>
<path d="M95.3 47.7H73.3C72.2 47.7 71.3 46.8 71.3 45.7V23.7C71.3 22.6 72.2 21.7 73.3 21.7H95.3C96.4 21.7 97.3 22.6 97.3 23.7V45.7C97.3 46.9 96.4 47.7 95.3 47.7Z" fill="#E8E8E8"/>
<path d="M95.3 112H73.3C72.2 112 71.3 111.1 71.3 110V88C71.3 86.9 72.2 86 73.3 86H95.3C96.4 86 97.3 86.9 97.3 88V110C97.3 111.1 96.4 112 95.3 112Z" fill="#E8E8E8"/>
<path d="M119.6 82.7999C124.681 82.7999 128.8 78.6809 128.8 73.5999C128.8 68.5189 124.681 64.3999 119.6 64.3999C114.519 64.3999 110.4 68.5189 110.4 73.5999C110.4 78.6809 114.519 82.7999 119.6 82.7999Z" fill="#0000AF"/>
<path d="M119 76.8C118.9 76.8 118.7 76.8 118.6 76.7L115.5 74.1C115.2 73.9 115.2 73.5 115.4 73.2C115.6 72.9 116 72.9 116.3 73.1L118.9 75.3L122.7 70.6C122.9 70.3 123.3 70.3 123.6 70.5C123.9 70.7 123.9 71.1 123.7 71.4L119.5 76.5C119.4 76.7 119.3 76.8 119 76.8C119.1 76.8 119.1 76.8 119 76.8Z" fill="white"/>
<path d="M155 37.2999L132 32.2L131.9 31.4L150.2 21.7L150.8 21.9L155.5 36.7L155 37.2999ZM133.3 31.7L154.4 36.4L150.1 22.7999L133.3 31.7Z" fill="black"/>
<path d="M61.7999 143.6C60.5999 146.2 59.0999 148.7 57.2999 150.9H18.6999C16.2999 147.9 13.8999 144.7 12.8999 141C11.8999 137.2 12.6999 132.6 15.7999 130.2C17.9999 128.6 20.9999 128.3 23.3999 129.5C25.7999 130.7 27.4999 133.2 27.5999 135.9C28.0999 129.8 30.3999 123.7 34.6999 119.4C38.9999 115.1 45.4999 112.7 51.3999 114.3C57.0999 115.8 61.5999 120.7 63.3999 126.3C64.9999 132 64.1999 138.2 61.7999 143.6Z" fill="#FFBB00"/>
<path d="M0.6 151.1L0 150.6C0.4 150.2 9.4 140.5 16.1 142.4C18.7 143.1 20.5 145.5 21.6 149.5C22.3 147.7 23.8 144.3 26.1 141C30.6 134.6 36 131.5 41.9 131.9L41.8 132.8C28.3 131.8 22 150.9 21.9 151.1H21.1C20.2 146.6 18.4 144 15.9 143.3C9.7 141.5 0.7 151 0.6 151.1Z" fill="black"/>
<path d="M23.6 55.5C18.4 55.5 14.2 51.2999 14.2 46.0999C14.2 40.8999 18.4 36.7 23.6 36.7C28.8 36.7 33 40.8999 33 46.0999C33 51.2999 28.8 55.5 23.6 55.5ZM23.6 37.5999C18.9 37.5999 15.1 41.3999 15.1 46.0999C15.1 50.7999 18.9 54.5999 23.6 54.5999C28.3 54.5999 32.0999 50.7999 32.0999 46.0999C32.0999 41.3999 28.3 37.5999 23.6 37.5999Z" fill="black"/>
</g>
<defs>
<clipPath id="clip0">
<rect width="155.5" height="151.7" fill="white"/>
</clipPath>
</defs>
</svg>
