<svg width="139" height="153" viewBox="0 0 139 153" fill="none" xmlns="http://www.w3.org/2000/svg">
<path d="M21.5999 116C21.5999 116 10.1999 114.5 8.7999 104.4C7.3999 94.3 6.5999 85.4 3.1999 80.3C-0.200098 75.3 -1.4001 63.5 5.9999 62.7C13.3999 61.9 15.2999 75.6 15.2999 75.6C15.2999 75.6 17.6999 88.5 24.1999 91.5C30.7999 94.6 25.4999 113.8 21.5999 116Z" stroke="#1F120A" stroke-miterlimit="10" stroke-linecap="round"/>
<path d="M10.2998 74.8999L26.2998 129.7" stroke="#1F120A" stroke-miterlimit="10" stroke-linecap="round"/>
<path d="M3.3999 76.6001L12.8999 84.1001" stroke="#1F120A" stroke-miterlimit="10" stroke-linecap="round"/>
<path d="M9.7998 96.3999L18.0998 102" stroke="#1F120A" stroke-miterlimit="10" stroke-linecap="round"/>
<path d="M23.0998 95.3L19.2998 105.5" stroke="#1F120A" stroke-miterlimit="10" stroke-linecap="round"/>
<path d="M15.9998 84.7L14.7998 89.7" stroke="#1F120A" stroke-miterlimit="10" stroke-linecap="round"/>
<path d="M138.5 37.2L122.6 54.5999L121.9 54.2999L122.7 33.5999L123.2 33.2L138.3 36.5L138.5 37.2ZM122.7 53.0999L137.3 37.0999L123.4 34L122.7 53.0999Z" fill="black"/>
<path d="M94.4998 151.2L43.3998 151C37.2998 151 32.2998 146 32.2998 139.8L32.7998 11.6C32.7998 5.4 37.7998 0.5 43.9998 0.5L95.0998 0.7C101.2 0.7 106.2 5.7 106.2 11.9L105.7 140.1C105.7 146.2 100.7 151.2 94.4998 151.2Z" stroke="black" stroke-miterlimit="10"/>
<path d="M95.0999 5.2H85.1999C83.8999 5.2 82.8 6.3 82.8 7.7V9.5C82.8 10.9 81.7 12 80.4 12L61 11.8C59.7 11.8 58.5999 10.7 58.5999 9.3V7.5C58.5999 6.1 57.5 5 56.2 5H52.7H44C39.7 5 36.2 8.5 36.2 12.8L35.7 137.9C35.7 142.2 39.2 145.7 43.5 145.7L94.5 145.9C98.8 145.9 102.3 142.4 102.3 138.1L102.9 13C102.9 8.7 99.3999 5.2 95.0999 5.2Z" stroke="black" stroke-miterlimit="10"/>
<path d="M92.3 133.5L48.3 133.3C47.8 133.3 47.5 132.9 47.5 132.3V122.4C47.5 121.9 47.9 121.5 48.3 121.5L92.3 121.7C92.8 121.7 93.1 122.1 93.1 122.7V132.6C93.1 133.1 92.8 133.6 92.3 133.5Z" stroke="#0000AF" stroke-miterlimit="10"/>
<path d="M72.4998 74.2C72.8998 74.2 73.1998 73.9 73.1998 73.5C73.1998 73.1 72.8998 72.8 72.4998 72.8C72.0998 72.8 71.7998 73.1 71.7998 73.5C71.7998 73.9 72.0998 74.2 72.4998 74.2Z" fill="black"/>
<path d="M56.7999 74.2C57.1999 74.2 57.4999 73.9 57.4999 73.5C57.4999 73.1 57.1999 72.8 56.7999 72.8C56.3999 72.8 56.0999 73.1 56.0999 73.5C56.0999 73.9 56.3999 74.2 56.7999 74.2Z" fill="black"/>
<path d="M52.0998 62.7C52.4998 62.7 52.7998 62.4 52.7998 62V55.0999H59.6998C60.0998 55.0999 60.3998 54.8 60.3998 54.4C60.3998 54 60.0998 53.7 59.6998 53.7H52.0998C51.6998 53.7 51.3998 54 51.3998 54.4V62C51.2998 62.4 51.6998 62.7 52.0998 62.7Z" fill="black"/>
<path d="M60.3999 89.6C60.3999 89.2 60.0999 88.9 59.6999 88.9H52.7999V82C52.7999 81.6 52.4999 81.3 52.0999 81.3C51.6999 81.3 51.3999 81.6 51.3999 82V89.6C51.3999 90 51.6999 90.3 52.0999 90.3H59.6999C59.9999 90.4 60.3999 90 60.3999 89.6Z" fill="black"/>
<path d="M87.3 81.3C86.9 81.3 86.6 81.6 86.6 82V88.9H79.7C79.3 88.9 79 89.2 79 89.6C79 90 79.3 90.3 79.7 90.3H87.3C87.7 90.3 88 90 88 89.6V82C88 81.7 87.7 81.3 87.3 81.3Z" fill="black"/>
<path d="M87.3 53.7H79.7C79.3 53.7 79 54 79 54.4C79 54.8 79.3 55.0999 79.7 55.0999H86.6V62C86.6 62.4 86.9 62.7 87.3 62.7C87.7 62.7 88 62.4 88 62V54.4C88 54 87.7 53.7 87.3 53.7Z" fill="black"/>
<path d="M56.0999 84.9C56.0999 85.3 56.3999 85.6 56.7999 85.6H63.9999C64.3999 85.6 64.6999 85.3 64.6999 84.9V77.7C64.6999 77.3 64.3999 77 63.9999 77H56.7999C56.3999 77 56.0999 77.3 56.0999 77.7V84.9ZM57.4999 78.5H63.1999V84.2H57.4999V78.5Z" fill="black"/>
<path d="M63.9 58.3999H56.7C56.3 58.3999 56 58.6999 56 59.0999V66.2999C56 66.6999 56.3 66.9999 56.7 66.9999H63.9C64.3 66.9999 64.6 66.6999 64.6 66.2999V59.0999C64.7 58.7999 64.3 58.3999 63.9 58.3999ZM63.2 65.5999H57.5V59.8999H63.2V65.5999Z" fill="black"/>
<path d="M83.3 59.2C83.3 58.8 83 58.5 82.6 58.5H75.4C75 58.5 74.7 58.8 74.7 59.2V66.4C74.7 66.8 75 67.1 75.4 67.1H82.6C83 67.1 83.3 66.8 83.3 66.4V59.2ZM81.8 65.6H76.1V59.9H81.8V65.6Z" fill="black"/>
<path d="M83.3 84.9V77.7C83.3 77.3 83 77 82.6 77H75.4C75 77 74.7 77.3 74.7 77.7V84.9C74.7 85.3 75 85.6 75.4 85.6H82.6C82.9 85.6 83.3 85.3 83.3 84.9ZM81.8 84.2H76.1V78.5H81.8V84.2Z" fill="black"/>
<path d="M61.1 79.8999H59.7C59.3 79.8999 59 80.1999 59 80.5999V81.9999C59 82.3999 59.3 82.6999 59.7 82.6999H61.1C61.5 82.6999 61.8 82.3999 61.8 81.9999V80.5999C61.8 80.1999 61.5 79.8999 61.1 79.8999Z" fill="black"/>
<path d="M59.5999 64.2H60.9999C61.3999 64.2 61.6999 63.9 61.6999 63.5V62C61.6999 61.6 61.3999 61.3 60.9999 61.3H59.5999C59.1999 61.3 58.8999 61.6 58.8999 62V63.4001C58.8999 63.8001 59.2999 64.2 59.5999 64.2Z" fill="black"/>
<path d="M78.3 64.2H79.7C80.1 64.2 80.4 63.9 80.4 63.5V62C80.4 61.6 80.1 61.3 79.7 61.3H78.3C77.9 61.3 77.6 61.6 77.6 62V63.4001C77.5 63.8001 77.9 64.2 78.3 64.2Z" fill="black"/>
<path d="M78.3 82.8H79.7C80.1 82.8 80.4 82.5 80.4 82.1V80.7C80.4 80.3 80.1 80 79.7 80H78.3C77.9 80 77.6 80.3 77.6 80.7V82.1C77.5 82.5 77.9 82.8 78.3 82.8Z" fill="black"/>
<path d="M58.8999 73.5C58.8999 73.9 59.1999 74.2 59.5999 74.2H68.9999V77.8C68.9999 78.2 69.2999 78.5 69.6999 78.5C70.0999 78.5 70.3999 78.2 70.3999 77.8V73.5C70.3999 73.1 70.0999 72.8 69.6999 72.8H59.6999C59.2999 72.8 58.8999 73.1 58.8999 73.5Z" fill="black"/>
<path d="M63.9 71.2999C64.3 71.2999 64.6 70.9999 64.6 70.5999C64.6 70.1999 64.3 69.8999 63.9 69.8999H56.7C56.3 69.8999 56 70.1999 56 70.5999C56 70.9999 56.3 71.2999 56.7 71.2999H63.9Z" fill="black"/>
<path d="M66.7999 71.2999H69.6999C70.0999 71.2999 70.3999 70.9999 70.3999 70.5999C70.3999 70.1999 70.0999 69.8999 69.6999 69.8999H66.7999C66.3999 69.8999 66.0999 70.1999 66.0999 70.5999C66.0999 70.9999 66.3999 71.2999 66.7999 71.2999Z" fill="black"/>
<path d="M66.7999 58.3999C66.3999 58.3999 66.0999 58.6999 66.0999 59.0999V66.2999C66.0999 66.6999 66.3999 66.9999 66.7999 66.9999H71.7999V70.5999C71.7999 70.9999 72.0999 71.2999 72.4999 71.2999H75.3999C75.7999 71.2999 76.0999 70.9999 76.0999 70.5999C76.0999 70.1999 75.7999 69.8999 75.3999 69.8999H73.2999V66.2999C73.2999 65.8999 72.9999 65.5999 72.5999 65.5999H67.5999V59.1999C67.4999 58.7999 67.1999 58.3999 66.7999 58.3999Z" fill="black"/>
<path d="M82.5999 69.8999H78.2999C77.8999 69.8999 77.5999 70.1999 77.5999 70.5999C77.5999 70.9999 77.8999 71.2999 78.2999 71.2999H82.5999C82.9999 71.2999 83.2999 70.9999 83.2999 70.5999C83.2999 70.1999 82.8999 69.8999 82.5999 69.8999Z" fill="black"/>
<path d="M82.6 72.8H75.4C75 72.8 74.7 73.1 74.7 73.5C74.7 73.9 75 74.2 75.4 74.2H82.6C83 74.2 83.3 73.9 83.3 73.5C83.3 73.1 82.9 72.8 82.6 72.8Z" fill="black"/>
<path d="M69.6999 79.8999H66.7999C66.3999 79.8999 66.0999 80.1999 66.0999 80.5999V84.8999C66.0999 85.2999 66.3999 85.5999 66.7999 85.5999C67.1999 85.5999 67.4999 85.2999 67.4999 84.8999V81.2999H69.5999C69.9999 81.2999 70.2999 80.9999 70.2999 80.5999C70.2999 80.1999 70.0999 79.8999 69.6999 79.8999Z" fill="black"/>
<path d="M71.8 84.2001H69.7C69.3 84.2001 69 84.5001 69 84.9001C69 85.3001 69.3 85.6001 69.7 85.6001H72.6C73 85.6001 73.3 85.3001 73.3 84.9001V76.3001C73.3 75.9001 73 75.6001 72.6 75.6001C72.2 75.6001 71.9 75.9001 71.9 76.3001V84.2001H71.8Z" fill="black"/>
<path d="M72.5 64.2C72.9 64.2 73.2 63.9 73.2 63.5V59.2C73.2 58.8 72.9 58.5 72.5 58.5C72.1 58.5 71.8 58.8 71.8 59.2V62.8H69.7C69.3 62.8 69 63.1 69 63.5C69 63.9 69.3 64.2 69.7 64.2H72.5Z" fill="black"/>
<path d="M57.7998 145C56.5998 147.6 55.0998 150.1 53.2998 152.4H14.2998C11.8998 149.3 9.49978 146.2 8.39978 142.4C7.29978 138.6 8.09978 133.9 11.3998 131.5C13.5998 129.9 16.5998 129.6 19.0998 130.8C21.4998 132 23.1998 134.6 23.2998 137.2C23.7998 131.1 26.0998 124.9 30.3998 120.6C34.6998 116.2 41.2998 113.9 47.2998 115.4C53.0998 116.9 57.5998 121.8 59.3998 127.5C60.9998 133.3 60.1998 139.5 57.7998 145Z" fill="#0000AF"/>
<path d="M36 152.4C36 152.4 70.5 127 70.5 152.4H36Z" fill="#FFBB00"/>
<path d="M22.4998 141L22.2998 140.2C22.7998 140.1 34.4998 137.7 38.3998 142.5C39.8998 144.4 39.9998 147 38.7998 150.5C42.5998 148.1 54.4998 141.4 62.6998 148.3L62.0998 149C52.7998 141.3 38.1998 152 38.0998 152.1L37.3998 151.6C39.0998 147.9 39.0998 145 37.6998 143.2C34.0998 138.7 22.5998 141 22.4998 141Z" fill="black"/>
</svg>
