<svg width="141" height="152" viewBox="0 0 141 152" fill="none" xmlns="http://www.w3.org/2000/svg">
<path d="M94.6 150.9H133.3C135.1 148.6 136.6 146.2 137.8 143.6C140.2 138.2 141 132 139.3 126.3C137.6 120.7 133.1 115.8 127.3 114.3C121.4 112.8 114.9 115.1 110.6 119.4C106.3 123.7 104.1 129.8 103.5 135.9C103.4 133.2 103.1 132.8 100.7 131.6C100.7 131.6 101.3 140.4 100.9 141.7C100.5 143 98.2 149.1 94.2 150.2C90.2 151.4 94.6 150.9 94.6 150.9Z" fill="#FFBB00"/>
<path d="M89.7 151.2L38.6 151C32.5 151 27.5 146 27.5 139.8L28 11.6C28 5.4 33 0.5 39.2 0.5L90.3 0.7C96.4 0.7 101.4 5.7 101.4 11.9L100.9 140.1C100.9 146.2 95.9 151.2 89.7 151.2Z" stroke="black" stroke-miterlimit="10"/>
<path d="M90.3 5.2H80.4C79.1 5.2 78 6.3 78 7.7V9.5C78 10.9 76.9 12 75.6 12L56.3 11.9C55 11.9 53.9 10.8 53.9 9.4V7.6C53.9 6.2 52.8 5.1 51.5 5.1L48 5H39.3C35 5 31.5 8.5 31.5 12.8L31 137.9C31 142.2 34.5 145.7 38.8 145.7L89.8 145.9C94.1 145.9 97.6 142.4 97.6 138.1L98.1 13C98.1 8.7 94.6 5.2 90.3 5.2Z" stroke="black" stroke-miterlimit="10"/>
<path d="M87.5 133.5L43.5 133.3C43 133.3 42.7 132.9 42.7 132.3V122.4C42.7 121.9 43.1 121.5 43.5 121.5L87.5 121.7C88 121.7 88.3 122.1 88.3 122.7V132.6C88.3 133.1 87.9 133.6 87.5 133.5Z" stroke="#0000AF" stroke-miterlimit="10"/>
<path d="M89.3001 69.1999H40.1001C39.0001 69.1999 38.1001 68.2999 38.1001 67.1999V59.2C38.1001 58.1 39.0001 57.2 40.1001 57.2H89.3001C90.4001 57.2 91.3001 58.1 91.3001 59.2V67.1999C91.3001 68.2999 90.4001 69.1999 89.3001 69.1999Z" fill="#E8E8E8"/>
<path d="M89.3001 88.2H40.1001C39.0001 88.2 38.1001 87.3 38.1001 86.2V78.2C38.1001 77.1 39.0001 76.2 40.1001 76.2H89.3001C90.4001 76.2 91.3001 77.1 91.3001 78.2V86.2C91.3001 87.3 90.4001 88.2 89.3001 88.2Z" fill="#E8E8E8"/>
<path d="M121.3 76.9H86.3C85.2 76.9 84.3 76 84.3 74.9V35.2C84.3 34.1 85.2 33.2 86.3 33.2H121.3C122.4 33.2 123.3 34.1 123.3 35.2V74.9C123.3 76 122.4 76.9 121.3 76.9Z" fill="#0000AF"/>
<path d="M123.3 38.7001H84.2999L83.8999 38.3V33.2001L84.2999 32.8H123.3L123.7 33.2001V38.3L123.3 38.7001ZM84.6999 37.8H122.8V33.6H84.6999V37.8Z" fill="black"/>
<path d="M116.9 50.4001H90.7C90.1 50.4001 89.7 50.0001 89.7 49.4001V45.8C89.7 45.2 90.1 44.8 90.7 44.8H117C117.6 44.8 118 45.2 118 45.8V49.4001C117.9 50.0001 117.5 50.4001 116.9 50.4001Z" fill="white"/>
<path d="M116.9 60.9001H90.7C90.1 60.9001 89.7 60.5001 89.7 59.9001V56.3C89.7 55.7 90.1 55.3 90.7 55.3H117C117.6 55.3 118 55.7 118 56.3V59.9001C117.9 60.4001 117.5 60.9001 116.9 60.9001Z" fill="white"/>
<path d="M116.9 71.3H90.7C90.1 71.3 89.7 70.9 89.7 70.3V66.7C89.7 66.1 90.1 65.7 90.7 65.7H117C117.6 65.7 118 66.1 118 66.7V70.3C117.9 70.9 117.5 71.3 116.9 71.3Z" fill="white"/>
<path d="M4.19995 69.7L27.1 135.6" stroke="black" stroke-miterlimit="10"/>
<path d="M4.67334 72.9633C6.91529 72.6454 8.47502 70.5702 8.15711 68.3283C7.83919 66.0863 5.76401 64.5266 3.52206 64.8445C1.28011 65.1624 -0.279631 67.2376 0.0382863 69.4796C0.356204 71.7215 2.43139 73.2813 4.67334 72.9633Z" fill="#FFBB00"/>
<path d="M20.9986 91.9504C23.1387 87.7724 23.758 83.8139 22.3817 83.1089C21.0054 82.4039 18.1547 85.2194 16.0146 89.3974C13.8744 93.5754 13.2551 97.5339 14.6314 98.2389C16.0077 98.9439 18.8584 96.1285 20.9986 91.9504Z" fill="white" stroke="black" stroke-miterlimit="10"/>
<path d="M22.4001 83.1001L14.6001 98.3001" stroke="black" stroke-miterlimit="10"/>
<path d="M22.5001 88.2L19.6001 88.6" stroke="black" stroke-miterlimit="10"/>
<path d="M18.335 112.497C19.034 111.307 16.6275 108.596 12.9601 106.444C9.29262 104.291 5.75299 103.511 5.05407 104.702C4.35516 105.893 6.76162 108.603 10.4291 110.756C14.0965 112.908 17.6361 113.688 18.335 112.497Z" fill="white" stroke="black" stroke-miterlimit="10"/>
<path d="M111 142.3L110.1 142.4C110 141.8 108.4 128.7 114.1 124.8C116.3 123.3 119.3 123.4 123 125.1C122.1 123.4 120.4 120.1 119.4 116.2C117.3 108.7 118.4 102.5 122.5 98.2L123.1 98.8C113.7 108.5 124.3 125.7 124.4 125.8L123.8 126.4C119.8 124.2 116.6 123.9 114.5 125.4C109.3 129.1 110.9 142.1 111 142.3Z" fill="black"/>
<path d="M71.6999 48.5H59.5C58.8 48.5 58.2 47.9 58.2 47.2V35.8C58.2 35.1 58.8 34.5 59.5 34.5H71.6999C72.3999 34.5 73 35.1 73 35.8V47.2C72.9 47.9 72.3999 48.5 71.6999 48.5Z" fill="#FFBB00"/>
<path d="M62.4999 45.3001C62.3999 45.3001 62.3999 45.3001 62.4999 45.3001L62.3999 45.2001V45.1001C62.3999 43.9001 62.9999 42.7001 64.0999 42.1001C63.4999 41.6001 63.1999 40.9001 63.1999 40.2001C63.1999 38.8001 64.2999 37.7001 65.6999 37.6001C66.3999 37.6001 66.9999 37.8001 67.4999 38.3001C67.9999 38.8001 68.2999 39.4001 68.2999 40.1001C68.2999 40.9001 67.9999 41.6001 67.3999 42.1001C68.4999 42.7001 69.1999 43.8001 69.1999 45.0001V45.1001L69.0999 45.2001C68.7999 45.3001 63.0999 45.4001 62.4999 45.3001ZM65.7999 38.1001C65.6999 38.1001 65.5999 38.1001 65.4999 38.1001C64.2999 38.1001 63.2999 39.1001 63.3999 40.3001C63.3999 41.0001 63.7999 41.7001 64.3999 42.1001L64.6999 42.3001L64.3999 42.4001C63.3999 42.9001 62.6999 43.9001 62.6999 45.0001C63.5999 45.0001 67.8999 44.9001 68.6999 44.9001C68.5999 43.8001 67.8999 42.8001 66.8999 42.3001L66.5999 42.2001L66.8999 42.0001C67.4999 41.6001 67.8999 40.9001 67.8999 40.2001C67.8999 39.6001 67.6999 39.1001 67.1999 38.7001C66.6999 38.3001 66.2999 38.1001 65.7999 38.1001Z" fill="white"/>
</svg>
