<svg width="139" height="152" viewBox="0 0 139 152" fill="none" xmlns="http://www.w3.org/2000/svg">
<path fill-rule="evenodd" clip-rule="evenodd" d="M22.7001 96.1999C22.8001 96.9999 22.9001 97.7999 22.8001 98.4999C22.8001 98.6999 22.9001 98.8999 23.1001 99.0999L24.5001 99.9999C24.7001 100.2 24.8001 100.5 24.7001 100.7L23.6001 103.7C23.5001 104 23.2001 104.1 22.9001 104.1L21.3001 103.9C21.1001 103.9 20.9001 104 20.7001 104.1C20.3001 104.6 19.8001 105.1 19.3001 105.5C19.1001 105.6 19.1001 105.9 19.1001 106.1L19.4001 107.7C19.5001 108 19.3001 108.3 19.0001 108.4L16.1001 109.7C15.8001 109.8 15.5001 109.7 15.4001 109.5L14.4001 108.2C14.3001 108 14.1001 107.9 13.8001 108C13.1001 108.1 12.5001 108.1 11.8001 108C11.6001 108 11.4001 108.1 11.2001 108.3L10.3001 109.7C10.1001 109.9 9.80007 110 9.60007 109.9L6.60007 108.8C6.30007 108.7 6.20007 108.4 6.20007 108.1L6.40007 106.5C6.40007 106.3 6.30007 106.1 6.20007 105.9C5.70007 105.5 5.20007 105 4.80007 104.5C4.70007 104.3 4.40007 104.2 4.20007 104.3L2.60007 104.6C2.30007 104.7 2.00007 104.5 1.90007 104.2L0.60007 101.3C0.50007 101 0.60007 100.7 0.80007 100.6L2.10007 99.5999C2.30007 99.4999 2.40007 99.2999 2.30007 98.9999C2.20007 98.2999 2.20007 97.6999 2.30007 96.9999C2.30007 96.7999 2.20007 96.5999 2.00007 96.3999L0.60007 95.4999C0.40007 95.2999 0.30007 94.9999 0.40007 94.7999L1.50007 91.7999C1.60007 91.4999 1.90007 91.3999 2.20007 91.3999L4.00007 91.6999C4.20007 91.6999 4.40007 91.5999 4.60007 91.4999C5.00007 90.9999 5.50007 90.4999 6.00007 90.0999C6.20007 89.9999 6.20007 89.6999 6.20007 89.4999L5.90007 87.8999C5.80007 87.5999 6.00007 87.2999 6.30007 87.1999L9.20007 85.8999C9.50007 85.7999 9.80007 85.8999 9.90007 86.0999L10.9001 87.3999C11.0001 87.5999 11.2001 87.6999 11.5001 87.5999C12.2001 87.4999 12.8001 87.4999 13.5001 87.5999C13.7001 87.5999 13.9001 87.4999 14.1001 87.2999L15.0001 85.8999C15.2001 85.6999 15.5001 85.5999 15.7001 85.6999L18.7001 86.7999C19.0001 86.8999 19.1001 87.1999 19.1001 87.4999L18.9001 89.0999C18.9001 89.2999 19.0001 89.4999 19.1001 89.6999C19.6001 90.0999 20.1001 90.5999 20.5001 91.0999C20.6001 91.2999 20.9001 91.3999 21.1001 91.2999L22.7001 90.9999C23.0001 90.8999 23.3001 91.0999 23.4001 91.3999L24.7001 94.2999C24.8001 94.5999 24.7001 94.8999 24.5001 94.9999L22.7001 96.1999ZM17.0001 99.4999C18.3001 93.7999 11.3001 91.0999 8.40007 96.1999C8.40007 96.2999 8.30007 96.2999 8.30007 96.3999C7.00007 102.1 14.0001 104.8 16.9001 99.6999C17.0001 99.6999 17.0001 99.5999 17.0001 99.4999Z" stroke="black" stroke-miterlimit="10"/>
<path fill-rule="evenodd" clip-rule="evenodd" d="M136.2 19.4C136.3 19.8 136.3 20.2 136.3 20.6C136.3 20.8 136.4 21 136.6 21.1L137.1 21.4C137.3 21.6 137.4 21.9 137.3 22.1L136.8 23.4C136.7 23.7 136.4 23.8 136.1 23.8L135.5 23.7C135.3 23.7 135.1 23.8 134.9 23.9C134.7 24.1 134.5 24.3 134.3 24.5C134.1 24.6 134.1 24.9 134.1 25.1L134.2 25.7C134.3 26 134.1 26.3 133.8 26.4L132.5 27C132.2 27.1 131.9 27 131.8 26.8L131.4 26.3C131.3 26.1 131.1 26 130.8 26.1C130.5 26.1 130.2 26.1 129.9 26.1C129.7 26.1 129.5 26.2 129.3 26.4L129 26.9C128.8 27.1 128.5 27.2 128.3 27.1L127 26.6C126.7 26.5 126.6 26.2 126.6 25.9L126.7 25.3C126.7 25.1 126.6 24.9 126.5 24.7C126.3 24.5 126.1 24.3 125.9 24.1C125.8 23.9 125.5 23.9 125.3 23.9L124.7 24C124.4 24.1 124.1 23.9 124 23.6L123.4 22.3C123.3 22 123.4 21.7 123.6 21.6L124.1 21.2C124.3 21.1 124.4 20.9 124.3 20.6C124.3 20.3 124.3 20 124.3 19.7C124.3 19.5 124.2 19.3 124 19.1L123.5 18.8C123.3 18.6 123.2 18.3 123.3 18.1L123.8 16.8C123.9 16.5 124.2 16.4 124.5 16.4L125.1 16.5C125.3 16.5 125.5 16.4 125.7 16.3C125.9 16.1 126.1 15.9 126.3 15.7C126.5 15.6 126.5 15.3 126.5 15.1L126.4 14.5C126.3 14.2 126.5 13.9 126.8 13.8L128.1 13.2C128.4 13.1 128.7 13.2 128.8 13.4L129.2 13.9C129.3 14.1 129.5 14.2 129.8 14.1C130.1 14.1 130.4 14.1 130.7 14.1C130.9 14.1 131.1 14 131.3 13.8L131.6 13.3C131.8 13.1 132.1 13 132.3 13.1L133.6 13.6C133.9 13.7 134 14 134 14.3L133.9 14.9C133.9 15.1 134 15.3 134.1 15.5C134.3 15.7 134.5 15.9 134.7 16.1C134.8 16.3 135.1 16.3 135.3 16.3L135.9 16.2C136.2 16.1 136.5 16.3 136.6 16.6L137.2 17.9C137.3 18.2 137.2 18.5 137 18.6L136.2 19.4ZM132.9 21.2C133.6 17.9 129.6 16.4 127.9 19.3C127.9 19.4 127.8 19.4 127.8 19.5C127.1 22.8 131.1 24.3 132.8 21.4C132.8 21.4 132.9 21.3 132.9 21.2Z" stroke="black" stroke-miterlimit="10"/>
<path d="M98.9 151.2L47.7999 151C41.6999 151 36.7 146 36.7 139.8L37.2 11.6C37.2 5.4 42.2 0.5 48.4 0.5L99.5 0.7C105.6 0.7 110.6 5.7 110.6 11.9L110.1 140.1C110 146.2 105 151.2 98.9 151.2Z" stroke="black" stroke-miterlimit="10"/>
<path d="M99.4001 5.2H89.5001C88.2001 5.2 87.1001 6.3 87.1001 7.7V9.5C87.1001 10.9 86.0001 12 84.7001 12L65.4001 11.9C64.1001 11.9 63.0001 10.8 63.0001 9.4V7.6C63.0001 6.1 61.9001 5 60.6001 5H57.1001H48.4001C44.1001 5 40.6001 8.5 40.6001 12.8L40.1001 137.9C40.1001 142.2 43.6001 145.7 47.9001 145.7L98.9001 145.9C103.2 145.9 106.7 142.4 106.7 138.1L107.2 13C107.2 8.7 103.7 5.2 99.4001 5.2Z" stroke="black" stroke-miterlimit="10"/>
<path d="M99 91.8001H48.7C47.6 91.8001 46.7 90.9001 46.7 89.8001V58.6001C46.7 57.5001 47.6 56.6001 48.7 56.6001H99C100.1 56.6001 101 57.5001 101 58.6001V89.8001C101 90.9001 100.1 91.8001 99 91.8001Z" fill="#E8E8E8"/>
<path d="M110.4 142.7L132.6 73.3999" stroke="black" stroke-miterlimit="10"/>
<path d="M137.058 75.4503C138.771 73.2139 138.346 70.0126 136.11 68.3001C133.873 66.5876 130.672 67.0123 128.959 69.2487C127.247 71.4851 127.672 74.6864 129.908 76.3989C132.144 78.1114 135.346 77.6867 137.058 75.4503Z" fill="#FFBB00"/>
<path d="M110.5 115.6L124.7 61.1001" stroke="black" stroke-miterlimit="10"/>
<path d="M128.785 61.1395C128.811 58.9306 127.042 57.1187 124.833 57.0925C122.624 57.0662 120.812 58.8357 120.786 61.0446C120.76 63.2535 122.529 65.0654 124.738 65.0917C126.947 65.1179 128.759 63.3485 128.785 61.1395Z" fill="#FFBB00"/>
<path d="M122.36 101.89C124.128 101.447 124.452 96.6585 123.084 91.1942C121.715 85.7299 119.173 81.6591 117.405 82.1017C115.637 82.5444 115.313 87.333 116.682 92.7973C118.05 98.2616 120.592 102.332 122.36 101.89Z" fill="white" stroke="black" stroke-miterlimit="10"/>
<path d="M117.4 82.2L122.4 101.9" stroke="black" stroke-miterlimit="10"/>
<path d="M121.2 86L119.1 88.8L115.8 87.1" stroke="black" stroke-miterlimit="10"/>
<path d="M119.7 91.4L116.1 89.8" stroke="black" stroke-miterlimit="10"/>
<path d="M127.466 118.953C131.226 114.042 132.995 109.081 131.417 107.872C129.838 106.663 125.51 109.664 121.749 114.576C117.988 119.487 116.219 124.448 117.798 125.657C119.376 126.866 123.705 123.865 127.466 118.953Z" fill="white" stroke="black" stroke-miterlimit="10"/>
<path d="M85.2 70.4001C87.9062 70.4001 90.1 68.2063 90.1 65.5001C90.1 62.7939 87.9062 60.6001 85.2 60.6001C82.4938 60.6001 80.3 62.7939 80.3 65.5001C80.3 68.2063 82.4938 70.4001 85.2 70.4001Z" fill="#0000AF"/>
<path d="M92.2 69.7C94.5196 69.7 96.4 67.8196 96.4 65.5C96.4 63.1805 94.5196 61.3 92.2 61.3C89.8804 61.3 88 63.1805 88 65.5C88 67.8196 89.8804 69.7 92.2 69.7Z" stroke="#0000AF" stroke-miterlimit="10"/>
<path d="M60 69.2001H52.2C51.6 69.2001 51.2 68.8001 51.2 68.2001V62.6001C51.2 62.0001 51.6 61.6001 52.2 61.6001H60C60.6 61.6001 61 62.0001 61 62.6001V68.2001C61 68.8001 60.5 69.2001 60 69.2001Z" fill="#FFBB00"/>
<path d="M87.5 88.1999H52.2C51.6 88.1999 51.2 87.7999 51.2 87.1999V85.3999C51.2 84.7999 51.6 84.3999 52.2 84.3999H87.5C88.0999 84.3999 88.5 84.7999 88.5 85.3999V87.1999C88.5 87.7999 88 88.1999 87.5 88.1999Z" fill="white"/>
<path d="M71.9 82.1999H52.2C51.6 82.1999 51.2 81.7999 51.2 81.1999V79.3999C51.2 78.7999 51.6 78.3999 52.2 78.3999H71.8C72.4 78.3999 72.8 78.7999 72.8 79.3999V81.1999C72.9 81.7999 72.4 82.1999 71.9 82.1999Z" fill="white"/>
</svg>
