<svg width="135" height="152" viewBox="0 0 135 152" fill="none" xmlns="http://www.w3.org/2000/svg">
<path d="M24.5 134.8C30.4 130.7 31.7 123.1 31.5 116.2C31.5 115.1 31.6 113.9 31 112.9C30.5 111.9 29.2 111.2 28.2 111.7C27.4 112.1 27 113.1 26.5 113.9C25.9 115 24.9 115.9 23.8 116.5C23.1 116.9 22.2 117.1 21.5 116.7C20.5 116.2 20.4 114.8 20.4 113.7C20.4 111.6 20.4 109.5 20.4 107.3C20.4 106.2 20.4 105 20.1 103.9C19.7 102.8 19 101.8 17.9 101.5C16.8 101.2 15.5 101.8 15.3 102.9C15.2 103.4 15.3 103.8 15.3 104.3C15.3 104.8 15 105.3 14.6 105.4C14.1 105.5 13.7 105.2 13.4 104.9C12.2 103.8 11.4 102.3 10.7 100.8C10 99.2998 9.20001 97.7998 8.20001 96.5998C7.10001 95.2998 5.70001 94.3998 4.00001 94.2998C2.40001 94.1998 0.600005 95.1998 0.200005 96.7998C-0.199995 98.3998 0.700005 99.9998 1.70001 101.3C3.20001 103.2 5.00001 104.9 7.00001 106.3C7.40001 106.6 7.70001 106.8 7.90001 107.2C8.10001 108 7.4 108.7 6.70001 109C5.9 109.3 4.90001 109.2 4.00001 109.3C3.10001 109.4 2.20001 109.8 1.80001 110.6C1.30001 111.8 2.30001 113 3.30001 113.8C5.20001 115.4 7.40001 116.7 9.70001 117.5C10.5 117.8 11.4 118.1 12.1 118.7C12.8 119.3 13.2 120.3 12.8 121.1C12.4 121.9 11.3 122.2 10.5 122C9.60001 121.8 8.8 121.4 8.00001 121C6.40001 120.4 4.40001 120.5 3.40001 121.9C2.70001 122.8 2.70001 124 3.00001 125.1C3.30001 126.2 4.00001 127.1 4.70001 127.9C7.20001 130.8 10.4 133.2 14 134.5C17.6 135.8 20.9 136.1 24.5 134.8Z" fill="#FFBB00"/>
<path d="M1.5 94.9998C1.5 94.9998 15.1 110 18 118.5C20.9 127 22 135 24.7 138.4C27.3 141.8 35.3 147.8 38.4 147.8" stroke="black" stroke-miterlimit="10"/>
<path d="M17.9 101.5C17.9 101.5 17.8 111.9 16.6 114.8C15.4 117.6 1.69995 110.7 1.69995 110.7" stroke="black" stroke-miterlimit="10"/>
<path d="M3.30005 122C3.30005 122 17.7 132.4 21.6 130.4C21.6 130.4 30.6 119.9 29.5 111.7" stroke="black" stroke-miterlimit="10"/>
<path d="M24.6999 30.7L3.4999 41L2.8999 40.4L11.1999 21.4L11.7999 21.2L24.6999 29.9V30.7ZM4.1999 39.7L23.6999 30.2L11.8999 22.2999L4.1999 39.7Z" fill="black"/>
<path d="M127.9 85.5998C124.1 85.5998 121 82.4998 121 78.6998C121 74.8998 124.1 71.7998 127.9 71.7998C131.7 71.7998 134.8 74.8998 134.8 78.6998C134.8 82.4998 131.7 85.5998 127.9 85.5998ZM127.9 72.4998C124.5 72.4998 121.6 75.2998 121.6 78.7998C121.6 82.1998 124.4 85.0998 127.9 85.0998C131.3 85.0998 134.2 82.2998 134.2 78.7998C134.2 75.2998 131.4 72.4998 127.9 72.4998Z" fill="black"/>
<path d="M97.0999 151.2L45.9999 150.9C39.8999 150.9 34.8999 145.9 34.8999 139.7L35.3999 11.4999C35.3999 5.2999 40.3999 0.399902 46.5999 0.399902L97.6999 0.599902C103.8 0.599902 108.8 5.5999 108.8 11.7999L108.3 140C108.2 146.2 103.2 151.2 97.0999 151.2Z" stroke="black" stroke-miterlimit="10"/>
<path d="M97.6 5.19985H87.7C86.4 5.19985 85.3001 6.29985 85.3001 7.69985V9.49985C85.3001 10.8999 84.2001 11.9999 82.9001 11.9999L63.6 11.8999C62.3 11.8999 61.2001 10.7999 61.2001 9.39985V7.59985C61.2001 6.19985 60.1 5.09985 58.8 5.09985H55.3H46.6C42.3 5.09985 38.8 8.59985 38.8 12.8999L38.3 138C38.3 142.3 41.8 145.8 46.1 145.8L97.1 146C101.4 146 104.9 142.5 104.9 138.2L105.4 12.9999C105.4 8.69985 102 5.19985 97.6 5.19985Z" stroke="black" stroke-miterlimit="10"/>
<path d="M97.1999 145.4H46.8999C45.7999 145.4 44.8999 144.5 44.8999 143.4V58.5999C44.8999 57.4999 45.7999 56.5999 46.8999 56.5999H97.1999C98.2999 56.5999 99.1999 57.4999 99.1999 58.5999V143.4C99.1999 144.5 98.2999 145.4 97.1999 145.4Z" fill="#E8E8E8"/>
<path d="M97.1999 100.8H46.8999C45.7999 100.8 44.8999 99.8999 44.8999 98.7999V57.5999C44.8999 56.4999 45.7999 55.5999 46.8999 55.5999H97.1999C98.2999 55.5999 99.1999 56.4999 99.1999 57.5999V98.7999C99.1999 99.8999 98.2999 100.8 97.1999 100.8Z" fill="#0000AF"/>
<path d="M74.3001 79.2999C74.7001 79.2999 75.0001 78.9999 75.0001 78.5999C75.0001 78.1999 74.7001 77.8999 74.3001 77.8999C73.9001 77.8999 73.6001 78.1999 73.6001 78.5999C73.6001 78.8999 73.9001 79.2999 74.3001 79.2999Z" fill="white"/>
<path d="M58.5 79.2999C58.9 79.2999 59.2001 78.9999 59.2001 78.5999C59.2001 78.1999 58.9 77.8999 58.5 77.8999C58.1 77.8999 57.8 78.1999 57.8 78.5999C57.8 78.8999 58.1 79.2999 58.5 79.2999Z" fill="white"/>
<path d="M57.8 90.0001C57.8 90.4001 58.1 90.7001 58.5 90.7001H65.7C66.1 90.7001 66.4001 90.4001 66.4001 90.0001V82.8001C66.4001 82.4001 66.1 82.1001 65.7 82.1001H58.5C58.1 82.1001 57.8 82.4001 57.8 82.8001V90.0001ZM59.2001 83.6001H65V89.3001H59.3V83.6001H59.2001Z" fill="white"/>
<path d="M65.7 63.5H58.5C58.1 63.5 57.8 63.8 57.8 64.2V71.4C57.8 71.8 58.1 72.1 58.5 72.1H65.7C66.1 72.1 66.4001 71.8 66.4001 71.4V64.2C66.4001 63.8 66.1 63.5 65.7 63.5ZM65 70.7H59.3V65H65V70.7Z" fill="white"/>
<path d="M85.0001 64.2C85.0001 63.8 84.7001 63.5 84.3001 63.5H77.1001C76.7001 63.5 76.4001 63.8 76.4001 64.2V71.4C76.4001 71.8 76.7001 72.1 77.1001 72.1H84.3001C84.7001 72.1 85.0001 71.8 85.0001 71.4V64.2ZM83.6001 70.7H77.9001V65H83.6001V70.7Z" fill="white"/>
<path d="M85.0001 90.0001V82.8001C85.0001 82.4001 84.7001 82.1001 84.3001 82.1001H77.1001C76.7001 82.1001 76.4001 82.4001 76.4001 82.8001V90.0001C76.4001 90.4001 76.7001 90.7001 77.1001 90.7001H84.3001C84.7001 90.7001 85.0001 90.4001 85.0001 90.0001ZM83.6001 89.3001H77.9001V83.6001H83.6001V89.3001Z" fill="white"/>
<path d="M62.7999 85H61.4C61 85 60.7 85.3 60.7 85.7V87.1C60.7 87.5 61 87.8 61.4 87.8H62.7999C63.1999 87.8 63.5 87.5 63.5 87.1V85.7C63.5 85.3 63.1999 85 62.7999 85Z" fill="white"/>
<path d="M61.4 69.1999H62.7999C63.1999 69.1999 63.5 68.8999 63.5 68.4999V67.0999C63.5 66.6999 63.1999 66.3999 62.7999 66.3999H61.4C61 66.3999 60.7 66.6999 60.7 67.0999V68.4999C60.7 68.8999 61 69.1999 61.4 69.1999Z" fill="white"/>
<path d="M80 69.1999H81.4C81.8 69.1999 82.1 68.8999 82.1 68.4999V67.0999C82.1 66.6999 81.8 66.3999 81.4 66.3999H80C79.6 66.3999 79.3 66.6999 79.3 67.0999V68.4999C79.3 68.8999 79.6 69.1999 80 69.1999Z" fill="white"/>
<path d="M80 87.8H81.4C81.8 87.8 82.1 87.5 82.1 87.1V85.7C82.1 85.3 81.8 85 81.4 85H80C79.6 85 79.3 85.3 79.3 85.7V87.1C79.3 87.5 79.6 87.8 80 87.8Z" fill="white"/>
<path d="M60.7 78.5C60.7 78.9 61 79.2 61.4 79.2H70.6999V82.8C70.6999 83.2 71 83.5 71.4 83.5C71.8 83.5 72.0999 83.2 72.0999 82.8V78.5C72.0999 78.1 71.8 77.8 71.4 77.8H61.4C61 77.8 60.7 78.1 60.7 78.5Z" fill="white"/>
<path d="M65.7 76.4C66.1 76.4 66.4001 76.1 66.4001 75.7C66.4001 75.3 66.1 75 65.7 75H58.5C58.1 75 57.8 75.3 57.8 75.7C57.8 76.1 58.1 76.4 58.5 76.4H65.7Z" fill="white"/>
<path d="M68.5 76.4H71.4C71.8 76.4 72.1 76.1 72.1 75.7C72.1 75.3 71.8 75 71.4 75H68.5C68.1 75 67.8 75.3 67.8 75.7C67.8 76.1 68.1 76.4 68.5 76.4Z" fill="white"/>
<path d="M68.5 63.5C68.1 63.5 67.8 63.8 67.8 64.2V71.4C67.8 71.8 68.1 72.1 68.5 72.1H73.5V75.7C73.5 76.1 73.8 76.4 74.2 76.4H77.1C77.5 76.4 77.8 76.1 77.8 75.7C77.8 75.3 77.5 75 77.1 75H75V71.4C75 71 74.7 70.7 74.3 70.7H69.3V64.3C69.3 63.8 68.9 63.5 68.5 63.5Z" fill="white"/>
<path d="M84.3 75H80C79.6 75 79.3 75.3 79.3 75.7C79.3 76.1 79.6 76.4 80 76.4H84.3C84.7 76.4 85 76.1 85 75.7C85 75.3 84.7 75 84.3 75Z" fill="white"/>
<path d="M84.3001 77.8H77.1001C76.7001 77.8 76.4001 78.1 76.4001 78.5C76.4001 78.9 76.7001 79.2 77.1001 79.2H84.3001C84.7001 79.2 85.0001 78.9 85.0001 78.5C85.0001 78.1 84.7001 77.8 84.3001 77.8Z" fill="white"/>
<path d="M71.4 85H68.5C68.1 85 67.8 85.3 67.8 85.7V90C67.8 90.4 68.1 90.7 68.5 90.7C68.9 90.7 69.2 90.4 69.2 90V86.4H71.3C71.7 86.4 72 86.1 72 85.7C72 85.3 71.8 85 71.4 85Z" fill="white"/>
<path d="M73.6 89.3H71.5C71.1 89.3 70.8 89.6 70.8 90C70.8 90.4 71.1 90.7 71.5 90.7H74.4C74.8 90.7 75.1 90.4 75.1 90V81.4C75.1 81 74.8 80.7 74.4 80.7C74 80.7 73.7 81 73.7 81.4V89.3H73.6Z" fill="white"/>
<path d="M74.3 69.2C74.7 69.2 75 68.9 75 68.5V64.2C75 63.8 74.7 63.5 74.3 63.5C73.9 63.5 73.6 63.8 73.6 64.2V67.8H71.5C71.1 67.8 70.8 68.1 70.8 68.5C70.8 68.9 71.1 69.2 71.5 69.2H74.3Z" fill="white"/>
<path d="M86.6 117.8H51.3C50.7 117.8 50.3 117.4 50.3 116.8V115C50.3 114.4 50.7 114 51.3 114H86.6C87.2 114 87.6 114.4 87.6 115V116.8C87.6 117.3 87.1 117.8 86.6 117.8Z" fill="white"/>
<path d="M71 110.8H51.3C50.7 110.8 50.3 110.4 50.3 109.8V108C50.3 107.4 50.7 107 51.3 107H71C71.6 107 72 107.4 72 108V109.8C72 110.3 71.5 110.8 71 110.8Z" fill="white"/>
<path d="M86.6 136.8H51.3C50.7 136.8 50.3 136.4 50.3 135.8V134C50.3 133.4 50.7 133 51.3 133H86.6C87.2 133 87.6 133.4 87.6 134V135.8C87.6 136.3 87.1 136.8 86.6 136.8Z" fill="white"/>
<path d="M71 129.8H51.3C50.7 129.8 50.3 129.4 50.3 128.8V127C50.3 126.4 50.7 126 51.3 126H71C71.6 126 72 126.4 72 127V128.8C72 129.3 71.5 129.8 71 129.8Z" fill="white"/>
</svg>
