<svg width="97" height="152" viewBox="0 0 97 152" fill="none" xmlns="http://www.w3.org/2000/svg">
<path d="M62.7 151.2L11.6 151C5.5 151 0.5 146 0.5 139.8L1 11.6C1 5.4 6 0.5 12.2 0.5L63.3 0.7C69.4 0.7 74.4 5.7 74.4 11.9L73.9 140.1C73.9 146.2 68.9 151.2 62.7 151.2Z" stroke="black" stroke-miterlimit="10"/>
<path d="M63.2999 5.2001H53.3999C52.0999 5.2001 50.9999 6.3001 50.9999 7.7001V9.5001C50.9999 10.9001 49.8999 12.0001 48.5999 12.0001L29.2999 11.9001C27.9999 11.9001 26.8999 10.8001 26.8999 9.4001V7.6001C26.8999 6.2001 25.7999 5.1001 24.4999 5.1001H20.9999H12.2999C7.9999 5.1001 4.4999 8.6001 4.4999 12.9001L3.8999 137.8C3.8999 142.1 7.3999 145.6 11.6999 145.6L62.6999 145.8C66.9999 145.8 70.4999 142.3 70.4999 138L70.9999 13.0001C71.0999 8.7001 67.5999 5.2001 63.2999 5.2001Z" stroke="black" stroke-miterlimit="10"/>
<path d="M62.8001 71.8001H12.6001C11.5001 71.8001 10.6001 70.9001 10.6001 69.8001V38.6001C10.6001 37.5001 11.5001 36.6001 12.6001 36.6001H62.9001C64.0001 36.6001 64.9001 37.5001 64.9001 38.6001V69.8001C64.8001 70.9001 64.0001 71.8001 62.8001 71.8001Z" fill="#0000AF"/>
<path d="M24.9 50.1001H16C15.4 50.1001 15 49.7001 15 49.1001V42.6001C15 42.0001 15.4 41.6001 16 41.6001H24.8C25.4 41.6001 25.8 42.0001 25.8 42.6001V49.1001C25.9 49.6001 25.4 50.1001 24.9 50.1001Z" fill="white"/>
<path d="M40.9 67.1999H16C15.4 67.1999 15 66.7999 15 66.1999V64.3999C15 63.7999 15.4 63.3999 16 63.3999H40.8C41.4 63.3999 41.8 63.7999 41.8 64.3999V66.1999C41.9 66.7999 41.4 67.1999 40.9 67.1999Z" fill="#FFBB00"/>
<path d="M60.1 67.1999H46.5C45.9 67.1999 45.5 66.7999 45.5 66.1999V64.3999C45.5 63.7999 45.9 63.3999 46.5 63.3999H60.1C60.7 63.3999 61.1 63.7999 61.1 64.3999V66.1999C61.1 66.7999 60.6 67.1999 60.1 67.1999Z" fill="#FFBB00"/>
<path d="M62.8001 112.8H12.6001C11.5001 112.8 10.6001 111.9 10.6001 110.8V79.6001C10.6001 78.5001 11.5001 77.6001 12.6001 77.6001H62.9001C64.0001 77.6001 64.9001 78.5001 64.9001 79.6001V110.8C64.8001 111.9 64.0001 112.8 62.8001 112.8Z" fill="#E8E8E8"/>
<path d="M24.9 90.5H16C15.4 90.5 15 90.1 15 89.5V83C15 82.4 15.4 82 16 82H24.8C25.4 82 25.8 82.4 25.8 83V89.5C25.9 90.1 25.4 90.5 24.9 90.5Z" fill="white"/>
<path d="M40.9 108.2H16C15.4 108.2 15 107.8 15 107.2V105.4C15 104.8 15.4 104.4 16 104.4H40.8C41.4 104.4 41.8 104.8 41.8 105.4V107.2C41.9 107.8 41.4 108.2 40.9 108.2Z" fill="#FFBB00"/>
<path d="M60.1 108.2H46.5C45.9 108.2 45.5 107.8 45.5 107.2V105.4C45.5 104.8 45.9 104.4 46.5 104.4H60.1C60.7 104.4 61.1 104.8 61.1 105.4V107.2C61.1 107.8 60.6 108.2 60.1 108.2Z" fill="#FFBB00"/>
<path d="M74.0999 139.8L91.2999 96.3" stroke="#131215" stroke-miterlimit="10"/>
<path d="M84.898 111.95C85.5267 111.603 85.2362 109.872 84.2492 108.082C83.2622 106.293 81.9525 105.124 81.3238 105.47C80.6952 105.817 80.9857 107.549 81.9726 109.338C82.9596 111.127 84.2694 112.297 84.898 111.95Z" fill="white" stroke="#131215" stroke-miterlimit="10"/>
<path d="M91.9779 105.272C93.9748 104.839 95.47 103.918 95.3177 103.217C95.1653 102.515 93.423 102.298 91.4262 102.731C89.4293 103.165 87.9341 104.085 88.0864 104.787C88.2388 105.489 89.981 105.706 91.9779 105.272Z" fill="white" stroke="#131215" stroke-miterlimit="10"/>
<path d="M93.383 98.5479C95.4554 97.7827 96.515 95.4823 95.7498 93.4099C94.9845 91.3375 92.6842 90.2779 90.6118 91.0431C88.5394 91.8084 87.4797 94.1087 88.245 96.1811C89.0102 98.2535 91.3106 99.3132 93.383 98.5479Z" fill="#FFBB00" stroke="black" stroke-miterlimit="10"/>
<path d="M74.2 129.2L87 69.6001" stroke="#131215" stroke-miterlimit="10"/>
<path d="M80.7213 96.6648C82.0528 96.1272 81.6907 92.121 79.9124 87.7166C78.1341 83.3123 75.6131 80.1777 74.2816 80.7153C72.95 81.2529 73.3122 85.2591 75.0904 89.6635C76.8687 94.0678 79.3897 97.2025 80.7213 96.6648Z" fill="white" stroke="#131215" stroke-miterlimit="10"/>
<path d="M88.5236 86.6013C91.1141 85.6448 92.9815 84.2393 92.6945 83.4622C92.4076 82.685 90.0749 82.8305 87.4844 83.787C84.894 84.7436 83.0266 86.149 83.3135 86.9262C83.6005 87.7033 85.9332 87.5579 88.5236 86.6013Z" fill="white" stroke="#131215" stroke-miterlimit="10"/>
<path d="M84.5629 80.2486C85.1328 80.0382 84.99 78.2296 84.2439 76.209C83.4978 74.1884 82.4309 72.721 81.861 72.9315C81.2911 73.1419 81.4339 74.9505 82.1801 76.9711C82.9262 78.9917 83.993 80.4591 84.5629 80.2486Z" fill="white" stroke="#131215" stroke-miterlimit="10"/>
<path d="M88.6037 77.658C90.2616 77.0458 91.4661 76.1715 91.2939 75.7052C91.1217 75.2389 89.6381 75.3572 87.9802 75.9694C86.3223 76.5816 85.1179 77.4559 85.29 77.9222C85.4622 78.3885 86.9458 78.2702 88.6037 77.658Z" fill="white" stroke="#131215" stroke-miterlimit="10"/>
<path d="M90.6633 69.8124C93.8755 68.6263 95.518 65.0607 94.3319 61.8485C93.1457 58.6363 89.5802 56.9938 86.368 58.18C83.1558 59.3661 81.5133 62.9316 82.6994 66.1439C83.8856 69.3561 87.4511 70.9985 90.6633 69.8124Z" fill="#FFBB00" stroke="black" stroke-miterlimit="10"/>
</svg>
