<svg width="50" height="50" viewBox="0 0 50 50" fill="none" xmlns="http://www.w3.org/2000/svg">
<path d="M37 50H13C5.8203 50 0 44.1797 0 37V13C0 5.8203 5.8203 0 13 0H37C44.1797 0 50 5.8203 50 13V37C50 44.1797 44.1797 50 37 50Z" fill="black"/>
<path d="M31.251 13H18.749C15.579 13 13 15.6002 13 18.7002V31.2998C13 34.3998 15.579 37 18.749 37H31.251C34.421 37 37 34.3998 37 31.2998V18.7002C37 15.6002 34.421 13 31.251 13ZM35.486 31.2998C35.486 33.5998 33.586 35.5 31.251 35.5H18.749C16.414 35.5 14.514 33.5998 14.514 31.2998V18.7002C14.514 16.4002 16.414 14.5 18.749 14.5H31.251C33.586 14.5 35.486 16.4002 35.486 18.7002V31.2998Z" fill="white"/>
<path d="M24.9999 19.0996C21.7559 19.0996 19.1179 21.8 19.1179 25C19.1179 28.2 21.7559 30.9004 24.9999 30.9004C28.2439 30.9004 30.8829 28.2 30.8829 25C30.8829 21.8 28.2439 19.0996 24.9999 19.0996ZM24.9999 29.4004C22.5909 29.4004 20.6309 27.4 20.6309 25C20.6309 22.6 22.5909 20.5996 24.9999 20.5996C27.4089 20.5996 29.3679 22.6 29.3679 25C29.3679 27.4 27.4089 29.4004 24.9999 29.4004Z" fill="white"/>
</svg>
