<svg width="50" height="50" viewBox="0 0 50 50" fill="none" xmlns="http://www.w3.org/2000/svg">
<path d="M37 50H13C5.8203 50 0 44.1797 0 37V13C0 5.8203 5.8203 0 13 0H37C44.1797 0 50 5.8203 50 13V37C50 44.1797 44.1797 50 37 50Z" fill="black"/>
<path d="M22.046 37.7998H26.873C27.287 37.7998 27.623 37.4 27.623 37V26.0996H30.131C30.515 26.0996 30.838 25.8 30.877 25.5L31.3 21.4004C31.322 21.1004 31.253 20.8998 31.111 20.7998C30.968 20.5998 30.766 20.5 30.554 20.5H27.623V18.9004C27.623 18.5004 27.732 18.5 27.898 18.5H30.493C30.907 18.5 31.243 18.2002 31.243 17.7002V13.7998C31.243 13.3998 30.909 13 30.496 13H26.917C24.409 13 23.07 14.1 22.389 15C21.438 16.3 21.296 17.7996 21.296 18.5996V20.5H19.75C19.336 20.5 19 20.8998 19 21.2998V25.4004C19 25.8004 19.336 26.0996 19.75 26.0996H21.296V37C21.296 37.4 21.632 37.7998 22.046 37.7998ZM20.5 24.5996V22H22.046C22.46 22 22.796 21.6998 22.796 21.2998V18.5996C22.796 18.0996 22.874 16.9004 23.597 15.9004C24.289 15.0004 25.406 14.5 26.914 14.5H29.743V17H27.897C27.014 17 26.123 17.6004 26.123 18.9004V21.2998C26.123 21.6998 26.459 22 26.873 22H29.722L29.454 24.5996H26.873C26.459 24.5996 26.123 25.0004 26.123 25.4004V36.2002H22.796V25.4004C22.796 25.0004 22.46 24.5996 22.046 24.5996H20.5Z" fill="white"/>
</svg>
