<svg width="50" height="50" viewBox="0 0 50 50" fill="none" xmlns="http://www.w3.org/2000/svg">
<path d="M37 50H13C5.8203 50 0 44.1797 0 37V13C0 5.8203 5.8203 0 13 0H37C44.1797 0 50 5.8203 50 13V37C50 44.1797 44.1797 50 37 50Z" fill="black"/>
<path d="M14.3801 24.2996L19.7601 26.9002C19.9681 27.0002 20.2141 27.0002 20.4131 26.9002L25.2021 24.0995L22.3031 26.7C22.1561 26.8 22.0711 27 22.0711 27.2V33.4998C22.0711 34.0998 22.9141 34.4002 23.3091 33.9002L25.6341 30.7996L31.3851 34.0995C31.7891 34.2995 32.3061 34.0995 32.3991 33.5995L35.9861 15.7C36.0931 15.2 35.5591 14.7998 35.0621 14.9998L14.4371 22.9998C13.8841 23.1998 13.8481 23.9996 14.3801 24.2996ZM34.3911 16.7L31.2391 32.4002L25.7891 29.2996C25.4921 29.0996 25.1101 29.1998 24.8991 29.4998L23.4461 31.4002V27.4998L31.2851 20.5995C31.9051 19.9995 31.1921 19.0998 30.4831 19.4998L20.0431 25.4998L16.3831 23.7L34.3911 16.7Z" fill="white"/>
</svg>
