<svg width="175" height="130" viewBox="0 0 175 130" fill="none" xmlns="http://www.w3.org/2000/svg">
<g clip-path="url(#clip0)">
<path d="M28.0905 73.0202C28.6846 73.0202 29.1663 72.5378 29.1663 71.9428C29.1663 71.3478 28.6846 70.8655 28.0905 70.8655C27.4963 70.8655 27.0146 71.3478 27.0146 71.9428C27.0146 72.5378 27.4963 73.0202 28.0905 73.0202Z" fill="#0000AF"/>
<path d="M79.6104 53.1492L73.7531 76.1326C73.6336 76.7312 73.9922 77.4494 74.7094 77.5691L82.5987 79.245L84.9895 79.7238C85.5871 79.8435 86.1848 79.4844 86.3043 78.8859L93.596 56.501C93.8351 55.7827 93.3569 55.0645 92.7593 54.9448L81.0448 52.3113C80.3276 52.1916 79.7299 52.5507 79.6104 53.1492Z" fill="white" stroke="black" stroke-width="0.3" stroke-miterlimit="10"/>
<path d="M81.6424 56.7403C82.1045 56.7403 82.4792 56.3652 82.4792 55.9024C82.4792 55.4396 82.1045 55.0645 81.6424 55.0645C81.1803 55.0645 80.8057 55.4396 80.8057 55.9024C80.8057 56.3652 81.1803 56.7403 81.6424 56.7403Z" fill="white" stroke="black" stroke-width="0.3" stroke-miterlimit="10"/>
<path d="M80.9251 59.0147C81.3872 59.0147 81.7619 58.6396 81.7619 58.1768C81.7619 57.714 81.3872 57.3389 80.9251 57.3389C80.463 57.3389 80.0884 57.714 80.0884 58.1768C80.0884 58.6396 80.463 59.0147 80.9251 59.0147Z" fill="white" stroke="black" stroke-width="0.3" stroke-miterlimit="10"/>
<path d="M83.4354 58.4163C83.8975 58.4163 84.2721 58.0412 84.2721 57.5784C84.2721 57.1156 83.8975 56.7405 83.4354 56.7405C82.9733 56.7405 82.5986 57.1156 82.5986 57.5784C82.5986 58.0412 82.9733 58.4163 83.4354 58.4163Z" fill="white" stroke="black" stroke-width="0.3" stroke-miterlimit="10"/>
<path d="M79.6103 81.639C79.6103 81.639 76.1437 90.6169 76.5023 90.8564C76.8609 91.0958 89.6512 96.0037 89.6512 94.9263C89.6512 93.849 89.2926 78.6464 89.2926 77.8085C89.2926 76.9705 83.1963 64.5212 81.1642 64.0424C80.0884 63.8029 79.3712 65.7182 80.447 67.3941C81.5228 69.07 82.5986 70.7459 82.5986 70.7459C82.5986 70.7459 78.4149 64.2818 77.6977 66.9153C77.1 69.5488 80.9252 74.0976 80.9252 74.0976C80.9252 74.0976 77.6977 68.8306 77.1 70.3867C76.5023 71.9429 79.1321 75.175 79.4907 75.6538C79.8493 76.1326 76.2633 72.6611 76.3828 74.4567C76.6219 76.372 79.6103 81.639 79.6103 81.639Z" fill="white" stroke="black" stroke-width="0.3" stroke-miterlimit="10"/>
<path d="M29 55.5C19.3176 64.9567 24.2657 70.9853 21.3968 76.4917C20.321 78.6464 17.0935 79.9632 15.0614 81.1602C13.0293 82.3573 12.4316 85.9484 11.4754 88.1031C9.80187 91.814 11.834 92.6519 14.8224 95.5249C18.528 99.116 24.0266 100.792 29.0471 99.954C34.0676 99.116 38.7295 95.884 41.2397 91.3352C43.0327 93.7293 45.7821 95.5249 48.7705 96.0037C51.7588 96.4825 54.9863 95.6446 57.0184 93.4899C59.0505 91.3352 59.7677 87.8637 58.3333 85.1105C57.0184 82.477 54.2691 81.1602 51.9979 79.2449C46.7383 74.9355 43.989 67.7532 45.1844 61.0497" fill="black"/>
<path d="M42.9131 94.5673L28.5688 94.2082L32.0354 75.8933L41.8373 76.1327L41.9568 78.2874L42.3154 84.9909L42.9131 94.5673Z" fill="white" stroke="black" stroke-width="0.2" stroke-miterlimit="10"/>
<path d="M43.2715 84.9908C41.8371 84.9908 40.4027 84.6317 39.2073 84.1528C37.0557 83.1952 35.1431 81.639 33.9478 79.604C36.8166 79.2449 39.6855 78.7661 42.6738 78.407C42.7934 78.407 42.9129 78.407 43.0324 78.407L43.2715 84.9908Z" fill="black"/>
<path d="M34.0676 79.4844C34.0676 79.4844 35.9802 82.1179 41.0007 82.2376C46.0211 82.3573 48.1728 76.8509 48.6509 74.9356C49.0095 73.3794 48.5314 65.4789 48.2923 62.1271C48.2923 61.1695 47.6946 60.3316 46.9774 59.733C44.3476 58.0572 38.4904 54.5857 35.1434 56.7404C30.8401 59.733 28.808 67.873 28.808 67.873C28.808 67.873 27.3736 66.4365 26.4173 67.6336C25.5806 68.8306 25.461 73.978 27.4931 73.978C28.2103 73.978 28.569 73.978 28.808 73.8583C28.9276 73.8583 29.0471 73.8583 29.1666 73.978L31.7964 77.4494" fill="white"/>
<path d="M34.0676 79.4844C34.0676 79.4844 35.9802 82.1179 41.0007 82.2376C46.0211 82.3573 48.1728 76.8509 48.6509 74.9356C49.0095 73.3794 48.5314 65.4789 48.2923 62.1271C48.2923 61.1695 47.6946 60.3316 46.9774 59.733C44.3476 58.0572 38.4904 54.5857 35.1434 56.7404C30.8401 59.733 28.808 67.873 28.808 67.873C28.808 67.873 27.3736 66.4365 26.4173 67.6336C25.5806 68.8306 25.461 73.978 27.4931 73.978C28.2103 73.978 28.569 73.978 28.808 73.8583C28.9276 73.8583 29.0471 73.8583 29.1666 73.978L31.7964 77.4494" stroke="black" stroke-width="0.3" stroke-miterlimit="10" stroke-linecap="round"/>
<path d="M66.2224 107.376L61.5605 105.7L61.7996 105.221L65.9834 106.777L65.3857 103.665L65.5052 103.425L76.9806 86.7865L77.4588 86.6667L90.2491 94.3279L89.8905 94.8067L77.3392 87.2653L65.9834 103.665L66.581 107.136L66.2224 107.376Z" fill="black"/>
<path d="M48.5 64C44.6749 59.6906 37.4143 60.571 35.3822 58.4163C32.6329 63.4439 31.557 66.7957 26.0584 68.3519C26.0584 67.5139 25.4607 63.3242 25.5803 62.4863C25.9389 60.2119 26.8952 58.0572 28.3296 56.2616C30.2421 53.8675 33.111 52.1916 36.2189 51.8325C36.5775 51.8325 36.9361 51.8325 37.2947 51.8325C37.4143 51.8325 37.5338 51.8325 37.5338 51.8325C38.1315 51.8325 38.7292 51.9522 39.2073 52.0719C39.3268 52.0719 39.3268 52.0719 39.4464 52.0719C41.359 52.5508 43.6851 53.5635 45 55C45.7266 55.7938 46.7838 57.4428 47.5 59C48.2838 60.9428 48.5 63.8803 48.5 64Z" fill="black"/>
<path d="M54.3884 110.727C54.3884 110.727 55.3447 126.648 71.8406 125.331C88.6951 123.895 90.1295 94.5672 90.1295 94.5672L77.3392 86.7864L65.7443 103.545C65.7443 103.545 60.8433 94.5672 57.8549 92.2928C54.8666 90.0184 42.6739 89.4199 42.6739 89.4199C35.1432 95.4052 29.7641 88.582 29.7641 88.582C29.7641 88.582 17.0933 89.5396 12.1924 91.814C8.12817 93.849 2.03186 120.064 0.238828 127.726C-0.000242606 128.803 0.836506 129.761 1.91233 129.761H59.2894C60.3652 129.761 61.3215 129.282 61.9192 128.444C61.9192 128.444 62.7559 127.127 61.7996 123.656" fill="#0000AF"/>
<path d="M54.3884 110.727C54.3884 110.727 55.3447 126.648 71.8406 125.331C88.6951 123.895 90.1295 94.5672 90.1295 94.5672L77.3392 86.7864L65.7443 103.545C65.7443 103.545 60.8433 94.5672 57.855 92.2928C54.8666 90.0184 42.6739 89.4199 42.6739 89.4199C35.1432 95.4052 29.7641 88.582 29.7641 88.582C29.7641 88.582 17.0933 89.5396 12.1924 91.814C8.12817 93.849 2.03186 120.064 0.238828 127.726C-0.000242606 128.803 0.836506 129.761 1.91233 129.761H59.2894C60.3652 129.761 61.3215 129.282 61.9192 128.444C61.9192 128.444 62.7559 127.127 61.7996 123.656" stroke="black" stroke-width="0.3" stroke-miterlimit="10"/>
<path d="M172.848 71.2246H118.579C117.503 71.2246 116.547 72.0625 116.547 73.2596V88.8213C116.547 89.8986 117.384 90.8563 118.579 90.8563H122.763V100.912L135.792 90.8563H172.848C173.924 90.8563 174.88 90.0183 174.88 88.8213V73.2596C174.761 72.1823 173.924 71.2246 172.848 71.2246Z" fill="#F2F2FB" stroke="black" stroke-width="0.3" stroke-miterlimit="10"/>
<path d="M83.9136 6.58374H29.764C28.6882 6.58374 27.7319 7.42168 27.7319 8.61873V24.1804C27.7319 25.2578 28.5687 26.2154 29.764 26.2154H33.9478V36.2707L46.9772 26.2154H84.0332C85.109 26.2154 86.0653 25.3775 86.0653 24.1804V8.61873C85.9457 7.42168 84.9895 6.58374 83.9136 6.58374Z" fill="#F2F2FB" stroke="black" stroke-width="0.3" stroke-miterlimit="10"/>
<path d="M149.778 30.5249H95.6283C94.5525 30.5249 93.5962 31.3628 93.5962 32.5599V48.1216C93.5962 49.1989 94.4329 50.1566 95.6283 50.1566H99.812V60.2118L112.841 50.1566H149.897C150.973 50.1566 151.93 49.3186 151.93 48.1216V32.5599C151.81 31.3628 150.854 30.5249 149.778 30.5249Z" fill="#F2F2FB" stroke="black" stroke-width="0.3" stroke-miterlimit="10"/>
<path d="M167.21 65.7183C167.155 65.7183 167.111 65.7631 167.108 65.8183C167.06 66.7255 166.36 67.3941 165.437 67.3941C164.514 67.3941 163.814 66.7255 163.766 65.8183C163.763 65.7631 163.719 65.7183 163.663 65.7183H162.19C162.135 65.7183 162.09 65.763 162.09 65.8183V77.2297C162.09 77.2849 162.135 77.3297 162.19 77.3297H163.663C163.719 77.3297 163.763 77.2848 163.766 77.2296C163.814 76.3224 164.514 75.6538 165.437 75.6538C166.36 75.6538 167.06 76.3224 167.108 77.2296C167.111 77.2848 167.155 77.3297 167.21 77.3297H168.684C168.739 77.3297 168.784 77.2849 168.784 77.2297V65.8183C168.784 65.763 168.739 65.7183 168.684 65.7183H167.21ZM164.122 70.1671C164.122 70.2223 164.077 70.2671 164.022 70.2671H163.505C163.449 70.2671 163.405 70.2223 163.405 70.1671V69.6488C163.405 69.5936 163.449 69.5488 163.505 69.5488H164.022C164.077 69.5488 164.122 69.5936 164.122 69.6488V70.1671ZM165.676 70.1671C165.676 70.2223 165.631 70.2671 165.576 70.2671H165.059C165.003 70.2671 164.959 70.2223 164.959 70.1671V69.6488C164.959 69.5936 165.003 69.5488 165.059 69.5488H165.576C165.631 69.5488 165.676 69.5936 165.676 69.6488V70.1671ZM167.23 70.1671C167.23 70.2223 167.185 70.2671 167.13 70.2671H166.613C166.557 70.2671 166.513 70.2223 166.513 70.1671V69.6488C166.513 69.5936 166.557 69.5488 166.613 69.5488H167.13C167.185 69.5488 167.23 69.5936 167.23 69.6488V70.1671Z" fill="#0000AF"/>
<path d="M78.8734 0C78.8182 0 78.7737 0.0448801 78.7708 0.100031C78.7227 1.00723 78.0226 1.67587 77.0999 1.67587C76.1772 1.67587 75.4771 1.00723 75.4291 0.100031C75.4261 0.0448799 75.3817 0 75.3264 0H73.8529C73.7977 0 73.7529 0.0447715 73.7529 0.1V11.5114C73.7529 11.5666 73.7977 11.6114 73.8529 11.6114H75.3264C75.3817 11.6114 75.4261 11.5665 75.4291 11.5114C75.4771 10.6042 76.1772 9.93554 77.0999 9.93554C78.0226 9.93554 78.7227 10.6042 78.7708 11.5114C78.7737 11.5665 78.8182 11.6114 78.8734 11.6114H80.3469C80.4021 11.6114 80.4469 11.5666 80.4469 11.5114V0.1C80.4469 0.0447716 80.4021 0 80.3469 0H78.8734ZM75.785 4.4488C75.785 4.50403 75.7403 4.5488 75.685 4.5488H75.1678C75.1126 4.5488 75.0678 4.50403 75.0678 4.4488V3.81087C75.0678 3.75564 75.1126 3.71087 75.1678 3.71087H75.685C75.7403 3.71087 75.785 3.75564 75.785 3.81087V4.4488ZM77.339 4.4488C77.339 4.50403 77.2942 4.5488 77.239 4.5488H76.7218C76.6665 4.5488 76.6218 4.50403 76.6218 4.4488V3.81087C76.6218 3.75564 76.6665 3.71087 76.7218 3.71087H77.239C77.2942 3.71087 77.339 3.75564 77.339 3.81087V4.4488ZM78.7734 4.4488C78.7734 4.50403 78.7286 4.5488 78.6734 4.5488H78.1562C78.101 4.5488 78.0562 4.50403 78.0562 4.4488V3.81087C78.0562 3.75564 78.101 3.71087 78.1562 3.71087H78.6734C78.7286 3.71087 78.7734 3.75564 78.7734 3.81087V4.4488Z" fill="#0000AF"/>
<path d="M144.738 23.8213C144.682 23.8213 144.638 23.8662 144.635 23.9213C144.587 24.8285 143.887 25.4972 142.964 25.4972C142.041 25.4972 141.341 24.8285 141.293 23.9213C141.29 23.8662 141.246 23.8213 141.191 23.8213H139.717C139.662 23.8213 139.617 23.8661 139.617 23.9213V35.3327C139.617 35.3879 139.662 35.4327 139.717 35.4327H141.191C141.246 35.4327 141.29 35.3878 141.293 35.3327C141.341 34.4255 142.041 33.7568 142.964 33.7568C143.887 33.7568 144.587 34.4255 144.635 35.3327C144.638 35.3878 144.682 35.4327 144.738 35.4327H146.211C146.266 35.4327 146.311 35.3879 146.311 35.3327V23.9213C146.311 23.8661 146.266 23.8213 146.211 23.8213H144.738ZM141.649 28.2701C141.649 28.3253 141.605 28.3701 141.549 28.3701H141.032C140.977 28.3701 140.932 28.3253 140.932 28.2701V27.7519C140.932 27.6966 140.977 27.6519 141.032 27.6519H141.549C141.605 27.6519 141.649 27.6966 141.649 27.7519V28.2701ZM143.203 28.2701C143.203 28.3253 143.158 28.3701 143.103 28.3701H142.586C142.531 28.3701 142.486 28.3253 142.486 28.2701V27.7519C142.486 27.6966 142.531 27.6519 142.586 27.6519H143.103C143.158 27.6519 143.203 27.6966 143.203 27.7519V28.2701ZM144.638 28.2701C144.638 28.3253 144.593 28.3701 144.538 28.3701H144.02C143.965 28.3701 143.92 28.3253 143.92 28.2701V27.7519C143.92 27.6966 143.965 27.6519 144.02 27.6519H144.538C144.593 27.6519 144.638 27.6966 144.638 27.7519V28.2701Z" fill="#0000AF"/>
<path d="M35.2627 65.5984C35.2627 65.5984 36.6971 64.6408 38.9683 64.8802" stroke="black" stroke-width="0.5" stroke-miterlimit="10" stroke-linecap="round" stroke-linejoin="round"/>
<path d="M44.5864 64.4014C44.5864 64.4014 46.1404 63.9226 48.4116 65" stroke="black" stroke-width="0.5" stroke-miterlimit="10" stroke-linecap="round" stroke-linejoin="round"/>
<path d="M37.4146 67.8728C37.7447 67.8728 38.0123 67.6049 38.0123 67.2743C38.0123 66.9437 37.7447 66.6758 37.4146 66.6758C37.0845 66.6758 36.8169 66.9437 36.8169 67.2743C36.8169 67.6049 37.0845 67.8728 37.4146 67.8728Z" fill="black"/>
<path d="M46.1406 67.8728C46.4707 67.8728 46.7383 67.6049 46.7383 67.2743C46.7383 66.9437 46.4707 66.6758 46.1406 66.6758C45.8106 66.6758 45.543 66.9437 45.543 67.2743C45.543 67.6049 45.8106 67.8728 46.1406 67.8728Z" fill="black"/>
<path d="M41.3589 71.4642C41.3589 71.4642 43.5105 70.8657 43.0324 70.1474C42.5542 69.4292 42.5542 69.4292 42.5542 69.4292" stroke="black" stroke-width="0.4" stroke-miterlimit="10" stroke-linecap="round" stroke-linejoin="round"/>
<path d="M37.2951 73.8582C37.2951 73.8582 41.0007 74.5764 42.3156 74.6961C42.4351 74.6961 42.4351 74.8158 42.4351 74.8158C42.1961 75.2946 41.0007 77.0902 39.3272 76.6114C37.4146 76.0129 37.1756 74.9355 37.2951 73.8582Z" stroke="black" stroke-width="0.4" stroke-miterlimit="10" stroke-linecap="round" stroke-linejoin="round"/>
<path d="M27.7319 69.3093C27.7319 69.3093 28.3296 70.3867 28.8078 70.3867" stroke="black" stroke-width="0.4" stroke-miterlimit="10" stroke-linecap="round" stroke-linejoin="round"/>
<path d="M20.4405 110.608L18.0498 129.761" stroke="black" stroke-width="0.3" stroke-miterlimit="10"/>
<rect x="99.6968" y="38.0488" width="37.1212" height="1.05692" rx="0.528458" fill="#0000AF"/>
<rect x="99.6968" y="42.2764" width="24.3939" height="1.05692" rx="0.528458" fill="#0000AF"/>
<rect x="121.97" y="78.2114" width="37.1212" height="1.05691" rx="0.528454" fill="#0000AF"/>
<rect x="121.97" y="82.439" width="24.3939" height="1.05691" rx="0.528454" fill="#0000AF"/>
<rect x="32.8789" y="13.7397" width="37.1212" height="1.05691" rx="0.528455" fill="#0000AF"/>
<rect x="32.8789" y="17.9675" width="24.3939" height="1.05691" rx="0.528455" fill="#0000AF"/>
<rect width="4.24043" height="1.05741" transform="matrix(0.930378 0.366601 -0.36882 0.929501 23.6763 100.723)" fill="#FFBB00"/>
<rect width="4.23529" height="1.0587" rx="0.1" transform="matrix(0.71995 -0.694026 0.696533 0.717525 12.7271 110.744)" fill="#FFBB00"/>
<rect width="4.23528" height="1.0587" rx="0.1" transform="matrix(0.719949 -0.694027 0.696532 0.717526 60.6821 113.651)" fill="#FFBB00"/>
<rect width="4.23117" height="1.05973" rx="0.1" transform="matrix(0.489677 0.871904 -0.873358 0.487079 45.0327 106.231)" fill="#FFBB00"/>
<rect width="4.24098" height="1.05727" rx="0.1" transform="matrix(0.950301 0.311334 -0.313301 0.949654 46.9385 96.6021)" fill="#FFBB00"/>
<rect width="4.24099" height="1.05727" rx="0.1" transform="matrix(0.9503 0.311334 -0.3133 0.949654 9.87646 123.658)" fill="#FFBB00"/>
<rect width="4.24199" height="1.05702" rx="0.1" transform="matrix(0.985455 -0.169936 0.171093 0.985255 28.6367 117.262)" fill="#FFBB00"/>
<rect width="4.23749" height="1.05815" rx="0.1" transform="matrix(0.816922 -0.576748 0.579436 0.815018 45.7485 125.331)" fill="#FFBB00"/>
</g>
<defs>
<clipPath id="clip0">
<rect width="175" height="130" fill="white"/>
</clipPath>
</defs>
</svg>
