<svg width="187" height="90" viewBox="0 0 187 90" fill="none" xmlns="http://www.w3.org/2000/svg">
<path d="M186.807 61.7449V62.627L185.853 62.8027C186.228 63.1556 186.534 63.5087 186.749 64.038C186.922 64.3908 187.008 64.9204 186.999 65.2732C187.008 65.8025 186.894 66.3324 186.664 66.8616C186.451 67.3909 186.138 67.7423 185.75 68.0952C185.352 68.448 184.891 68.8008 184.395 68.9772C183.335 69.3301 182.19 69.3301 181.13 68.9772C180.634 68.8008 180.176 68.448 179.775 68.0952C179.387 67.7423 179.075 67.3909 178.858 66.8616C178.623 66.5088 178.507 65.8025 178.516 65.2732C178.514 64.9204 178.574 64.3908 178.694 64.038C178.798 63.6852 178.969 63.333 179.202 62.9802C179.435 62.6274 179.729 62.2745 180.07 62.0981C180.44 61.9217 180.85 61.7449 181.275 61.7449V63.1559C181.028 63.1559 180.79 63.3334 180.574 63.3334C180.379 63.5098 180.207 63.6858 180.07 63.8623C179.932 64.0387 179.828 64.3905 179.761 64.5669C179.694 64.7433 179.66 65.0968 179.659 65.2732C179.648 65.6261 179.738 65.9782 179.922 66.331C180.091 66.6839 180.331 67.0367 180.622 67.2131C180.925 67.3895 181.262 67.5663 181.615 67.5663C182.361 67.7427 183.143 67.7427 183.887 67.5663C184.242 67.5663 184.579 67.3895 184.882 67.2131C185.172 67.0367 185.412 66.6839 185.579 66.331C185.761 65.9782 185.851 65.6261 185.84 65.2732C185.854 64.9204 185.805 64.5683 185.699 64.2154C185.607 64.039 185.456 63.6855 185.256 63.5091C185.052 63.3327 184.803 63.1559 184.531 63.1559C184.231 62.9795 183.917 62.9802 183.602 62.9802V65.0975H182.513V61.5692L186.807 61.7449Z" fill="#0000AF"/>
<path d="M178.694 59.0988V55.2173C178.694 54.3353 178.888 53.6293 179.274 53.1C179.475 52.9236 179.726 52.7475 180.004 52.5711C180.283 52.5711 180.585 52.3947 180.886 52.5711C181.215 52.3947 181.543 52.5722 181.848 52.7486C182.074 52.7486 182.282 52.9236 182.462 53.1C182.599 53.2764 182.712 53.2768 182.795 53.4532C182.864 53.6296 182.908 53.8064 182.933 53.8064H182.956C182.975 53.63 183.012 53.6296 183.067 53.4532C183.137 53.2768 183.236 53.1 183.358 53.1C183.51 52.9236 183.684 52.7486 183.873 52.7486C184.131 52.7486 184.401 52.5711 184.672 52.5711C185.108 52.5711 185.542 52.5711 185.971 52.5711C186.274 52.5711 186.562 52.3944 186.807 52.218V53.8064C186.629 53.8064 186.431 53.8057 186.225 53.9821C186.015 53.9821 185.812 53.9821 185.613 53.9821C185.291 53.9821 184.97 53.9821 184.653 53.9821C184.415 53.9821 184.185 54.1589 183.983 54.3353C183.804 54.3353 183.667 54.512 183.591 54.6884C183.499 55.0413 183.457 55.2177 183.467 55.5705V57.6878H186.807V59.0988H178.694ZM182.386 57.6878V55.3948C182.412 54.8656 182.298 54.5117 182.061 54.3353C181.936 54.1589 181.784 53.9821 181.617 53.9821C181.449 53.9821 181.271 53.9821 181.093 53.9821C180.876 53.9821 180.661 53.9821 180.461 53.9821C180.308 54.1585 180.176 54.1589 180.08 54.3353C179.987 54.5117 179.925 54.6878 179.899 54.8642C179.87 55.0406 179.854 55.2184 179.854 55.3948V57.6878H182.386Z" fill="#0000AF"/>
<path d="M178.501 46.5734C178.493 45.8678 178.609 45.3385 178.842 44.8093C179.061 44.4565 179.373 43.9269 179.761 43.5741C180.16 43.2212 180.618 43.0441 181.114 42.8677C182.174 42.5149 183.321 42.5149 184.381 42.8677C184.879 43.0441 185.337 43.2212 185.736 43.5741C186.122 43.9269 186.435 44.4565 186.65 44.8093C186.87 45.3385 186.985 46.0442 186.985 46.5734C186.985 47.1027 186.87 47.6309 186.65 48.1601C186.435 48.6894 186.122 49.0426 185.736 49.3954C185.337 49.7482 184.879 49.9253 184.381 50.1017C183.321 50.4546 182.174 50.4546 181.114 50.1017C180.618 49.9253 180.16 49.7482 179.761 49.3954C179.373 49.0426 179.061 48.6894 178.842 48.1601C178.607 47.6309 178.491 47.1027 178.501 46.5734ZM179.659 46.5734C179.65 46.9263 179.74 47.2784 179.922 47.6312C180.091 47.9841 180.331 48.1612 180.622 48.3376C180.925 48.6904 181.262 48.6901 181.615 48.8665C182.361 49.0429 183.143 49.0429 183.887 48.8665C184.242 48.6901 184.577 48.6904 184.882 48.3376C185.172 48.1612 185.412 47.9841 185.579 47.6312C185.75 47.2784 185.84 46.9263 185.84 46.5734C185.84 46.0442 185.75 45.691 185.579 45.3382C185.412 45.1618 185.172 44.8083 184.882 44.6319C184.577 44.4554 184.242 44.2794 183.887 44.103C183.143 43.9265 182.361 43.9265 181.615 44.103C181.259 44.2794 180.922 44.4554 180.618 44.6319C180.327 44.8083 180.087 45.1618 179.916 45.3382C179.74 45.691 179.652 46.2206 179.659 46.5734Z" fill="#0000AF"/>
<path d="M178.694 40.3996V38.987H183.413C183.69 38.987 183.967 38.9876 184.244 38.8112C184.508 38.8112 184.766 38.8119 184.999 38.6355C185.232 38.4591 185.422 38.2813 185.551 38.1049C185.692 37.7521 185.764 37.3999 185.764 37.0471C185.764 36.6943 185.692 36.3421 185.551 35.9893C185.422 35.6365 185.232 35.4594 184.999 35.2829C184.766 35.2829 184.51 35.1072 184.247 35.1072C183.97 35.1072 183.693 35.1072 183.416 35.1072H178.697V33.6945H183.884C184.349 33.6945 184.812 33.6956 185.246 33.872C185.618 34.0484 185.951 34.2238 186.218 34.5766C186.488 34.9294 186.687 35.2833 186.803 35.6361C187.059 36.5182 187.059 37.3996 186.803 38.4581C186.685 38.8109 186.486 39.1647 186.218 39.5176C185.95 39.694 185.616 40.0465 185.246 40.0465C184.812 40.2229 184.349 40.3996 183.884 40.3996H178.694Z" fill="#0000AF"/>
<path d="M178.694 30.8718V27.3435C178.676 26.8143 178.762 26.4618 178.944 25.9326C179.084 25.5797 179.297 25.2269 179.569 25.0505C179.809 24.8741 180.089 24.6973 180.389 24.6973C180.922 24.5209 181.485 24.5209 182.019 24.6973C182.317 24.6973 182.594 24.8741 182.832 25.0505C183.102 25.2269 183.314 25.5797 183.448 25.9326C183.626 26.4618 183.709 26.8143 183.691 27.3435V29.4608H186.807V31.0475L178.694 30.8718ZM182.534 29.4608V27.3435C182.534 27.3435 182.511 27.1668 182.465 26.9904C182.421 26.8139 182.347 26.6379 182.243 26.4615C182.139 26.285 182 26.2847 181.837 26.1083C181.636 26.1083 181.416 25.9326 181.195 25.9326C180.969 25.9326 180.745 26.1083 180.534 26.1083C180.373 26.1083 180.23 26.285 180.121 26.4615C180.019 26.6379 179.946 26.6382 179.909 26.8146C179.872 26.991 179.854 27.1671 179.856 27.3435V29.4608H182.534Z" fill="#0000AF"/>
<path d="M86.856 24.1691H94.8405V53.1001H86.856V24.1691Z" fill="#0000AF"/>
<path d="M112.521 24.1691H120.038V53.1001H111.483L107.043 35.2829H106.964V53.1001H99.676V24.1691H108.35L112.427 41.8106H112.507L112.521 24.1691Z" fill="#0000AF"/>
<path d="M138.226 24.1691H145.743V53.1001H137.189L132.748 35.2829H132.669V53.1001H125.409V24.1691H134.085L138.161 41.8106H138.24L138.226 24.1691Z" fill="#0000AF"/>
<path d="M150.263 38.6356C150.263 36.3422 150.316 34.4017 150.422 32.4611C150.478 30.8734 150.857 29.2846 151.54 27.8733C152.2 26.462 153.276 25.4038 154.601 24.6982C155.998 23.9925 157.977 23.6404 160.535 23.6404C163.092 23.6404 165.071 23.9925 166.474 24.6982C167.795 25.4038 168.869 26.462 169.529 27.8733C170.214 29.2846 170.595 30.8734 170.651 32.4611C170.757 34.4017 170.81 36.3422 170.81 38.6356C170.81 40.929 170.757 43.046 170.651 44.8101C170.596 46.5743 170.214 48.1606 169.529 49.5719C168.869 50.8068 167.793 51.8657 166.474 52.5713C165.071 53.277 163.092 53.6308 160.535 53.6308C157.977 53.6308 155.998 53.277 154.601 52.5713C153.278 51.8657 152.202 50.8068 151.54 49.5719C150.856 48.1606 150.476 46.5743 150.422 44.8101C150.314 43.046 150.259 40.929 150.263 38.6356ZM162.575 38.6356C162.575 36.5186 162.548 34.9302 162.495 33.5189C162.474 32.6368 162.374 31.579 162.194 30.697C162.134 30.1677 161.919 29.6371 161.576 29.2843C161.269 29.1079 160.908 28.9328 160.537 28.9328C160.165 28.9328 159.803 29.1079 159.496 29.2843C159.152 29.6371 158.935 30.1677 158.875 30.697C158.697 31.579 158.598 32.6368 158.579 33.5189C158.524 34.9302 158.498 36.5186 158.498 38.6356C158.498 40.7526 158.524 42.3393 158.579 43.7506C158.598 44.6327 158.697 45.6922 158.875 46.5743C158.935 47.1035 159.152 47.6324 159.496 47.9852C159.803 48.1616 160.165 48.3384 160.537 48.3384C160.908 48.3384 161.269 48.1616 161.576 47.9852C161.919 47.6324 162.134 47.1035 162.194 46.5743C162.374 45.6922 162.474 44.6327 162.495 43.7506C162.55 42.3393 162.577 40.7526 162.575 38.6356Z" fill="#0000AF"/>
<path d="M86.9707 57.3347H94.1331V59.9809H90.3067V61.9207H93.8861V64.567H90.3067V69.3305H86.9707V57.3347Z" fill="#0000AF"/>
<path d="M104.347 63.3342C104.347 62.4521 104.37 61.57 104.416 60.688C104.439 60.1587 104.596 59.452 104.88 58.7464C105.157 58.2171 105.603 57.864 106.154 57.5111C107.749 56.9819 109.508 56.9819 111.102 57.5111C111.654 57.864 112.101 58.2171 112.376 58.7464C112.662 59.452 112.822 60.1587 112.844 60.688C112.888 61.57 112.909 62.4521 112.909 63.3342C112.909 64.2163 112.888 65.0983 112.844 65.9804C112.822 66.5096 112.664 67.2146 112.376 67.9203C112.103 68.4495 111.653 68.8027 111.102 69.1555C109.502 69.6848 107.754 69.6848 106.154 69.1555C105.603 68.8027 105.155 68.4495 104.88 67.9203C104.596 67.2146 104.437 66.5096 104.416 65.9804C104.37 65.0983 104.347 64.2163 104.347 63.3342ZM109.476 63.3342C109.476 62.4521 109.465 61.7461 109.442 61.2169C109.433 60.864 109.391 60.3345 109.315 59.9816C109.291 59.8052 109.201 59.6291 109.058 59.4527C108.934 59.2763 108.781 59.2753 108.625 59.2753C108.47 59.2753 108.315 59.2763 108.191 59.4527C108.049 59.6291 107.959 59.8052 107.932 59.9816C107.86 60.3345 107.819 60.864 107.809 61.2169C107.787 61.7461 107.777 62.4521 107.777 63.3342C107.777 64.2163 107.777 64.9205 107.809 65.4498C107.819 65.8026 107.86 66.1558 107.932 66.685C107.959 66.8614 108.049 67.0375 108.191 67.2139C108.315 67.2139 108.47 67.3914 108.625 67.3914C108.781 67.3914 108.934 67.2139 109.058 67.2139C109.201 67.0375 109.291 66.8614 109.315 66.685C109.391 66.1558 109.433 65.8026 109.442 65.4498C109.476 64.9205 109.476 64.2163 109.476 63.3342Z" fill="#0000AF"/>
<path d="M123.569 57.3347H128.567C129.718 57.3347 130.55 57.5118 131.062 58.041C131.612 58.7467 131.891 59.6277 131.834 60.5098C131.843 60.8626 131.792 61.2158 131.683 61.745C131.598 61.9214 131.46 62.275 131.275 62.4514C131.111 62.8042 130.898 62.9803 130.651 62.9803C130.4 63.1567 130.13 63.3334 129.853 63.3334C130.176 63.3334 130.492 63.5085 130.774 63.6849C131.055 63.8613 131.284 64.0384 131.436 64.3912C131.596 64.5676 131.69 64.9205 131.707 65.2733C131.736 65.6261 131.752 65.9783 131.752 66.3311V67.3906C131.752 67.7435 131.752 67.9199 131.79 68.2727C131.803 68.4491 131.84 68.6252 131.9 68.8016C131.933 68.8016 131.983 68.9773 132.044 68.9773C132.108 68.9773 132.182 69.1548 132.263 69.1548V69.3305H128.749C128.684 69.1541 128.638 69.1537 128.615 68.9773C128.58 68.8009 128.555 68.6259 128.543 68.6259C128.523 68.4495 128.513 68.2717 128.509 68.0953C128.509 67.9188 128.509 67.7428 128.509 67.5664C128.509 67.2135 128.509 67.0371 128.484 66.6843C128.458 66.3314 128.463 66.155 128.463 65.8022C128.463 65.273 128.379 64.9208 128.22 64.7444C128.029 64.568 127.788 64.567 127.544 64.567H126.898V69.3305H123.566L123.569 57.3347ZM126.898 62.2739H127.38C127.519 62.2739 127.657 62.2739 127.791 62.2739C127.927 62.2739 128.052 62.0982 128.154 62.0982C128.273 61.9218 128.361 61.7457 128.412 61.5693C128.484 61.3929 128.516 61.2158 128.509 60.8629C128.534 60.6865 128.516 60.5105 128.46 60.334C128.401 60.1576 128.306 60.1573 128.179 59.9809C127.913 59.8045 127.597 59.6277 127.279 59.6277H126.898V62.2739Z" fill="#0000AF"/>
<path d="M147.507 60.6879C147.507 60.6879 147.507 60.5112 147.507 60.3348C147.502 60.1583 147.475 59.9823 147.431 59.8059C147.393 59.6294 147.322 59.6291 147.225 59.4527C147.176 59.4527 147.114 59.2752 147.047 59.2752C146.978 59.2752 146.906 59.2752 146.833 59.2752C146.652 59.2752 146.472 59.2763 146.323 59.4527C146.179 59.6291 146.085 59.8052 146.059 59.9816C145.987 60.3344 145.949 60.864 145.951 61.2168C145.951 61.7461 145.932 62.4521 145.932 63.3342C145.932 64.2162 145.932 64.9205 145.958 65.4497C145.962 65.8026 146.001 66.1557 146.073 66.685C146.098 66.8614 146.196 67.0375 146.35 67.2139C146.491 67.2139 146.66 67.3903 146.833 67.2139C146.964 67.2139 147.091 67.2139 147.195 67.2139C147.299 67.0375 147.373 67.0389 147.407 66.8624C147.553 66.3332 147.613 65.8033 147.583 65.274V64.3919H150.815V65.0983C150.824 65.804 150.75 66.3325 150.596 67.0382C150.469 67.5674 150.229 67.9206 149.896 68.2734C149.561 68.8027 149.13 68.9791 148.647 69.1555C148.049 69.5083 147.415 69.5087 146.782 69.5087C145.935 69.5087 145.09 69.3319 144.311 69.1555C143.758 68.8027 143.309 68.4495 143.035 67.9202C142.748 67.2146 142.589 66.5086 142.568 65.8029C142.527 65.0973 142.506 64.2162 142.506 63.3342C142.506 62.2757 142.527 61.57 142.571 60.6879C142.594 60.1587 142.753 59.452 143.039 58.7463C143.314 58.2171 143.762 57.8639 144.314 57.5111C145.092 57.1583 145.937 56.9832 146.786 57.1596C147.505 56.9832 148.223 57.159 148.901 57.3354C149.37 57.5118 149.785 57.8646 150.102 58.2174C150.377 58.5703 150.559 59.0999 150.633 59.4527C150.711 59.9819 150.75 60.3344 150.75 60.8637V61.7457H147.518L147.507 60.6879Z" fill="#0000AF"/>
<path d="M161.401 57.3347H168.564V59.9809H164.734V61.9207H168.313V64.567H164.734V66.5086H168.726V69.3305H161.401V57.3347Z" fill="#0000AF"/>
<path d="M13.314 0L0 7.76293V82.2085L13.3175 89.9714L77.2466 52.7486V37.2228L13.314 0ZM63.4034 30.1662L51.5271 37.047L39.6439 30.1662L51.5236 23.2871L63.4034 30.1662ZM50.6751 37.5759L39.0599 44.2793V30.8725L50.6751 37.5759ZM50.6751 22.7582L38.7794 29.6373L26.8962 22.7582L38.7759 15.8773L50.6751 22.7582ZM37.9697 15.3484L26.0723 22.2275L14.1855 15.3484L26.0652 8.46755L37.9697 15.3484ZM13.6033 29.8147V16.053L25.4848 22.9339V36.6939L13.6033 29.8147ZM25.2184 37.5759L13.6033 44.2793V30.8725L25.2184 37.5759ZM12.7336 88.5604L0.848559 81.6796V67.9196L12.7336 74.8004V88.5604ZM12.7336 73.7409L0.848559 66.8618V53.1001L12.7336 59.9809V73.7409ZM12.7336 58.9231L0.848559 52.0423V38.2823L12.7336 45.1614V58.9231ZM12.7336 44.1036L0.848559 37.2228V23.4628L12.7336 30.3436V44.1036ZM12.7336 29.2841L0.848559 22.405V8.645L12.7336 15.5241V29.2841ZM13.314 14.8195L1.43073 7.93865L13.3105 1.0578L25.1902 7.93865L13.314 14.8195ZM25.4584 81.857L13.5751 88.7361V74.9762L25.4584 68.0953V81.857ZM25.476 67.0375L13.5927 73.9184V60.1566L25.476 53.2775V67.0375ZM25.476 52.218L13.5927 59.0989V45.3389L25.476 38.458V52.218ZM26.3158 23.4628L38.199 30.3436V44.1036L26.3158 37.2228V23.4628ZM26.3158 53.1001L37.9309 59.8052L26.3158 66.5086V53.1001ZM38.2131 74.4473L26.3334 81.3264V67.5664L38.2131 60.6873V74.4473ZM26.8997 52.3954L38.7829 45.5146L50.6751 52.3954L38.7971 59.2746L26.8997 52.3954ZM50.9256 67.0375L39.0599 73.9184V60.1566L50.9397 53.2775L50.9256 67.0375ZM39.6333 44.9857L51.5165 38.1048L63.3963 44.9857L51.5201 51.8665L39.6333 44.9857ZM63.668 59.6278L51.7882 66.6843V52.7486L63.668 45.8678V59.6278ZM52.3651 37.5759L64.2502 30.6968L76.1299 37.5759L64.2537 44.4568L52.3651 37.5759ZM76.3945 52.218L64.5148 59.0989V45.3389L76.3945 38.458V52.218Z" fill="#0000AF"/>
</svg>
