<svg width="47" height="47" viewBox="0 0 47 47" fill="none" xmlns="http://www.w3.org/2000/svg">
<circle cx="20.7353" cy="26.2646" r="20.7353" fill="#0000AF"/>
<g clip-path="url(#clip0)">
<path d="M28.7415 32.9113L27.357 30.6035C26.7175 29.5383 26.3796 28.3182 26.3796 27.0764V25.0548C26.3796 22.5026 24.6766 20.344 22.3478 19.6481V18.2006C22.3478 17.3112 21.6245 16.5879 20.735 16.5879C19.8456 16.5879 19.1223 17.3112 19.1223 18.2006V19.6481C16.7935 20.344 15.0904 22.5026 15.0904 25.0548V27.0764C15.0904 28.3182 14.7525 29.5374 14.1139 30.6027L12.7294 32.9105C12.6544 33.0355 12.6527 33.1903 12.7245 33.3169C12.7963 33.4435 12.9294 33.5218 13.0745 33.5218H28.3956C28.5407 33.5218 28.6746 33.4435 28.7463 33.3178C28.8181 33.1919 28.8157 33.0355 28.7415 32.9113Z" fill="white"/>
<path d="M18.1958 34.3281C18.6506 35.278 19.6134 35.9409 20.735 35.9409C21.8567 35.9409 22.8195 35.278 23.2743 34.3281H18.1958Z" fill="white"/>
</g>
<circle cx="37.3234" cy="9.67647" r="9.17647" fill="#EB5757" stroke="white"/>
<path d="M40.0688 12.2828V13.3828H34.9088V12.5128L37.6888 9.87281C38.0022 9.57281 38.2122 9.31281 38.3188 9.09281C38.4322 8.86615 38.4888 8.64281 38.4888 8.42281C38.4888 8.09615 38.3788 7.84615 38.1588 7.67281C37.9388 7.49948 37.6155 7.41281 37.1888 7.41281C36.4755 7.41281 35.9288 7.65615 35.5488 8.14281L34.6388 7.44281C34.9122 7.07615 35.2788 6.79281 35.7388 6.59281C36.2055 6.38615 36.7255 6.28281 37.2988 6.28281C38.0588 6.28281 38.6655 6.46281 39.1188 6.82281C39.5722 7.18281 39.7988 7.67281 39.7988 8.29281C39.7988 8.67281 39.7188 9.02948 39.5588 9.36281C39.3988 9.69615 39.0922 10.0761 38.6388 10.5028L36.7688 12.2828H40.0688Z" fill="white"/>
<defs>
<clipPath id="clip0">
<rect x="11.0588" y="16.5879" width="19.3529" height="19.3529" fill="white"/>
</clipPath>
</defs>
</svg>
