<svg width="55" height="54" viewBox="0 0 55 54" fill="none" xmlns="http://www.w3.org/2000/svg">
<path d="M38.0311 0H16.9022C14.2166 0 12.0312 2.14521 12.0312 4.78234V49.2176C12.0312 51.8547 14.2166 53.9999 16.9022 53.9999H38.0311C40.7166 53.9999 42.902 51.8547 42.902 49.2176V4.78234C42.902 2.14521 40.7166 0 38.0311 0ZM16.9022 2.10937H38.0311C39.532 2.10937 40.7535 3.30866 40.7535 4.78234V5.48189H17.0113C16.4179 5.48189 15.937 5.95403 15.937 6.53658C15.937 7.11871 16.4179 7.59126 17.0113 7.59126H40.7535V45.3527H14.1797V7.59126H17.0113C17.6046 7.59126 18.0855 7.11871 18.0855 6.53658C18.0855 5.95403 17.6046 5.48189 17.0113 5.48189H14.1797V4.78234C14.1797 3.30866 15.4012 2.10937 16.9022 2.10937ZM40.7535 49.2176C40.7535 50.6912 39.532 51.8905 38.0311 51.8905H16.9022C15.4012 51.8905 14.1797 50.6912 14.1797 49.2176V47.4621H40.7535V49.2176Z" fill="black"/>
<path d="M25.2248 23.7956H17.644C17.0507 23.7956 16.5698 23.3234 16.5698 22.7409V15.2983C16.5698 14.7158 17.0507 14.2437 17.644 14.2437H25.2248C25.8182 14.2437 26.2991 14.7158 26.2991 15.2983V22.7409C26.2991 23.3234 25.8182 23.7956 25.2248 23.7956ZM18.7183 21.6862H24.1506V16.353H18.7183V21.6862Z" fill="#0000AF"/>
<path d="M37.2893 23.7956H29.7085C29.1152 23.7956 28.6343 23.3234 28.6343 22.7409V15.2983C28.6343 14.7158 29.1152 14.2437 29.7085 14.2437H37.2893C37.8826 14.2437 38.3635 14.7158 38.3635 15.2983V22.7409C38.3635 23.3234 37.8826 23.7956 37.2893 23.7956ZM30.7827 21.6862H36.2151V16.353H30.7827V21.6862Z" fill="#0000AF"/>
<path d="M25.2248 35.5352H17.644C17.0507 35.5352 16.5698 35.0631 16.5698 34.4806V27.0376C16.5698 26.4555 17.0507 25.9829 17.644 25.9829H25.2248C25.8182 25.9829 26.2991 26.4555 26.2991 27.0376V34.4806C26.2991 35.0631 25.8182 35.5352 25.2248 35.5352ZM18.7183 33.4259H24.1506V28.0923H18.7183V33.4259Z" fill="#0000AF"/>
<path d="M37.2893 35.5352H29.7085C29.1152 35.5352 28.6343 35.0631 28.6343 34.4806V27.0376C28.6343 26.4555 29.1152 25.9829 29.7085 25.9829H37.2893C37.8826 25.9829 38.3635 26.4555 38.3635 27.0376V34.4806C38.3635 35.0631 37.8826 35.5352 37.2893 35.5352ZM30.7827 33.4259H36.2151V28.0923H30.7827V33.4259Z" fill="#0000AF"/>
<path d="M28.7915 50.731H26.1416C25.5483 50.731 25.0674 50.2588 25.0674 49.6763C25.0674 49.0937 25.5483 48.6216 26.1416 48.6216H28.7915C29.3848 48.6216 29.8657 49.0937 29.8657 49.6763C29.8657 50.2588 29.3848 50.731 28.7915 50.731Z" fill="black"/>
</svg>
