<svg width="55" height="54" viewBox="0 0 55 54" fill="none" xmlns="http://www.w3.org/2000/svg">
<path d="M28.7915 50.731H26.1416C25.5483 50.731 25.0674 50.2588 25.0674 49.6763C25.0674 49.0937 25.5483 48.6216 26.1416 48.6216H28.7915C29.3848 48.6216 29.8657 49.0937 29.8657 49.6763C29.8657 50.2588 29.3848 50.731 28.7915 50.731Z" fill="black"/>
<path fill-rule="evenodd" clip-rule="evenodd" d="M16.9022 0H38.0311C40.7166 0 42.902 2.14521 42.902 4.78234V16H40.7535V7.59126H17.0113H14.1797V45.3527H40.7535V36H42.902V49.2176C42.902 51.8547 40.7166 53.9999 38.0311 53.9999H16.9022C14.2166 53.9999 12.0312 51.8547 12.0312 49.2176V4.78234C12.0312 2.14521 14.2166 0 16.9022 0ZM17.0113 5.48189H40.7535V4.78234C40.7535 3.30866 39.532 2.10937 38.0311 2.10937H16.9022C15.4012 2.10937 14.1797 3.30866 14.1797 4.78234V5.48189H17.0113ZM38.0311 51.8905C39.532 51.8905 40.7535 50.6912 40.7535 49.2176V47.4621H14.1797V49.2176C14.1797 50.6912 15.4012 51.8905 16.9022 51.8905H38.0311Z" fill="black"/>
<circle cx="41.5" cy="26.5" r="10.5" stroke="#0000AF" stroke-width="2"/>
<rect x="37" y="22" width="9.5" height="1.5" rx="0.75" fill="#0000AF"/>
<rect x="37" y="25" width="9.5" height="1.5" rx="0.75" fill="#0000AF"/>
<rect x="42.5" y="25" width="8" height="1.5" rx="0.75" transform="rotate(90 42.5 25)" fill="#0000AF"/>
<rect x="32" y="15" width="23" height="2" rx="1" transform="rotate(90 32 15)" fill="#0000AF"/>
</svg>
