<svg width="42" height="60" viewBox="0 0 42 60" fill="none" xmlns="http://www.w3.org/2000/svg">
<circle cx="19.5" cy="46.5" r="9.5" stroke="#0000AF" stroke-width="2"/>
<rect x="15" y="42" width="9.5" height="1.5" rx="0.75" fill="#0000AF"/>
<rect x="15" y="45" width="9.5" height="1.5" rx="0.75" fill="#0000AF"/>
<rect x="20.5" y="45" width="8" height="1.5" rx="0.75" transform="rotate(90 20.5 45)" fill="#0000AF"/>
<path d="M17.0145 15.1931C14.7202 16.2548 0.195462 25.6756 0.195462 31.776C0.195462 32.8378 0.156735 34.2664 0.117847 35.9073C-0.154368 46.2548 -0.037676 51.0811 1.36229 52.3166C1.65395 52.5676 1.9845 52.6835 2.33449 52.6835C2.41226 52.6835 2.47057 52.6835 2.54834 52.6835C3.88998 52.4905 5.17325 50.9846 6.16489 48.9962C7.40931 55.2511 13.0091 60 19.6784 60C27.281 60 33.4641 53.8611 33.4641 46.3321C33.4641 45.9653 33.4254 45.5984 33.4059 45.2509C34.4948 46.3706 35.7391 47.5676 36.9835 47.0271C38.1307 46.5444 38.2474 44.9808 38.2085 43.668C38.053 38.417 38.0724 18.359 38.1891 17.3166C38.3252 16.6409 38.2669 12.4325 38.228 10.1351H40C41.1046 10.1351 42 9.23972 42 8.13515V2C42 0.895428 41.1046 0 40 0H16.4675C15.3629 0 14.4675 0.89543 14.4675 2V8.13515C14.4675 9.23972 15.3629 10.1351 16.4675 10.1351H18.2395C18.3951 11.9305 18.259 14.6139 17.0145 15.1931ZM19.6784 58.0311C13.1841 58.0311 7.89544 52.78 7.89544 46.3321C7.89544 39.8842 13.1841 34.6331 19.6784 34.6331C26.1726 34.6331 31.4615 39.8842 31.4615 46.3321C31.4615 52.78 26.1726 58.0311 19.6784 58.0311ZM20.7089 32.6642V32.7026C20.359 32.664 20.0284 32.6449 19.6784 32.6449C14.759 32.6449 10.423 35.251 7.99251 39.112C8.28417 36.1391 9.80081 33.7452 12.1341 31.0618C13.2618 29.749 15.1091 28.0502 17.5396 27.4517C19.2506 27.0656 26.095 26.5832 27.0672 28.3399C27.3394 28.8225 27.6504 29.3052 27.9615 29.7878C22.1283 32.394 20.7673 32.6449 20.7089 32.6642ZM29.1281 31.448C30.1003 32.838 31.0336 34.2472 31.0336 35.251C31.0336 36.5059 31.0725 37.6642 31.1114 38.7067C29.4976 36.3129 27.1449 34.4787 24.3644 33.4749C25.5311 33.0116 27.0865 32.3746 29.1281 31.448ZM18.4701 8.14667C17.3655 8.14667 16.4701 7.25124 16.4701 6.14667V3.98847C16.4701 2.8839 17.3655 1.98848 18.4701 1.98848H38.0169C39.1215 1.98848 40.0169 2.88391 40.0169 3.98848V6.14668C40.0169 7.25125 39.1215 8.14667 38.0169 8.14667H18.4701ZM20.2423 10.1351H36.2447C36.2835 13.3012 36.303 16.5059 36.2447 16.9499C36.0502 17.9537 36.0891 39.8457 36.2057 43.726C36.2252 44.421 36.1862 44.8069 36.1473 45.0386C35.7001 44.749 35.039 44.0735 34.689 43.726C34.3974 43.4171 34.1254 43.1468 33.9115 42.9537C33.6587 42.7221 33.0364 41.5059 33.0364 35.251C33.0364 33.5329 31.831 31.8148 30.5282 30.0001C29.9255 29.1314 29.3033 28.2434 28.8172 27.3747C26.795 23.7646 17.1507 25.5019 17.034 25.5405C14.1174 26.2548 11.9396 28.2434 10.6174 29.7685C8.18691 32.587 5.62051 36.0039 5.9705 41.0425C6.24272 44.9422 3.90944 49.749 2.56781 50.5984C1.79005 48.6873 2.00395 40.1545 2.10117 35.946C2.14006 34.3051 2.17879 32.8378 2.17879 31.776C2.17879 27.2973 14.8369 18.3978 17.8702 16.9692C20.3201 15.8302 20.3979 12.085 20.2423 10.1351Z" fill="black"/>
</svg>
