<svg width="70" height="45" viewBox="0 0 70 45" fill="none" xmlns="http://www.w3.org/2000/svg">
<g clip-path="url(#clip0)">
<path d="M35 1C31.134 1 28 4.13396 28 8C28 11.866 31.134 15 35 15C38.8644 14.9962 41.9962 11.8644 42 8C42 4.13396 38.866 1 35 1ZM35 12.6667C32.4227 12.6667 30.3333 10.5773 30.3333 8C30.3333 5.42269 32.4227 3.33333 35 3.33333C37.5773 3.33333 39.6667 5.42269 39.6667 8C39.6667 10.5773 37.5773 12.6667 35 12.6667Z" fill="#0000AF"/>
<path d="M39.6667 16.167H39.3913L39.1452 16.2895C36.5346 17.5893 33.4654 17.5893 30.8548 16.2895L30.6087 16.167H30.3333C27.1133 16.1708 24.5038 18.7803 24.5 22.0003V29.0003C24.5 30.9333 26.067 32.5003 28 32.5003H42C43.933 32.5003 45.5 30.9333 45.5 29.0003V22.0003C45.4962 18.7803 42.8867 16.1708 39.6667 16.167ZM43.1667 29.0003C43.1667 29.6446 42.6443 30.167 42 30.167H28C27.3557 30.167 26.8333 29.6446 26.8333 29.0003V22.0003C26.8336 20.164 28.253 18.64 30.0848 18.5097C33.202 19.9563 36.7981 19.9563 39.9152 18.5097C41.7468 18.64 43.1664 20.164 43.1667 22.0003V29.0003Z" fill="black"/>
<path d="M57.5 13.5C53.634 13.5 50.5 16.634 50.5 20.5C50.5 24.366 53.634 27.5 57.5 27.5C61.366 27.5 64.5 24.366 64.5 20.5C64.4962 16.6356 61.3644 13.5038 57.5 13.5ZM57.5 25.1667C54.9227 25.1667 52.8333 23.0773 52.8333 20.5C52.8333 17.9227 54.9227 15.8333 57.5 15.8333C60.0773 15.8333 62.1667 17.9227 62.1667 20.5C62.1667 23.0773 60.0773 25.1667 57.5 25.1667Z" fill="#0000AF"/>
<path d="M62.1667 28.667H61.8913L61.6452 28.7837C59.0346 30.0833 55.9654 30.0833 53.3548 28.7837L53.1087 28.667H52.8333C49.6133 28.6708 47.0038 31.2803 47 34.5003V41.5003C47 43.4333 48.567 45.0003 50.5 45.0003H64.5C66.433 45.0003 68 43.4333 68 41.5003V34.5003C67.9962 31.2803 65.3867 28.6708 62.1667 28.667ZM65.6667 41.5003C65.6667 42.1446 65.1443 42.667 64.5 42.667H50.5C49.8557 42.667 49.3333 42.1446 49.3333 41.5003V34.5003C49.3336 32.664 50.753 31.14 52.5848 31.0097C55.702 32.4563 59.298 32.4563 62.4152 31.0097C64.247 31.14 65.6664 32.664 65.6667 34.5003V41.5003Z" fill="black"/>
<path d="M12.5 13.5C8.63396 13.5 5.5 16.634 5.5 20.5C5.5 24.366 8.63396 27.5 12.5 27.5C16.366 27.5 19.5 24.366 19.5 20.5C19.4962 16.6356 16.3644 13.5038 12.5 13.5ZM12.5 25.1667C9.92269 25.1667 7.83333 23.0773 7.83333 20.5C7.83333 17.9227 9.92269 15.8333 12.5 15.8333C15.0773 15.8333 17.1667 17.9227 17.1667 20.5C17.1667 23.0773 15.0773 25.1667 12.5 25.1667Z" fill="#0000AF"/>
<path d="M17.1667 28.667H16.8913L16.6452 28.7837C14.0346 30.0833 10.9654 30.0833 8.35483 28.7837L8.10867 28.667H7.83333C4.61333 28.6708 2.00379 31.2803 2 34.5003V41.5003C2 43.4333 3.56698 45.0003 5.5 45.0003H19.5C21.433 45.0003 23 43.4333 23 41.5003V34.5003C22.9962 31.2803 20.3867 28.6708 17.1667 28.667ZM20.6667 41.5003C20.6667 42.1446 20.1443 42.667 19.5 42.667H5.5C4.85571 42.667 4.33333 42.1446 4.33333 41.5003V34.5003C4.33362 32.664 5.75302 31.14 7.58483 31.0097C10.702 32.4563 14.298 32.4563 17.4152 31.0097C19.247 31.14 20.6664 32.664 20.6667 34.5003V41.5003Z" fill="black"/>
</g>
<defs>
<clipPath id="clip0">
<rect width="70" height="45" fill="white"/>
</clipPath>
</defs>
</svg>
