<svg width="53" height="61" viewBox="0 0 53 61" fill="none" xmlns="http://www.w3.org/2000/svg">
<path d="M53 13.6429L53 56.3571C53 58.9172 50.944 61 48.4166 61L24.5834 61C22.056 61 20 58.9172 20 56.3571L20 50.6618L21.8325 50.6618L21.8325 56.3571C21.8325 57.8929 23.0664 59.1428 24.5825 59.1428L48.4158 59.1428C49.9319 59.1428 51.1658 57.8929 51.1658 56.3571L51.1658 13.6429C51.1658 12.1071 49.9319 10.8572 48.4158 10.8572L33.8412 10.8572L33.8421 9L48.4166 9C50.944 9 53 11.0827 53 13.6429Z" fill="black"/>
<path d="M39.1433 46H33.9759C33.4368 46 32.9998 46.437 32.9998 46.9761C32.9998 47.5152 33.4368 47.9522 33.9759 47.9522H39.1433C39.6824 47.9522 40.1194 47.5152 40.1194 46.9761C40.1194 46.437 39.6824 46 39.1433 46Z" fill="#0000AF"/>
<path d="M33.918 47.2446L33.918 4.63186C33.918 2.07779 31.8402 -9.0823e-08 29.2861 -2.02465e-07L5.20061 -1.25528e-06C2.64665 -1.36691e-06 0.568752 2.07779 0.568752 4.63185L0.56875 47.2446C0.56875 49.7985 2.64654 51.8764 5.20061 51.8764L29.2861 51.8764C31.8402 51.8764 33.918 49.7985 33.918 47.2446ZM5.19975 50.0237C3.66759 50.0237 2.42066 48.7767 2.42066 47.2446L2.42066 4.63185C2.42066 3.09969 3.66759 1.85276 5.19975 1.85276L29.2853 1.85276C30.8174 1.85276 32.0643 3.09969 32.0643 4.63186L32.0643 47.2446C32.0643 48.7767 30.8174 50.0237 29.2853 50.0237L5.19975 50.0237Z" fill="black"/>
<path d="M22.9345 17.4463C21.9922 17.4463 21.2432 18.1959 21.2432 19.1391C21.2432 20.058 21.9922 20.8318 22.9345 20.8318C23.9009 20.8318 24.6258 20.058 24.6258 19.1391C24.6258 18.1959 23.8526 17.4463 22.9345 17.4463Z" fill="#0000AF"/>
<path d="M27.0958 14.5454C27.3869 13.9429 27.1388 13.211 26.5078 12.9881C25.4211 12.6041 24.2459 12.3926 23.0311 12.3926C21.7864 12.3926 20.5822 12.6217 19.4686 13.0297C18.844 13.2585 18.6004 13.9861 18.8897 14.585C19.1867 15.1997 19.9295 15.4393 20.578 15.226C21.3488 14.9723 22.1689 14.835 23.0311 14.835C23.8695 14.835 24.6666 14.9594 25.4153 15.1946C26.0632 15.3981 26.8004 15.1569 27.0958 14.5454Z" fill="#0000AF"/>
<path d="M29.3544 9.84293C29.6796 9.16531 29.4012 8.34585 28.7013 8.07179C26.9308 7.37849 25.0119 7 22.9827 7C20.9461 7 19.0048 7.38123 17.223 8.0922C16.5302 8.36862 16.2581 9.18211 16.5808 9.85454C16.9123 10.5451 17.7436 10.8228 18.4622 10.5575C19.87 10.038 21.3983 9.7568 22.9827 9.7568C24.5691 9.7568 26.085 10.0387 27.4875 10.5487C28.2026 10.8087 29.0251 10.5288 29.3544 9.84293Z" fill="#0000AF"/>
<path d="M41.7477 26.2954C40.8054 26.2954 40.0564 27.0451 40.0564 27.9882C40.0564 28.9071 40.8054 29.681 41.7477 29.681C42.7142 29.681 43.439 28.9071 43.439 27.9882C43.439 27.0451 42.6658 26.2954 41.7477 26.2954Z" fill="#0000AF"/>
<path d="M45.909 23.3946C46.2001 22.792 45.952 22.0601 45.3211 21.8372C44.2344 21.4532 43.0592 21.2417 41.8443 21.2417C40.5997 21.2417 39.3954 21.4708 38.2818 21.8788C37.6572 22.1076 37.4136 22.8352 37.7029 23.4342C37.9999 24.0488 38.7428 24.2885 39.3912 24.0751C40.1621 23.8214 40.9821 23.6841 41.8443 23.6841C42.6828 23.6841 43.4798 23.8085 44.2286 24.0437C44.8765 24.2473 45.6136 24.006 45.909 23.3946Z" fill="#0000AF"/>
<path d="M48.1676 18.692C48.4928 18.0144 48.2144 17.195 47.5145 16.9209C45.7441 16.2276 43.8251 15.8491 41.7959 15.8491C39.7594 15.8491 37.818 16.2304 36.0362 16.9413C35.3435 17.2177 35.0713 18.0312 35.3941 18.7037C35.7255 19.3942 36.5568 19.6719 37.2755 19.4067C38.6832 18.8871 40.2115 18.6059 41.7959 18.6059C43.3823 18.6059 44.8982 18.8878 46.3008 19.3978C47.0158 19.6578 47.8384 19.378 48.1676 18.692Z" fill="#0000AF"/>
<path d="M19.1435 37H6.9761C6.43701 37 6 37.437 6 37.9761C6 38.5152 6.43701 38.9522 6.9761 38.9522H19.1435C19.6826 38.9522 20.1196 38.5152 20.1196 37.9761C20.1196 37.437 19.6826 37 19.1435 37Z" fill="#0000AF"/>
<path d="M28.1435 42.8564H6.9761C6.43701 42.8564 6 43.2935 6 43.8325C6 44.3716 6.43701 44.8086 6.9761 44.8086H28.1435C28.6826 44.8086 29.1196 44.3716 29.1196 43.8325C29.1196 43.2935 28.6826 42.8564 28.1435 42.8564Z" fill="#0000AF"/>
</svg>
