<svg width="58" height="58" viewBox="0 0 58 58" fill="none" xmlns="http://www.w3.org/2000/svg">
<path d="M39.0239 14.8564H11.9761C11.437 14.8564 11 15.2935 11 15.8325C11 16.3716 11.437 16.8086 11.9761 16.8086H39.0239C39.563 16.8086 40 16.3716 40 15.8325C40 15.2935 39.563 14.8564 39.0239 14.8564Z" fill="#0000AF"/>
<path d="M26.0239 30.7607H11.9761C11.437 30.7607 11 31.1978 11 31.7368C11 32.2759 11.437 32.7129 11.9761 32.7129H26.0239C26.563 32.7129 27 32.2759 27 31.7368C27 31.1978 26.563 30.7607 26.0239 30.7607Z" fill="#0000AF"/>
<path d="M39.0239 22.8086H11.9761C11.437 22.8086 11 23.2456 11 23.7847C11 24.3238 11.437 24.7608 11.9761 24.7608H39.0239C39.563 24.7608 40 24.3238 40 23.7847C40 23.2456 39.563 22.8086 39.0239 22.8086Z" fill="#0000AF"/>
<path d="M50.2629 26.1453V6.77422C50.2629 3.03594 47.2383 0 43.5 0H6.76289C3.03594 0 0 3.03594 0 6.76289V43.5C0 47.2383 3.03594 50.2629 6.76289 50.2629H26.134C30.0422 56.1082 37.0883 59.0309 43.9871 57.6602C50.8859 56.2894 56.2895 50.8973 57.6602 43.9984C59.0309 37.0996 56.1195 30.0535 50.2629 26.1453ZM41.5629 23.2453C41.2457 23.2227 40.9285 23.2 40.6 23.2C35.2191 23.2 30.1441 25.7035 26.859 29.9629C26.5078 30.3141 25.5563 31.9 25.5563 31.9C24.8539 33.1121 23.9023 35.7629 23.9023 35.7629C23.6191 36.4992 23.4719 37.7 23.4719 37.7C22.8262 41.325 23.3813 45.052 25.0465 48.3371H6.76289C4.08945 48.3371 1.93711 46.1734 1.92578 43.5V6.76289C1.92578 4.08945 4.08945 1.93711 6.76289 1.92578H43.5C46.1734 1.92578 48.3258 4.08945 48.3371 6.76289V25.0352C48.0086 24.8766 47.6801 24.718 47.3402 24.5707C45.8109 23.925 44.1797 23.5285 42.5258 23.3473L41.5629 23.2453ZM40.6 56.0629C32.0586 56.0629 25.1371 49.1414 25.1371 40.6C25.1371 32.0586 32.0586 25.1371 40.6 25.1371C49.1414 25.1371 56.0629 32.0586 56.0629 40.6C56.0516 49.1414 49.1414 56.0516 40.6 56.0629Z" fill="black"/>
<path d="M40.6 47.3629C36.8617 47.3629 33.8371 44.3383 33.8371 40.6C33.8371 36.8617 36.8617 33.8371 40.6 33.8371C44.3383 33.8371 47.3629 36.8617 47.3629 40.6C47.3629 40.6113 47.4309 42.3332 47.4309 42.3445C47.4535 42.8543 47.884 43.2621 48.3938 43.2621C48.9148 43.2621 49.334 42.8543 49.3566 42.3332C49.3566 42.3219 49.2887 40.6113 49.2887 40.5887C49.2887 35.7855 45.3918 31.8887 40.5887 31.8887C35.7855 31.8887 31.8887 35.7855 31.8887 40.5887C31.8887 45.3918 35.7855 49.2887 40.5887 49.2887C41.1211 49.2887 41.5516 48.8582 41.5516 48.3258C41.5516 47.7934 41.1324 47.3629 40.6 47.3629Z" fill="#0000AF"/>
<path d="M44.2476 37.7681C43.8965 37.3716 43.3074 37.3263 42.8996 37.6661C42.4918 38.0059 42.4351 38.595 42.7636 39.0141L47.6008 44.8141C47.782 45.0294 48.0539 45.1653 48.3484 45.1653C48.6316 45.1653 48.9035 45.0407 49.0961 44.8141L53.9332 39.0141C54.1597 38.7536 54.239 38.3798 54.1144 38.0513C53.9898 37.7227 53.7066 37.4848 53.3668 37.4282C53.0156 37.3716 52.6758 37.5075 52.4492 37.7794L48.3597 42.6845L44.2476 37.7681Z" fill="#0000AF"/>
</svg>
