<svg width="52" height="46" viewBox="0 0 52 46" fill="none" xmlns="http://www.w3.org/2000/svg">
<path d="M4.6319 39.7549L47.2446 39.7549C49.7987 39.7549 51.8765 37.6771 51.8765 35.123L51.8765 11.0375C51.8765 8.48356 49.7987 6.40567 47.2446 6.40567L4.6319 6.40566C2.07794 6.40566 4.85102e-05 8.48345 4.82869e-05 11.0375L4.61813e-05 35.123C4.5958e-05 37.6771 2.07794 39.7549 4.6319 39.7549ZM1.85281 11.0367C1.85281 9.5045 3.09974 8.25757 4.6319 8.25757L47.2446 8.25757C48.7768 8.25757 50.0237 9.5045 50.0237 11.0367L50.0237 35.1222C50.0237 36.6543 48.7768 37.9013 47.2446 37.9013L4.6319 37.9013C3.09974 37.9013 1.85281 36.6543 1.85281 35.1222L1.85281 11.0367Z" fill="black"/>
<path d="M27.7577 27.9272H13.8232C13.271 27.9272 12.8232 28.375 12.8232 28.9272V29.1304C12.8232 29.6826 13.271 30.1304 13.8232 30.1304H27.7577C28.31 30.1304 28.7577 29.6826 28.7577 29.1304V28.9272C28.7577 28.375 28.31 27.9272 27.7577 27.9272Z" fill="#0000AF"/>
<path d="M19.7734 23.9137L12.5604 28.0781C12.0821 28.3543 11.9182 28.9659 12.1943 29.4442L12.2959 29.6201C12.572 30.0983 13.1836 30.2622 13.6619 29.9861L20.875 25.8216C21.3533 25.5455 21.5171 24.9339 21.241 24.4556L21.1394 24.2797C20.8633 23.8014 20.2517 23.6375 19.7734 23.9137Z" fill="#0000AF"/>
<path d="M20.875 32.5917L13.6619 28.4272C13.1836 28.1511 12.572 28.315 12.2959 28.7933L12.1943 28.9692C11.9182 29.4475 12.0821 30.0591 12.5604 30.3352L19.7734 34.4997C20.2517 34.7758 20.8633 34.6119 21.1394 34.1336L21.241 33.9577C21.5171 33.4794 21.3533 32.8678 20.875 32.5917Z" fill="#0000AF"/>
<path d="M25.108 18.0728L39.0425 18.0728C39.5948 18.0728 40.0425 17.625 40.0425 17.0728L40.0425 16.8696C40.0425 16.3174 39.5948 15.8696 39.0425 15.8696L25.108 15.8696C24.5557 15.8696 24.108 16.3174 24.108 16.8696L24.108 17.0728C24.108 17.625 24.5557 18.0728 25.108 18.0728Z" fill="#0000AF"/>
<path d="M33.0923 22.0863L40.3054 17.9219C40.7837 17.6457 40.9475 17.0341 40.6714 16.5558L40.5698 16.3799C40.2937 15.9017 39.6821 15.7378 39.2038 16.0139L31.9908 20.1784C31.5125 20.4545 31.3486 21.0661 31.6247 21.5444L31.7263 21.7203C32.0024 22.1986 32.614 22.3625 33.0923 22.0863Z" fill="#0000AF"/>
<path d="M31.9908 13.4083L39.2038 17.5728C39.6821 17.8489 40.2937 17.685 40.5698 17.2067L40.6714 17.0308C40.9475 16.5525 40.7836 15.9409 40.3054 15.6648L33.0923 11.5003C32.614 11.2242 32.0024 11.3881 31.7263 11.8664L31.6247 12.0423C31.3486 12.5206 31.5125 13.1322 31.9908 13.4083Z" fill="#0000AF"/>
<path d="M36.8379 0H15.6704C15.1313 0 14.6943 0.437013 14.6943 0.976095C14.6943 1.51518 15.1313 1.95219 15.6704 1.95219H36.8379C37.377 1.95219 37.814 1.51518 37.814 0.976095C37.814 0.437013 37.377 0 36.8379 0Z" fill="#0000AF"/>
<path d="M36.8379 44H15.6704C15.1313 44 14.6943 44.437 14.6943 44.9761C14.6943 45.5152 15.1313 45.9522 15.6704 45.9522H36.8379C37.377 45.9522 37.814 45.5152 37.814 44.9761C37.814 44.437 37.377 44 36.8379 44Z" fill="#0000AF"/>
</svg>
