<svg width="62" height="44" viewBox="0 0 62 44" fill="none" xmlns="http://www.w3.org/2000/svg">
<path d="M4.6319 43.6113L47.2446 43.6113C49.7987 43.6113 51.8765 41.5335 51.8765 38.9795L51.8765 14.894C51.8765 12.34 49.7987 10.2621 47.2446 10.2621L4.6319 10.2621C2.07794 10.2621 4.85102e-05 12.3399 4.82869e-05 14.894L4.61813e-05 38.9795C4.5958e-05 41.5335 2.07794 43.6113 4.6319 43.6113ZM1.85281 14.8931C1.85281 13.3609 3.09974 12.114 4.6319 12.114L47.2446 12.114C48.7768 12.114 50.0237 13.3609 50.0237 14.8931L50.0237 38.9786C50.0237 40.5108 48.7768 41.7577 47.2446 41.7577L4.6319 41.7577C3.09974 41.7577 1.85281 40.5108 1.85281 38.9786L1.85281 14.8931Z" fill="black"/>
<path fill-rule="evenodd" clip-rule="evenodd" d="M10 11L10 4.89406C10 2.34 12.0779 0.262207 14.6319 0.262207L57.2446 0.26221C59.7986 0.26221 61.8764 2.34011 61.8764 4.89407V28.9796C61.8764 31.5336 59.7986 33.6114 57.2446 33.6114H50.6941V31.7578H57.2446C58.7767 31.7578 60.0237 30.5109 60.0237 28.9787L60.0237 4.89321C60.0237 3.36105 58.7767 2.11412 57.2446 2.11412L14.6319 2.11411C13.0997 2.11411 11.8528 3.36104 11.8528 4.89321L11.8528 11H10Z" fill="black"/>
<path d="M19.8376 30H7.67019C7.1311 30 6.69409 30.437 6.69409 30.9761C6.69409 31.5152 7.1311 31.9522 7.67019 31.9522H19.8376C20.3767 31.9522 20.8137 31.5152 20.8137 30.9761C20.8137 30.437 20.3767 30 19.8376 30Z" fill="#0000AF"/>
<path d="M13.6941 22H7.69409C7.14181 22 6.69409 22.4477 6.69409 23V24.9522C6.69409 25.5045 7.14181 25.9522 7.69409 25.9522H13.6941C14.2464 25.9522 14.6941 25.5045 14.6941 24.9522V23C14.6941 22.4477 14.2464 22 13.6941 22Z" fill="#0000AF"/>
<path d="M28.8376 35.8564H7.67019C7.1311 35.8564 6.69409 36.2935 6.69409 36.8325C6.69409 37.3716 7.1311 37.8086 7.67019 37.8086H28.8376C29.3767 37.8086 29.8137 37.3716 29.8137 36.8325C29.8137 36.2935 29.3767 35.8564 28.8376 35.8564Z" fill="#0000AF"/>
<path d="M43.718 16.8564H25.6702C25.1311 16.8564 24.6941 17.2935 24.6941 17.8325C24.6941 18.3716 25.1311 18.8086 25.6702 18.8086H43.718C44.2571 18.8086 44.6941 18.3716 44.6941 17.8325C44.6941 17.2935 44.2571 16.8564 43.718 16.8564Z" fill="#0000AF"/>
<path d="M53.718 6.85645H35.6702C35.1311 6.85645 34.6941 7.29346 34.6941 7.83254C34.6941 8.37162 35.1311 8.80864 35.6702 8.80864H53.718C54.2571 8.80864 54.6941 8.37162 54.6941 7.83254C54.6941 7.29346 54.2571 6.85645 53.718 6.85645Z" fill="#0000AF"/>
</svg>
