<svg width="58" height="58" viewBox="0 0 58 58" fill="none" xmlns="http://www.w3.org/2000/svg">
<g clip-path="url(#clip0)">
<path d="M9.3625 21.3889V21.1329L9.1097 21.0927C4.12328 20.2981 0.3 15.9678 0.3 10.7617C0.3 4.99341 4.99341 0.3 10.7617 0.3C16.53 0.3 21.2234 4.99341 21.2234 10.7617C21.2234 15.9678 17.4002 20.2981 12.4137 21.0927L12.1609 21.1329V21.3889V56.3008C12.1609 57.0737 11.5346 57.7 10.7617 57.7C9.98885 57.7 9.3625 57.0737 9.3625 56.3008V21.3889ZM3.09844 10.7617C3.09844 14.9874 6.53605 18.425 10.7617 18.425C14.9874 18.425 18.425 14.9874 18.425 10.7617C18.425 6.53605 14.9874 3.09844 10.7617 3.09844C6.53605 3.09844 3.09844 6.53605 3.09844 10.7617Z" fill="black" stroke="#F0F0F5" stroke-width="0.6"/>
<path d="M33.3064 47.023C33.3064 48.1224 32.4183 49.0128 31.324 49.0128C30.2297 49.0128 29.3417 48.1224 29.3417 47.023C29.3417 45.9236 30.2297 45.0333 31.324 45.0333C32.4183 45.0333 33.3064 45.9236 33.3064 47.023Z" fill="#0000AF" stroke="#F0F0F5" stroke-width="0.3"/>
<path d="M50.258 47.023C50.258 48.1224 49.37 49.0128 48.2757 49.0128C47.1813 49.0128 46.2933 48.1224 46.2933 47.023C46.2933 45.9236 47.1813 45.0333 48.2757 45.0333C49.37 45.0333 50.258 45.9236 50.258 47.023Z" fill="#0000AF" stroke="#F0F0F5" stroke-width="0.3"/>
<mask id="path-4-inside-1" fill="white">
<path fill-rule="evenodd" clip-rule="evenodd" d="M26.0147 16.9167H53.7353C54.8664 16.9167 55.9511 17.3675 56.7509 18.1701C57.5507 18.9727 58 20.0612 58 21.1962V51.1528C58 52.2878 57.5507 53.3763 56.7509 54.1789C55.9511 54.9814 54.8664 55.4323 53.7353 55.4323H52.1355V56.2882C52.1355 57.2336 51.3717 58 50.4296 58H47.5936C46.6514 58 45.8877 57.2336 45.8877 56.2882V55.4323H33.8621V56.2882C33.8621 57.2336 33.0983 58 32.1562 58H29.3201C28.378 58 27.6143 57.2336 27.6143 56.2882V55.4323H26.0147C24.8836 55.4323 23.7989 54.9814 22.9991 54.1789C22.1993 53.3763 21.75 52.2878 21.75 51.1528V21.1962C21.75 20.0612 22.1993 18.9727 22.9991 18.1701C23.7989 17.3675 24.8836 16.9167 26.0147 16.9167ZM54.2569 51.6913C54.6002 51.3508 54.7959 50.8882 54.8015 50.4039V41.9305H24.9485V50.4039C24.9485 50.8862 25.1395 51.3489 25.4794 51.6899C25.8193 52.031 26.2803 52.2227 26.761 52.2227H52.9676C53.4503 52.2227 53.9136 52.0318 54.2569 51.6913ZM24.9485 38.7209H54.8015V21.9665C54.7959 21.4802 54.6009 21.0153 54.2582 20.6714C53.9155 20.3275 53.4523 20.1319 52.9676 20.1263H26.761C26.2784 20.1319 25.8174 20.3283 25.4781 20.6728C25.1388 21.0173 24.9485 21.4821 24.9485 21.9665V38.7209Z"/>
</mask>
<path fill-rule="evenodd" clip-rule="evenodd" d="M26.0147 16.9167H53.7353C54.8664 16.9167 55.9511 17.3675 56.7509 18.1701C57.5507 18.9727 58 20.0612 58 21.1962V51.1528C58 52.2878 57.5507 53.3763 56.7509 54.1789C55.9511 54.9814 54.8664 55.4323 53.7353 55.4323H52.1355V56.2882C52.1355 57.2336 51.3717 58 50.4296 58H47.5936C46.6514 58 45.8877 57.2336 45.8877 56.2882V55.4323H33.8621V56.2882C33.8621 57.2336 33.0983 58 32.1562 58H29.3201C28.378 58 27.6143 57.2336 27.6143 56.2882V55.4323H26.0147C24.8836 55.4323 23.7989 54.9814 22.9991 54.1789C22.1993 53.3763 21.75 52.2878 21.75 51.1528V21.1962C21.75 20.0612 22.1993 18.9727 22.9991 18.1701C23.7989 17.3675 24.8836 16.9167 26.0147 16.9167ZM54.2569 51.6913C54.6002 51.3508 54.7959 50.8882 54.8015 50.4039V41.9305H24.9485V50.4039C24.9485 50.8862 25.1395 51.3489 25.4794 51.6899C25.8193 52.031 26.2803 52.2227 26.761 52.2227H52.9676C53.4503 52.2227 53.9136 52.0318 54.2569 51.6913ZM24.9485 38.7209H54.8015V21.9665C54.7959 21.4802 54.6009 21.0153 54.2582 20.6714C53.9155 20.3275 53.4523 20.1319 52.9676 20.1263H26.761C26.2784 20.1319 25.8174 20.3283 25.4781 20.6728C25.1388 21.0173 24.9485 21.4821 24.9485 21.9665V38.7209Z" fill="black"/>
<path d="M56.7509 18.1701L56.3259 18.5936V18.5936L56.7509 18.1701ZM56.7509 54.1789L56.3259 53.7553V53.7553L56.7509 54.1789ZM52.1355 55.4323V54.8323H51.5355V55.4323H52.1355ZM45.8877 55.4323H46.4877V54.8323H45.8877V55.4323ZM33.8621 55.4323V54.8323H33.2621V55.4323H33.8621ZM27.6143 55.4323H28.2143V54.8323H27.6143V55.4323ZM22.9991 54.1789L23.4241 53.7553H23.4241L22.9991 54.1789ZM22.9991 18.1701L23.4241 18.5936H23.4241L22.9991 18.1701ZM54.8015 50.4039L55.4015 50.4108V50.4039H54.8015ZM54.2569 51.6913L54.6794 52.1173H54.6794L54.2569 51.6913ZM54.8015 41.9305H55.4015V41.3305H54.8015V41.9305ZM24.9485 41.9305V41.3305H24.3485V41.9305H24.9485ZM25.4794 51.6899L25.9044 51.2664L25.9044 51.2664L25.4794 51.6899ZM52.9676 52.2227L52.9677 51.6227H52.9676V52.2227ZM54.8015 38.7209V39.3209H55.4015V38.7209H54.8015ZM24.9485 38.7209H24.3485V39.3209H24.9485V38.7209ZM54.8015 21.9665H55.4015L55.4014 21.9597L54.8015 21.9665ZM54.2582 20.6714L54.6832 20.2479V20.2479L54.2582 20.6714ZM52.9676 20.1263L52.9745 19.5263H52.9676V20.1263ZM26.761 20.1263V19.5263L26.754 19.5263L26.761 20.1263ZM25.4781 20.6728L25.9056 21.0938L25.4781 20.6728ZM24.9485 21.9665H25.5485L25.5485 21.9664L24.9485 21.9665ZM53.7353 16.3167H26.0147V17.5167H53.7353V16.3167ZM57.1759 17.7466C56.2637 16.8313 55.0262 16.3167 53.7353 16.3167V17.5167C54.7066 17.5167 55.6385 17.9038 56.3259 18.5936L57.1759 17.7466ZM58.6 21.1962C58.6 19.9027 58.088 18.6618 57.1759 17.7466L56.3259 18.5936C57.0134 19.2835 57.4 20.2196 57.4 21.1962H58.6ZM58.6 51.1528V21.1962H57.4V51.1528H58.6ZM57.1759 54.6024C58.088 53.6871 58.6 52.4462 58.6 51.1528H57.4C57.4 52.1293 57.0134 53.0654 56.3259 53.7553L57.1759 54.6024ZM53.7353 56.0323C55.0262 56.0323 56.2637 55.5177 57.1759 54.6024L56.3259 53.7553C55.6385 54.4451 54.7066 54.8323 53.7353 54.8323V56.0323ZM52.1355 56.0323H53.7353V54.8323H52.1355V56.0323ZM52.7355 56.2882V55.4323H51.5355V56.2882H52.7355ZM50.4296 58.6C51.7051 58.6 52.7355 57.563 52.7355 56.2882H51.5355C51.5355 56.9042 51.0384 57.4 50.4296 57.4V58.6ZM47.5936 58.6H50.4296V57.4H47.5936V58.6ZM45.2877 56.2882C45.2877 57.563 46.3181 58.6 47.5936 58.6V57.4C46.9848 57.4 46.4877 56.9042 46.4877 56.2882H45.2877ZM45.2877 55.4323V56.2882H46.4877V55.4323H45.2877ZM33.8621 56.0323H45.8877V54.8323H33.8621V56.0323ZM34.4621 56.2882V55.4323H33.2621V56.2882H34.4621ZM32.1562 58.6C33.4316 58.6 34.4621 57.563 34.4621 56.2882H33.2621C33.2621 56.9042 32.765 57.4 32.1562 57.4V58.6ZM29.3201 58.6H32.1562V57.4H29.3201V58.6ZM27.0143 56.2882C27.0143 57.563 28.0447 58.6 29.3201 58.6V57.4C28.7113 57.4 28.2143 56.9042 28.2143 56.2882H27.0143ZM27.0143 55.4323V56.2882H28.2143V55.4323H27.0143ZM26.0147 56.0323H27.6143V54.8323H26.0147V56.0323ZM22.5741 54.6024C23.4863 55.5177 24.7238 56.0323 26.0147 56.0323V54.8323C25.0434 54.8323 24.1115 54.4451 23.4241 53.7553L22.5741 54.6024ZM21.15 51.1528C21.15 52.4462 21.662 53.6871 22.5741 54.6024L23.4241 53.7553C22.7366 53.0654 22.35 52.1293 22.35 51.1528H21.15ZM21.15 21.1962V51.1528H22.35V21.1962H21.15ZM22.5741 17.7466C21.662 18.6618 21.15 19.9027 21.15 21.1962H22.35C22.35 20.2196 22.7366 19.2835 23.4241 18.5936L22.5741 17.7466ZM26.0147 16.3167C24.7238 16.3167 23.4863 16.8313 22.5741 17.7466L23.4241 18.5936C24.1115 17.9038 25.0434 17.5167 26.0147 17.5167V16.3167ZM54.2015 50.3969C54.1977 50.724 54.0656 51.036 53.8344 51.2653L54.6794 52.1173C55.1348 51.6656 55.394 51.0524 55.4014 50.4108L54.2015 50.3969ZM54.2015 41.9305V50.4039H55.4015V41.9305H54.2015ZM24.9485 42.5305H54.8015V41.3305H24.9485V42.5305ZM25.5485 50.4039V41.9305H24.3485V50.4039H25.5485ZM25.9044 51.2664C25.6768 51.038 25.5485 50.7278 25.5485 50.4039H24.3485C24.3485 51.0447 24.6022 51.6597 25.0544 52.1135L25.9044 51.2664ZM26.761 51.6227C26.4401 51.6227 26.1319 51.4948 25.9044 51.2664L25.0544 52.1135C25.5067 52.5673 26.1205 52.8227 26.761 52.8227V51.6227ZM52.9676 51.6227H26.761V52.8227H52.9676V51.6227ZM53.8344 51.2653C53.6032 51.4945 53.2918 51.6227 52.9677 51.6227L52.9676 52.8227C53.6089 52.8227 54.2239 52.569 54.6794 52.1173L53.8344 51.2653ZM54.8015 38.1209H24.9485V39.3209H54.8015V38.1209ZM54.2015 21.9665V38.7209H55.4015V21.9665H54.2015ZM53.8332 21.0949C54.0653 21.3279 54.1978 21.6431 54.2015 21.9733L55.4014 21.9597C55.3941 21.3172 55.1366 20.7028 54.6832 20.2479L53.8332 21.0949ZM52.9608 20.7263C53.288 20.73 53.6012 20.8621 53.8332 21.0949L54.6832 20.2479C54.2298 19.7929 53.6166 19.5337 52.9745 19.5263L52.9608 20.7263ZM26.761 20.7263H52.9676V19.5263H26.761V20.7263ZM25.9056 21.0938C26.134 20.8619 26.444 20.73 26.768 20.7263L26.754 19.5263C26.1128 19.5338 25.5008 19.7947 25.0506 20.2517L25.9056 21.0938ZM25.5485 21.9664C25.5485 21.6393 25.677 21.3258 25.9056 21.0938L25.0506 20.2517C24.6005 20.7087 24.3485 21.3249 24.3485 21.9665L25.5485 21.9664ZM25.5485 38.7209V21.9665H24.3485V38.7209H25.5485Z" fill="#F0F0F5" mask="url(#path-4-inside-1)"/>
<path d="M10.9953 21.2L10.9896 21.2L10.9574 21.1998C10.929 21.1996 10.8872 21.1992 10.8339 21.1983C10.7273 21.1966 10.5752 21.1932 10.3941 21.1863C10.0327 21.1727 9.55962 21.1455 9.10376 21.0917C4.12024 20.2947 0.3 15.9657 0.3 10.7617C0.3 4.99341 4.99341 0.3 10.7617 0.3C16.53 0.3 21.2234 4.99341 21.2234 10.7617C21.2234 15.9757 17.6605 20.326 12.4176 21.0921C12.1479 21.1315 11.7933 21.1587 11.5004 21.176C11.3552 21.1846 11.2274 21.1907 11.1359 21.1945C11.0902 21.1965 11.0536 21.1979 11.0286 21.1988L11 21.1998L10.9953 21.2ZM3.09844 10.7617C3.09844 14.9874 6.53605 18.425 10.7617 18.425C14.9874 18.425 18.425 14.9874 18.425 10.7617C18.425 6.53605 14.9874 3.09844 10.7617 3.09844C6.53605 3.09844 3.09844 6.53605 3.09844 10.7617Z" fill="#0000AF" stroke="#F0F0F5" stroke-width="0.6"/>
</g>
<defs>
<clipPath id="clip0">
<rect width="58" height="58" fill="white"/>
</clipPath>
</defs>
</svg>
