<svg width="31" height="34" viewBox="0 0 31 34" fill="none" xmlns="http://www.w3.org/2000/svg">
<path d="M6.17108 1.43014C4.88008 0.724393 3.36405 0.741207 2.08105 1.44004L17.1161 15.1498L22.1671 10.1571L6.17108 1.43014Z" fill="black"/>
<path d="M0.578003 2.84277C0.210003 3.43584 0 4.11492 0 4.83451V29.5951C0 30.2919 0.192025 30.9562 0.538025 31.5374L15.658 16.5931L0.578003 2.84277Z" fill="black"/>
<path d="M28.8631 13.8105L24.0451 11.1832L18.6321 16.5317L25.2661 22.58L28.8651 20.617C30.1601 19.9083 30.9361 18.6361 30.9361 17.2127C30.9341 15.7904 30.1601 14.5182 28.8631 13.8105Z" fill="black"/>
<path d="M17.174 17.975L2.01294 32.9608C2.67094 33.3315 3.39296 33.5272 4.11896 33.5272C4.81996 33.5272 5.52496 33.3522 6.17096 32.9994L23.3649 23.62L17.174 17.975Z" fill="black"/>
</svg>
