<svg width="25" height="36" viewBox="0 0 25 36" fill="none" xmlns="http://www.w3.org/2000/svg">
<path d="M22.9868 35.3341H2.18139C1.77819 35.3341 1.39263 35.1757 1.10924 34.8955C0.826028 34.6154 0.667969 34.2369 0.667969 33.8433V1.99078C0.667969 1.59724 0.826028 1.21866 1.10924 0.938634C1.39263 0.658422 1.77819 0.5 2.18139 0.5H17.4122L24.5002 7.5083V33.8433C24.5002 34.2369 24.3421 34.6154 24.0589 34.8955C23.7755 35.1757 23.39 35.3341 22.9868 35.3341Z" fill="#D7E6F0" fill-opacity="0.15" stroke="black"/>
<path d="M25.0002 7.29954H19.6311C19.0971 7.29954 18.585 7.0898 18.2074 6.71645C17.8298 6.34311 17.6177 5.83674 17.6177 5.30876V0L25.0002 7.29954Z" fill="#0000AF"/>
<rect x="5" y="11.834" width="15" height="1.5" rx="0.75" fill="#0000AF"/>
<rect x="5" y="16.8862" width="15" height="1.5" rx="0.75" fill="#0000AF"/>
<rect x="5" y="21.9395" width="15" height="1.5" rx="0.75" fill="#0000AF"/>
<rect x="13" y="28.834" width="7" height="1.5" rx="0.75" fill="#0000AF"/>
</svg>
